<?xml version="1.0" encoding="utf-8"?>
<!-- Generator: Adobe Illustrator 16.0.4, SVG Export Plug-In . SVG Version: 6.00 Build 0)  -->
<!DOCTYPE svg PUBLIC "-//W3C//DTD SVG 1.1//EN" "http://www.w3.org/Graphics/SVG/1.1/DTD/svg11.dtd">
<svg version="1.1" id="Laag_1" xmlns="http://www.w3.org/2000/svg" xmlns:xlink="http://www.w3.org/1999/xlink" x="0px" y="0px"
	 width="300px" height="300px" viewBox="0 0 300 300" enable-background="new 0 0 300 300" xml:space="preserve">
<g>
	<path fill="#B4B4B4" d="M186.575,253c0.293,0,0.593,0,0.875,0c-12.016,0-12.338-13.533-12.338-13.533V226h-51v13.467
		c0,0-0.174,13.533-12.189,13.533c0.202,0,0.416,0,0.624,0c-2.24,0-4.073,1.043-4.073,2.999c0,1.958,1.833,3.001,4.073,3.001h74.028
		c2.239,0,4.073-1.043,4.073-3.001C190.648,254.042,188.814,253,186.575,253z"/>
	<path fill="#313131" d="M258.381,77H40.844c-2.447,0-4.731,1.636-4.731,4.083v149.539c0,2.446,2.284,4.378,4.731,4.378h217.537
		c2.448,0,4.731-1.932,4.731-4.378V81.083C263.112,78.636,260.829,77,258.381,77z M253.112,219.569c0,2.447-1.983,4.431-4.431,4.431
		H51.543c-2.447,0-4.431-1.983-4.431-4.431V92.431c0-2.447,1.983-4.431,4.431-4.431h197.139c2.447,0,4.431,1.984,4.431,4.431
		V219.569z"/>
	<rect x="124.112" y="235" fill="#808081" width="51" height="3"/>
</g>
</svg>
