<?xml version="1.0" encoding="utf-8"?>
<!-- Generator: Adobe Illustrator 16.0.4, SVG Export Plug-In . SVG Version: 6.00 Build 0)  -->
<!DOCTYPE svg PUBLIC "-//W3C//DTD SVG 1.1//EN" "http://www.w3.org/Graphics/SVG/1.1/DTD/svg11.dtd">
<svg version="1.1" id="Laag_1" xmlns="http://www.w3.org/2000/svg" xmlns:xlink="http://www.w3.org/1999/xlink" x="0px" y="0px"
	 width="300px" height="300px" viewBox="0 0 300 300" enable-background="new 0 0 300 300" xml:space="preserve">
<g>
	<path fill="#313131" d="M186.922,107h-73.844c-3.909,0-7.078,3.169-7.078,7.079v133.842c0,3.91,3.169,7.079,7.078,7.079h73.844
		c3.909,0,7.078-3.169,7.078-7.079V114.079C194,110.169,190.831,107,186.922,107z M189.041,223.533
		c-0.002,2.596-2.127,4.716-4.722,4.713l-66.965-0.091c-2.595-0.005-4.717-2.132-4.715-4.727l0.069-86.298
		c0.003-2.595,2.128-4.716,4.724-4.712l66.962,0.092c2.595,0.003,4.717,2.13,4.715,4.725L189.041,223.533z"/>
	<path fill="#FFFFFF" d="M158,119.333c0,0.782-0.164,1.667-0.945,1.667h-20.368c-0.783,0-1.687-0.885-1.687-1.667v-0.369
		c0-0.782,0.904-0.964,1.687-0.964h20.368c0.781,0,0.945,0.183,0.945,0.964V119.333z"/>
	<circle fill="#FFFFFF" cx="161.97" cy="118.347" r="1.603"/>
	<circle fill="#FFFFFF" cx="150.967" cy="240.383" r="6.431"/>
</g>
</svg>
