<?xml version="1.0" encoding="utf-8"?>
<!-- Generator: Adobe Illustrator 16.0.4, SVG Export Plug-In . SVG Version: 6.00 Build 0)  -->
<!DOCTYPE svg PUBLIC "-//W3C//DTD SVG 1.1//EN" "http://www.w3.org/Graphics/SVG/1.1/DTD/svg11.dtd">
<svg version="1.1" id="Laag_1" xmlns="http://www.w3.org/2000/svg" xmlns:xlink="http://www.w3.org/1999/xlink" x="0px" y="0px"
	 width="100px" height="100px" viewBox="126 253 100 100" enable-background="new 126 253 100 100" xml:space="preserve">
<g>
	<g>
		<path fill="#FFFFFF" stroke="#77B37A" stroke-miterlimit="10" d="M170.254,273.687h-29.083c-1.54,0-2.788,1.249-2.788,2.787
			v52.707c0,1.539,1.248,2.787,2.788,2.787h29.085c1.539,0,2.786-1.248,2.786-2.787v-52.706
			C173.042,274.936,171.794,273.687,170.254,273.687z"/>
		<path fill="#FFFFFF" stroke="#77B37A" stroke-miterlimit="10" d="M170.75,321.434l-29.42-0.036"/>
		<path fill="#FFFFFF" stroke="#77B37A" stroke-miterlimit="10" d="M141.365,283.696l29.418,0.035"/>
		<path fill="#77B37A" d="M157.704,279.752c0,0.221-0.179,0.397-0.397,0.397h-7.958c-0.219,0-0.398-0.177-0.398-0.397l0,0
			c0-0.22,0.18-0.398,0.398-0.398h7.958C157.525,279.354,157.704,279.532,157.704,279.752L157.704,279.752z"/>
		<circle fill="#77B37A" cx="160.43" cy="279.747" r="0.631"/>
		<circle fill="none" stroke="#77B37A" stroke-miterlimit="10" cx="156.096" cy="326.214" r="2.533"/>
	</g>
	<g>
		<g>
			<g id="BALD_5_">
				<path fill="none" stroke="#77B37A" stroke-miterlimit="10" d="M165.562,302.225c0.196-1.327,0.657-2.378,0.441-4.99
					c-0.145-1.73-1.542-5.531-6.223-6.671c-0.915-0.325-1.902-0.505-2.929-0.505c-1.028,0-2.014,0.18-2.93,0.505
					c-4.679,1.14-6.076,4.94-6.221,6.671c-0.217,2.624,0.249,3.67,0.443,5.006c-0.887,0.238-1.485,1.095-1.368,2.031l0.234,1.88
					c0.12,0.963,0.951,1.661,1.899,1.636c0.112,0.962,0.216,1.787,0.286,2.355c0.278,2.271,1.058,2.738,2.859,3.942
					c1.802,1.199,3.004,1.866,4.796,1.866c1.794,0,2.995-0.667,4.798-1.866c1.801-1.204,2.58-1.671,2.858-3.942
					c0.069-0.568,0.172-1.396,0.287-2.36c0.973,0.059,1.839-0.646,1.96-1.631l0.232-1.88
					C167.108,303.314,166.48,302.437,165.562,302.225z"/>
			</g>
			<circle fill="#77B37A" enable-background="new    " cx="154.463" cy="303.802" r="0.752"/>
			<circle fill="#77B37A" enable-background="new    " cx="159.455" cy="303.802" r="0.752"/>
			<g>
				<path fill="#77B37A" d="M156.942,310.114h-0.178c-1.55,0-2.292-0.66-2.322-0.689c-0.124-0.111-0.133-0.302-0.02-0.425
					s0.304-0.133,0.427-0.022c0.004,0.006,0.616,0.533,1.915,0.533h0.178c1.298,0,1.91-0.527,1.918-0.533
					c0.122-0.11,0.312-0.101,0.424,0.022c0.114,0.123,0.105,0.313-0.019,0.425C159.235,309.454,158.492,310.114,156.942,310.114z"/>
			</g>
		</g>
		<g id="snit_-_3_1_">
			<path fill="#FFFFFF" stroke="#77B37A" stroke-miterlimit="10" d="M147.658,302.393c0,0-0.064-3.061-0.205-4.068
				c-0.152-1.077,0.167-3.594,0.962-4.681c0.793-1.088,2.139-2.984,5.504-3.392c5.567-0.676,8.429-1.994,9.245-3.247
				c0.437,3.666-0.533,4.419-0.533,4.419s0.336,0.172,1.255,0.89c1.181,0.924,2.487,2.813,2.241,5.343
				c-0.235,2.423-0.167,4.763-0.235,4.772c-0.066,0.008-0.26-0.114-0.325-0.034c-0.067,0.082-0.261,0.225-0.436,3.32
				c-0.041,0.359-0.251,0.37-0.247,0.192c0.121-6.098-0.849-6.219-0.803-7.268c0.051-1.199,0.677-3.141-0.333-4.477
				c-1.337-1.765-3.179,0.253-6.812,0.253c-3.634,0-6.406-1.871-7.191-0.481c-0.785,1.388-0.347,3.565-0.289,4.106
				c0.166,1.483-0.878,2.814-0.832,4.317c0.042,1.374,0.1,2.743,0.061,3.356c-0.035,0.542-0.245,0.414-0.271,0
				c-0.248-3.882-0.535-3.403-0.535-3.403L147.658,302.393z"/>
		</g>
	</g>
</g>
<g>
	<g>
		<path fill="none" stroke="#37BFF0" stroke-miterlimit="10" d="M32.395,18.5H5.574c-1.422,0-2.572,1.15-2.572,2.57v48.628
			c0,1.418,1.15,2.569,2.572,2.569h26.822c1.419,0,2.568-1.151,2.568-2.569V21.07C34.965,19.65,33.814,18.5,32.395,18.5z
			 M33.164,60.838c0,0.943-0.771,1.714-1.715,1.711L7.124,62.517c-0.942-0.001-1.712-0.773-1.712-1.716l0.024-31.354
			c0.003-0.943,0.774-1.713,1.717-1.713l24.323,0.033c0.941,0.001,1.713,0.774,1.713,1.716L33.164,60.838z"/>
		<path fill="#37BFF0" d="M20.818,24.096c0,0.202-0.164,0.367-0.366,0.367h-7.34c-0.202,0-0.367-0.165-0.367-0.367l0,0
			c0-0.203,0.165-0.368,0.367-0.368h7.34C20.654,23.728,20.818,23.893,20.818,24.096L20.818,24.096z"/>
		<circle fill="#37BFF0" cx="23.332" cy="24.09" r="0.582"/>
		<circle fill="none" stroke="#37BFF0" stroke-miterlimit="10" cx="19.335" cy="66.959" r="2.336"/>
	</g>
	<g>
		<g id="BALD_1_">
			<path fill="none" stroke="#37BFF0" stroke-miterlimit="10" d="M27.537,45.885c0.183-1.233,0.611-2.21,0.41-4.639
				c-0.135-1.609-1.434-5.142-5.784-6.201c-0.851-0.303-1.769-0.47-2.723-0.47c-0.956,0-1.872,0.167-2.724,0.47
				c-4.351,1.06-5.649,4.592-5.783,6.201c-0.202,2.439,0.23,3.412,0.412,4.654c-0.824,0.221-1.381,1.018-1.272,1.888l0.218,1.747
				c0.111,0.896,0.884,1.545,1.766,1.521c0.105,0.895,0.201,1.661,0.267,2.19c0.259,2.111,0.983,2.545,2.658,3.664
				c1.675,1.115,2.792,1.735,4.459,1.735s2.784-0.62,4.46-1.735c1.674-1.119,2.398-1.553,2.657-3.664
				c0.064-0.529,0.16-1.299,0.267-2.195c0.904,0.055,1.709-0.601,1.822-1.517l0.217-1.747
				C28.974,46.898,28.391,46.082,27.537,45.885z"/>
		</g>
		<circle fill="#37BFF0" enable-background="new    " cx="17.219" cy="47.352" r="0.699"/>
		<circle fill="#37BFF0" enable-background="new    " cx="21.859" cy="47.352" r="0.699"/>
		<g>
			<path fill="#37BFF0" d="M19.523,53.22h-0.165c-1.44,0-2.131-0.613-2.159-0.641c-0.115-0.104-0.123-0.281-0.018-0.396
				c0.104-0.114,0.281-0.123,0.396-0.021c0.005,0.006,0.573,0.495,1.781,0.495h0.165c1.206,0,1.776-0.489,1.783-0.495
				c0.113-0.103,0.291-0.094,0.395,0.021c0.105,0.114,0.098,0.292-0.018,0.396C21.655,52.606,20.964,53.22,19.523,53.22z"/>
		</g>
	</g>
	<g id="snit_-_3">
		<path fill="#FFFFFF" stroke="#37BFF0" stroke-miterlimit="10" d="M10.893,46.041c0,0-0.061-2.845-0.191-3.781
			c-0.141-1.002,0.156-3.342,0.895-4.352c0.737-1.012,1.988-2.774,5.117-3.153c5.176-0.628,7.836-1.854,8.594-3.019
			c0.406,3.408-0.495,4.107-0.495,4.107s0.312,0.16,1.167,0.828c1.098,0.858,2.312,2.615,2.084,4.967
			c-0.22,2.252-0.156,4.428-0.22,4.437c-0.062,0.007-0.241-0.106-0.302-0.031c-0.062,0.075-0.243,0.208-0.405,3.086
			c-0.038,0.335-0.233,0.345-0.229,0.179c0.112-5.668-0.789-5.781-0.746-6.756c0.047-1.114,0.629-2.92-0.311-4.162
			c-1.242-1.641-2.954,0.235-6.332,0.235s-5.955-1.739-6.685-0.448c-0.73,1.291-0.323,3.315-0.269,3.818
			c0.154,1.379-0.817,2.617-0.774,4.014c0.039,1.277,0.093,2.551,0.057,3.12c-0.032,0.504-0.228,0.385-0.252,0
			c-0.23-3.608-0.497-3.164-0.497-3.164L10.893,46.041z"/>
	</g>
</g>
<g>
	<g>
		<path fill="#FFFFFF" stroke="#37BFF0" stroke-miterlimit="10" d="M95.287,21.768h-26.82c-1.422,0-2.572,1.152-2.572,2.572v48.63
			c0,1.418,1.15,2.57,2.572,2.57h26.822c1.42,0,2.568-1.152,2.568-2.57V24.34C97.857,22.92,96.707,21.768,95.287,21.768z"/>
		<path fill="#FFFFFF" stroke="#37BFF0" stroke-miterlimit="10" d="M96.057,64.109c0,0.943-0.771,1.715-1.714,1.711l-24.325-0.031
			c-0.942-0.002-1.713-0.773-1.713-1.717l0.025-31.357c0.002-0.943,0.773-1.713,1.717-1.713l24.323,0.033
			c0.941,0.002,1.712,0.773,1.712,1.715L96.057,64.109z"/>
		<path fill="#37BFF0" d="M83.712,27.363c0,0.203-0.165,0.367-0.366,0.367h-7.34c-0.203,0-0.367-0.164-0.367-0.367l0,0
			c0-0.203,0.164-0.367,0.367-0.367h7.34C83.547,26.996,83.712,27.16,83.712,27.363L83.712,27.363z"/>
		<circle fill="#37BFF0" cx="86.225" cy="27.358" r="0.583"/>
		<circle fill="none" stroke="#37BFF0" stroke-miterlimit="10" cx="82.229" cy="70.231" r="2.336"/>
	</g>
	<g id="head">
		<path fill="none" stroke="#37BFF0" stroke-miterlimit="10" d="M91.084,48.107c0.189-1.277,0.632-2.285,0.424-4.801
			c-0.139-1.664-1.484-5.322-5.99-6.418c-0.881-0.314-1.829-0.486-2.818-0.486c-0.988,0-1.938,0.172-2.819,0.486
			c-4.505,1.096-5.851,4.752-5.989,6.418c-0.209,2.525,0.239,3.533,0.427,4.818c-0.853,0.227-1.429,1.053-1.317,1.953l0.629,1.81
			c0.123,0.983,0.615,1.683,1.6,1.562c0.071-0.01,0.142-0.024,0.209-0.041c0.34,2.171,1.238,3.682,2.779,4.71
			c1.734,1.156,3.215,2.101,4.482,2.101c1.309,0,2.906-1.141,4.482-2.506c1.471-1.273,2.423-2.27,2.775-4.322
			c0.088,0.024,0.179,0.046,0.271,0.057c0.985,0.123,1.478-0.576,1.6-1.56l0.629-1.81C92.572,49.156,91.969,48.312,91.084,48.107z"
			/>
	</g>
	<circle fill="#37BFF0" enable-background="new    " cx="80.586" cy="50.222" r="0.578"/>
	<circle fill="#37BFF0" enable-background="new    " cx="85.123" cy="50.222" r="0.578"/>
	<g enable-background="new    ">
		<path fill="#37BFF0" d="M82.812,56.06h-0.119c-1.045,0-1.547-0.445-1.566-0.465c-0.083-0.076-0.09-0.205-0.014-0.287
			c0.076-0.083,0.205-0.089,0.288-0.014c0.003,0.003,0.417,0.359,1.292,0.359h0.119c0.875,0,1.289-0.355,1.293-0.359
			c0.083-0.075,0.212-0.069,0.287,0.014c0.076,0.083,0.07,0.212-0.014,0.287C84.359,55.614,83.857,56.06,82.812,56.06z"/>
	</g>
	<g id="snit_-_6">
		<path fill="#FFFFFF" stroke="#37BFF0" stroke-miterlimit="10" d="M93.039,47.65c0.139,0.092,0.309,0.197,0.486,0.281
			c-0.283-0.252-0.449-0.84-0.552-1.42c-0.005-0.049-0.015-0.131-0.015-0.131c-0.044-0.379-0.096-0.775-0.16-1.18
			c-0.002-0.004-0.002-0.012-0.003-0.018v0.004c-0.263-1.637-0.748-3.443-1.887-5.201c-1.732-2.674-4.21-2.727-4.21-2.727
			c-0.575-0.857-1.787-1.229-3.873-1.229c-2.705,0-5.132,0.723-7.207,2.719c0,0,0.947-1.09,0-0.002
			c-0.947,1.086-1.436,1.537-2.23,3.941c-0.393,1.186-1.155,3.58-1.284,5.434v-0.002c0,0.002,0,0.002,0,0.002
			c-0.021,0.277-0.025,0.543-0.013,0.791c0.021,0.43,0.057,0.836,0.102,1.219c0.029,1.06-0.001,2.233-0.295,2.795
			c0.545-0.155,0.662-0.597,0.662-0.597v-0.006c0.541,2.582,2.261,5.282,3.543,6.157c1.48,1.01,1,2.756,1,2.756
			s0.576-0.557,0.754-1.199c0.02,0.059,0.039,0.117,0.055,0.181c0.306,1.239-0.425,2.457-0.425,2.457s2.083-0.444,2.661-1.103
			c0.872-0.988,1.137-1.671,1.137-1.671c-0.811-0.322-2.275-1.24-3.068-1.785c-1.717-1.178-2.498-2.787-2.778-4.71
			c0,0-0.12,0.044-0.304,0.048c-0.92,0.066-1.387-0.616-1.506-1.568L73,50.078c-0.111-0.9,0.465-1.727,1.317-1.953
			c-0.019-0.121-0.101-4.318,4.647-4.707c0.23-0.02,0.446-0.033,0.656-0.045c-0.29,0.441-0.413,0.998-0.491,1.545
			c0.271-0.746,1.931-1.326,1.931-1.326c-0.254,0.477-0.336,1.051-0.336,1.666c0.738-1.252,2.959-1.621,2.968-1.621
			c-0.312,0.668-0.585,1.463-0.717,2.074c0.677-1.113,1.876-2.098,2.812-2.756c0.394-0.203,0.829-0.479,1.339-0.848
			c1.126,0.871,4.18,3.441,4.029,5.572l0,0c-0.025,0.141-0.051,0.283-0.072,0.428c0.195,0.047,1.619,1.305,1.323,2.115
			c-0.335,0.921-0.523,1.352-0.579,1.665c-0.054,0.312-0.148,0.698-0.251,0.87c-0.104,0.171-0.344,0.436-0.344,0.436
			c-0.251,0.208-0.581,0.308-1.004,0.256c-0.094-0.013-0.185-0.033-0.272-0.059c-0.353,2.053-1.291,3.064-2.775,4.322
			c-0.515,0.438-2.43,1.818-2.43,1.818s0.124,1.265,1.412,2.292c0.852,0.678,1.818,1.278,1.818,1.278s-0.229-1.992,0.109-3.402
			c-0.123,0.785,1.014,1.542,1.014,1.542s-0.349-0.392-0.31-1.579c0.039-1.186,0.794-1.467,1.802-2.998
			c0.755-1.146,1.252-2.14,1.536-2.76c0.007-0.01,0.014-0.02,0.021-0.03c0.206-0.323,0.822-2.277,0.886-3.478
			C93.078,49.682,93.039,47.668,93.039,47.65z"/>
	</g>
</g>
<g>
	<g>
		<path fill="#FFFFFF" stroke="#37BFF0" stroke-miterlimit="10" d="M72.691,14.196H36.141c-1.936,0-3.504,1.569-3.504,3.503V83.94
			c0,1.935,1.568,3.503,3.504,3.503h36.553c1.935,0,3.502-1.568,3.502-3.503V17.7C76.195,15.766,74.627,14.196,72.691,14.196z"/>
		<path fill="#FFFFFF" stroke="#37BFF0" stroke-miterlimit="10" d="M73.74,71.872c0,1.284-1.053,2.334-2.336,2.332l-33.148-0.045
			c-1.285-0.002-2.336-1.055-2.334-2.339l0.035-42.712c0.002-1.284,1.053-2.333,2.338-2.332l33.146,0.045
			c1.283,0.002,2.334,1.054,2.334,2.338L73.74,71.872z"/>
		<path fill="#37BFF0" d="M56.92,21.819c0,0.276-0.225,0.5-0.5,0.5H46.418c-0.275,0-0.5-0.224-0.5-0.5l0,0
			c0-0.276,0.225-0.5,0.5-0.5H56.42C56.695,21.319,56.92,21.543,56.92,21.819L56.92,21.819z"/>
		<circle fill="#37BFF0" cx="60.344" cy="21.812" r="0.793"/>
		<circle fill="none" stroke="#37BFF0" stroke-miterlimit="10" cx="54.897" cy="80.211" r="3.183"/>
	</g>
	<g>
		<g id="BALD_4_">
			<path fill="none" stroke="#37BFF0" stroke-miterlimit="10" d="M66.072,49.814c0.249-1.681,0.832-3.009,0.559-6.318
				c-0.182-2.191-1.952-7.002-7.88-8.445c-1.159-0.412-2.408-0.64-3.709-0.64c-1.303,0-2.552,0.228-3.713,0.64
				c-5.927,1.443-7.698,6.254-7.88,8.445c-0.275,3.323,0.312,4.648,0.561,6.338c-1.123,0.299-1.881,1.387-1.734,2.571l0.297,2.381
				c0.15,1.22,1.205,2.103,2.406,2.071c0.145,1.219,0.276,2.265,0.364,2.985c0.354,2.876,1.34,3.467,3.621,4.989
				c2.283,1.521,3.807,2.366,6.078,2.366c2.271,0,3.792-0.845,6.075-2.366c2.282-1.522,3.269-2.113,3.621-4.989
				c0.088-0.722,0.218-1.77,0.363-2.992c1.233,0.073,2.329-0.819,2.483-2.064l0.295-2.381C68.03,51.193,67.236,50.084,66.072,49.814
				z"/>
		</g>
		<circle fill="#37BFF0" enable-background="new    " cx="52.014" cy="51.809" r="0.952"/>
		<circle fill="#37BFF0" enable-background="new    " cx="58.337" cy="51.809" r="0.952"/>
		<g>
			<path fill="#37BFF0" d="M55.156,59.805h-0.226c-1.964,0-2.904-0.837-2.943-0.874c-0.156-0.141-0.167-0.382-0.024-0.538
				s0.384-0.167,0.54-0.026c0.005,0.006,0.781,0.675,2.428,0.675h0.226c1.642,0,2.419-0.667,2.427-0.675
				c0.155-0.141,0.397-0.13,0.539,0.026c0.143,0.156,0.132,0.397-0.023,0.538C58.06,58.968,57.117,59.805,55.156,59.805z"/>
		</g>
	</g>
	<g id="brd_-_4">
		<path fill="none" stroke="#37BFF0" stroke-miterlimit="10" d="M65.53,51.45c-0.129,0-0.454,0.741-0.646,1.203
			c-0.264,0.667-0.54,1.316-0.771,1.775c-0.607,1.199-2.399,2.595-2.707,3.41c-0.307,0.816-0.545,1.385-0.984,1.33
			c-0.44-0.056-0.221-1.128-1.431-2.807c-1.196-1.657-3.485-1.648-3.967-1.647c-0.48-0.001-2.772-0.01-3.968,1.647
			c-1.21,1.679-0.99,2.751-1.431,2.807c-0.439,0.055-0.678-0.514-0.984-1.33c-0.308-0.815-2.102-2.211-2.707-3.41
			c-0.257-0.506-0.565-1.243-0.853-1.98c-0.191-0.447-0.449-0.998-0.561-0.998c-0.186,0-0.137,0.565-0.102,0.925
			c0,0.007-0.004,0.011-0.004,0.018c0.182,1.93,0.4,4.149,0.531,5.235c0.193,1.596,0.111,3.577,1.24,4.925
			c1.127,1.348,4.42,3.472,6.328,4.209c1.204,0.468,2.354,0.47,2.509,0.47c0.154,0.002,1.303-0.002,2.507-0.47
			c1.908-0.737,5.201-2.861,6.329-4.209s1.046-3.329,1.237-4.925c0.132-1.089,0.354-3.321,0.535-5.258
			C65.667,52.012,65.714,51.45,65.53,51.45z M58.626,60.801c-0.43,0.216-1.713,0.917-3.604,0.923
			c-1.889-0.006-3.172-0.707-3.603-0.923c-0.349-0.175-0.831-0.559-0.64-1.026c0.193-0.469,1.378-1.981,2.277-2.61
			c0.541-0.376,1.447-0.44,1.965-0.431c0.521-0.01,1.426,0.055,1.965,0.431c0.901,0.629,2.085,2.142,2.278,2.61
			C59.457,60.242,58.975,60.626,58.626,60.801z"/>
	</g>
</g>
<g>
	<g>
		<path fill="#FFFFFF" stroke="#37BFF0" stroke-miterlimit="10" d="M208.396,268.813h-33.584c-1.778,0-3.22,1.442-3.22,3.219v60.864
			c0,1.777,1.441,3.219,3.22,3.219h33.586c1.777,0,3.218-1.441,3.218-3.219v-60.863
			C211.615,270.256,210.174,268.813,208.396,268.813z"/>
		<path fill="#FFFFFF" stroke="#37BFF0" stroke-miterlimit="10" d="M208.969,323.95l-33.974-0.041"/>
		<path fill="#FFFFFF" stroke="#37BFF0" stroke-miterlimit="10" d="M175.036,280.372l33.971,0.042"/>
		<path fill="#37BFF0" d="M193.904,275.817c0,0.254-0.207,0.46-0.46,0.46h-9.189c-0.253,0-0.46-0.206-0.46-0.46l0,0
			c0-0.254,0.207-0.459,0.46-0.459h9.189C193.697,275.358,193.904,275.563,193.904,275.817L193.904,275.817z"/>
		<circle fill="#37BFF0" cx="197.05" cy="275.812" r="0.729"/>
		<circle fill="none" stroke="#37BFF0" stroke-miterlimit="10" cx="192.046" cy="329.471" r="2.925"/>
	</g>
	<g>
		<g id="BALD_6_">
			<path fill="none" stroke="#37BFF0" stroke-miterlimit="10" d="M202.313,301.541c0.229-1.545,0.765-2.765,0.514-5.806
				c-0.167-2.014-1.794-6.434-7.24-7.76c-1.065-0.379-2.213-0.588-3.408-0.588c-1.197,0-2.345,0.209-3.411,0.588
				c-5.446,1.326-7.074,5.746-7.241,7.76c-0.253,3.054,0.287,4.271,0.516,5.823c-1.032,0.274-1.729,1.274-1.594,2.362l0.272,2.188
				c0.139,1.121,1.107,1.933,2.211,1.903c0.133,1.12,0.254,2.081,0.335,2.743c0.325,2.643,1.231,3.186,3.327,4.584
				c2.098,1.398,3.498,2.175,5.585,2.175c2.086,0,3.484-0.776,5.582-2.175c2.097-1.398,3.003-1.941,3.327-4.584
				c0.081-0.663,0.2-1.626,0.334-2.749c1.133,0.067,2.14-0.753,2.281-1.897l0.271-2.188
				C204.112,302.808,203.383,301.788,202.313,301.541z"/>
		</g>
		<circle fill="#37BFF0" enable-background="new    " cx="189.396" cy="303.374" r="0.875"/>
		<circle fill="#37BFF0" enable-background="new    " cx="195.206" cy="303.374" r="0.875"/>
		<g>
			<path fill="#37BFF0" d="M192.283,310.72h-0.207c-1.805,0-2.668-0.769-2.704-0.803c-0.144-0.129-0.153-0.351-0.022-0.494
				s0.353-0.154,0.496-0.024c0.005,0.005,0.718,0.62,2.23,0.62h0.207c1.509,0,2.223-0.613,2.23-0.62
				c0.143-0.13,0.365-0.119,0.495,0.024c0.131,0.144,0.121,0.365-0.021,0.494C194.951,309.951,194.085,310.72,192.283,310.72z"/>
		</g>
	</g>
	<g id="brd_-_4_3_">
		<path fill="none" stroke="#37BFF0" stroke-miterlimit="10" d="M201.815,303.044c-0.118,0-0.417,0.681-0.593,1.105
			c-0.242,0.612-0.496,1.209-0.709,1.631c-0.559,1.102-2.205,2.384-2.487,3.134s-0.501,1.272-0.904,1.222
			c-0.405-0.051-0.203-1.036-1.314-2.579c-1.1-1.522-3.203-1.515-3.646-1.514c-0.441-0.001-2.547-0.009-3.646,1.514
			c-1.111,1.543-0.91,2.528-1.314,2.579c-0.403,0.051-0.623-0.472-0.904-1.222c-0.283-0.75-1.931-2.032-2.487-3.134
			c-0.236-0.465-0.52-1.143-0.783-1.819c-0.176-0.411-0.413-0.917-0.516-0.917c-0.17,0-0.125,0.52-0.093,0.85
			c0,0.006-0.004,0.01-0.004,0.016c0.167,1.773,0.368,3.812,0.488,4.811c0.178,1.467,0.103,3.287,1.14,4.525
			c1.035,1.238,4.061,3.189,5.814,3.867c1.106,0.43,2.163,0.432,2.305,0.432c0.143,0.002,1.197-0.002,2.304-0.432
			c1.753-0.678,4.779-2.629,5.815-3.867s0.961-3.059,1.137-4.525c0.121-1,0.326-3.052,0.492-4.831
			C201.941,303.56,201.984,303.044,201.815,303.044z M195.472,311.635c-0.395,0.199-1.574,0.843-3.311,0.849
			c-1.735-0.006-2.915-0.649-3.311-0.849c-0.32-0.16-0.764-0.513-0.588-0.942c0.178-0.431,1.267-1.821,2.093-2.398
			c0.497-0.346,1.33-0.405,1.806-0.396c0.478-0.01,1.31,0.05,1.805,0.396c0.828,0.577,1.916,1.968,2.094,2.398
			C196.235,311.122,195.792,311.475,195.472,311.635z"/>
	</g>
</g>
<g>
	<g>
		<path fill="#FFFFFF" stroke="#37BFF0" stroke-miterlimit="10" d="M309.204,273.687h-29.083c-1.54,0-2.788,1.249-2.788,2.787
			v52.707c0,1.539,1.248,2.787,2.788,2.787h29.085c1.539,0,2.786-1.248,2.786-2.787v-52.706
			C311.992,274.936,310.744,273.687,309.204,273.687z"/>
		<path fill="#FFFFFF" stroke="#37BFF0" stroke-miterlimit="10" d="M309.7,321.434l-29.42-0.036"/>
		<path fill="#FFFFFF" stroke="#37BFF0" stroke-miterlimit="10" d="M280.315,283.696l29.418,0.035"/>
		<path fill="#37BFF0" d="M296.654,279.752c0,0.221-0.179,0.397-0.397,0.397h-7.958c-0.219,0-0.398-0.177-0.398-0.397l0,0
			c0-0.22,0.18-0.398,0.398-0.398h7.958C296.476,279.354,296.654,279.532,296.654,279.752L296.654,279.752z"/>
		<circle fill="#37BFF0" cx="299.38" cy="279.747" r="0.631"/>
		<circle fill="none" stroke="#37BFF0" stroke-miterlimit="10" cx="295.046" cy="326.214" r="2.533"/>
	</g>
	<g>
		<g>
			<g id="BALD_7_">
				<path fill="none" stroke="#77B37A" stroke-miterlimit="10" d="M304.513,302.225c0.196-1.327,0.657-2.378,0.441-4.99
					c-0.145-1.73-1.542-5.531-6.223-6.671c-0.915-0.325-1.902-0.505-2.929-0.505c-1.028,0-2.014,0.18-2.93,0.505
					c-4.679,1.14-6.076,4.94-6.221,6.671c-0.217,2.624,0.249,3.67,0.443,5.006c-0.887,0.238-1.485,1.095-1.368,2.031l0.234,1.88
					c0.12,0.963,0.951,1.661,1.899,1.636c0.112,0.962,0.216,1.787,0.286,2.355c0.278,2.271,1.058,2.738,2.859,3.942
					c1.802,1.199,3.004,1.866,4.796,1.866c1.794,0,2.995-0.667,4.798-1.866c1.801-1.204,2.58-1.671,2.858-3.942
					c0.069-0.568,0.172-1.396,0.287-2.36c0.973,0.059,1.839-0.646,1.96-1.631l0.232-1.88
					C306.059,303.314,305.431,302.437,304.513,302.225z"/>
			</g>
			<circle fill="#77B37A" enable-background="new    " cx="293.413" cy="303.802" r="0.752"/>
			<circle fill="#77B37A" enable-background="new    " cx="298.405" cy="303.802" r="0.752"/>
			<g>
				<path fill="#77B37A" d="M295.893,310.114h-0.178c-1.55,0-2.292-0.66-2.322-0.689c-0.124-0.111-0.133-0.302-0.02-0.425
					s0.304-0.133,0.427-0.022c0.004,0.006,0.616,0.533,1.915,0.533h0.178c1.298,0,1.91-0.527,1.918-0.533
					c0.122-0.11,0.312-0.101,0.424,0.022c0.114,0.123,0.105,0.313-0.019,0.425C298.186,309.454,297.442,310.114,295.893,310.114z"/>
			</g>
		</g>
		<g id="snit_-_3_2_">
			<path fill="#FFFFFF" stroke="#77B37A" stroke-miterlimit="10" d="M286.608,302.393c0,0-0.064-3.061-0.205-4.068
				c-0.152-1.077,0.167-3.594,0.962-4.681c0.793-1.088,2.139-2.984,5.504-3.392c5.567-0.676,8.429-1.994,9.245-3.247
				c0.437,3.666-0.533,4.419-0.533,4.419s0.336,0.172,1.255,0.89c1.181,0.924,2.487,2.813,2.241,5.343
				c-0.235,2.423-0.167,4.763-0.235,4.772c-0.066,0.008-0.26-0.114-0.325-0.034c-0.067,0.082-0.261,0.225-0.436,3.32
				c-0.041,0.359-0.251,0.37-0.247,0.192c0.121-6.098-0.849-6.219-0.803-7.268c0.051-1.199,0.677-3.141-0.333-4.477
				c-1.337-1.765-3.179,0.253-6.812,0.253c-3.634,0-6.406-1.871-7.191-0.481c-0.785,1.388-0.347,3.565-0.289,4.106
				c0.166,1.483-0.878,2.814-0.832,4.317c0.042,1.374,0.1,2.743,0.061,3.356c-0.035,0.542-0.245,0.414-0.271,0
				c-0.248-3.882-0.535-3.403-0.535-3.403L286.608,302.393z"/>
		</g>
	</g>
</g>
<g>
	<g>
		<path fill="#FFFFFF" stroke="#37BFF0" stroke-miterlimit="10" d="M347.346,268.813h-33.584c-1.778,0-3.22,1.442-3.22,3.219v60.864
			c0,1.777,1.441,3.219,3.22,3.219h33.586c1.777,0,3.218-1.441,3.218-3.219v-60.863
			C350.565,270.256,349.124,268.813,347.346,268.813z"/>
		<path fill="#FFFFFF" stroke="#37BFF0" stroke-miterlimit="10" d="M347.919,323.95l-33.974-0.041"/>
		<path fill="#FFFFFF" stroke="#37BFF0" stroke-miterlimit="10" d="M313.986,280.372l33.971,0.042"/>
		<path fill="#37BFF0" d="M332.854,275.817c0,0.254-0.207,0.46-0.46,0.46h-9.189c-0.253,0-0.46-0.206-0.46-0.46l0,0
			c0-0.254,0.207-0.459,0.46-0.459h9.189C332.647,275.358,332.854,275.563,332.854,275.817L332.854,275.817z"/>
		<circle fill="#37BFF0" cx="336" cy="275.812" r="0.729"/>
		<circle fill="none" stroke="#37BFF0" stroke-miterlimit="10" cx="330.996" cy="329.471" r="2.925"/>
	</g>
	<g>
		<g id="BALD_3_">
			<path fill="none" stroke="#955096" stroke-miterlimit="10" d="M341.264,301.541c0.229-1.545,0.765-2.765,0.514-5.806
				c-0.167-2.014-1.794-6.434-7.24-7.76c-1.065-0.379-2.213-0.588-3.408-0.588c-1.197,0-2.345,0.209-3.411,0.588
				c-5.446,1.326-7.074,5.746-7.241,7.76c-0.253,3.054,0.287,4.271,0.516,5.823c-1.032,0.274-1.729,1.274-1.594,2.362l0.272,2.188
				c0.139,1.121,1.107,1.933,2.211,1.903c0.133,1.12,0.254,2.081,0.335,2.743c0.325,2.643,1.231,3.186,3.327,4.584
				c2.098,1.398,3.498,2.175,5.585,2.175c2.086,0,3.484-0.776,5.582-2.175c2.097-1.398,3.003-1.941,3.327-4.584
				c0.081-0.663,0.2-1.626,0.334-2.749c1.133,0.067,2.14-0.753,2.281-1.897l0.271-2.188
				C343.062,302.808,342.333,301.788,341.264,301.541z"/>
		</g>
		<circle fill="#955096" enable-background="new    " cx="328.347" cy="303.374" r="0.875"/>
		<circle fill="#955096" enable-background="new    " cx="334.156" cy="303.374" r="0.875"/>
		<g>
			<path fill="#955096" d="M331.233,310.72h-0.207c-1.805,0-2.668-0.769-2.704-0.803c-0.144-0.129-0.153-0.351-0.022-0.494
				s0.353-0.154,0.496-0.024c0.005,0.005,0.718,0.62,2.23,0.62h0.207c1.509,0,2.223-0.613,2.23-0.62
				c0.143-0.13,0.365-0.119,0.495,0.024c0.131,0.144,0.121,0.365-0.021,0.494C333.901,309.951,333.035,310.72,331.233,310.72z"/>
		</g>
	</g>
	<g id="brd_-_4_2_">
		<path fill="none" stroke="#955096" stroke-miterlimit="10" d="M340.766,303.044c-0.118,0-0.417,0.681-0.593,1.105
			c-0.242,0.612-0.496,1.209-0.709,1.631c-0.559,1.102-2.205,2.384-2.487,3.134s-0.501,1.272-0.904,1.222
			c-0.405-0.051-0.203-1.036-1.314-2.579c-1.1-1.522-3.203-1.515-3.646-1.514c-0.441-0.001-2.547-0.009-3.646,1.514
			c-1.111,1.543-0.91,2.528-1.314,2.579c-0.403,0.051-0.623-0.472-0.904-1.222c-0.283-0.75-1.931-2.032-2.487-3.134
			c-0.236-0.465-0.52-1.143-0.783-1.819c-0.176-0.411-0.413-0.917-0.516-0.917c-0.17,0-0.125,0.52-0.093,0.85
			c0,0.006-0.004,0.01-0.004,0.016c0.167,1.773,0.368,3.812,0.488,4.811c0.178,1.467,0.103,3.287,1.14,4.525
			c1.035,1.238,4.061,3.189,5.814,3.867c1.106,0.43,2.163,0.432,2.305,0.432c0.143,0.002,1.197-0.002,2.304-0.432
			c1.753-0.678,4.779-2.629,5.815-3.867s0.961-3.059,1.137-4.525c0.121-1,0.326-3.052,0.492-4.831
			C340.892,303.56,340.935,303.044,340.766,303.044z M334.422,311.635c-0.395,0.199-1.574,0.843-3.311,0.849
			c-1.735-0.006-2.915-0.649-3.311-0.849c-0.32-0.16-0.764-0.513-0.588-0.942c0.178-0.431,1.267-1.821,2.093-2.398
			c0.497-0.346,1.33-0.405,1.806-0.396c0.478-0.01,1.31,0.05,1.805,0.396c0.828,0.577,1.916,1.968,2.094,2.398
			C335.186,311.122,334.742,311.475,334.422,311.635z"/>
	</g>
</g>
<g>
	<g>
		<path fill="#FFFFFF" stroke="#37BFF0" stroke-miterlimit="10" d="M334.088,18.766h-36.03c-1.91,0-3.456,1.547-3.456,3.455V87.55
			c0,1.905,1.546,3.453,3.456,3.453h36.033c1.907,0,3.45-1.548,3.45-3.453V22.221C337.541,20.313,335.996,18.766,334.088,18.766z"/>
		<path fill="#FFFFFF" stroke="#37BFF0" stroke-miterlimit="10" d="M335.122,75.646c0,1.268-1.036,2.304-2.303,2.299l-32.679-0.042
			c-1.266-0.003-2.301-1.039-2.301-2.307l0.034-42.124c0.003-1.268,1.039-2.302,2.307-2.302l32.676,0.044
			c1.265,0.002,2.3,1.04,2.3,2.304L335.122,75.646z"/>
		<path fill="#37BFF0" d="M318.538,26.284c0,0.272-0.222,0.493-0.492,0.493h-9.86c-0.272,0-0.493-0.221-0.493-0.493l0,0
			c0-0.273,0.221-0.494,0.493-0.494h9.86C318.316,25.79,318.538,26.011,318.538,26.284L318.538,26.284z"/>
		<circle fill="#37BFF0" cx="321.914" cy="26.276" r="0.782"/>
		<circle fill="none" stroke="#37BFF0" stroke-miterlimit="10" cx="316.545" cy="83.872" r="3.138"/>
	</g>
	<g id="head_1_">
		<path fill="none" stroke="#37BFF0" stroke-miterlimit="10" d="M328.441,54.15c0.255-1.716,0.85-3.071,0.569-6.448
			c-0.186-2.237-1.994-7.15-8.047-8.624c-1.184-0.421-2.457-0.653-3.786-0.653c-1.328,0-2.604,0.232-3.788,0.653
			c-6.052,1.474-7.859,6.385-8.046,8.624c-0.28,3.391,0.321,4.744,0.573,6.47c-1.146,0.306-1.919,1.415-1.77,2.624l0.845,2.431
			c0.165,1.321,0.827,2.261,2.149,2.099c0.096-0.014,0.19-0.033,0.28-0.056c0.457,2.917,1.664,4.946,3.734,6.327
			c2.329,1.554,4.318,2.822,6.021,2.822c1.758,0,3.904-1.532,6.021-3.366c1.976-1.711,3.255-3.049,3.729-5.807
			c0.118,0.033,0.24,0.062,0.365,0.076c1.323,0.165,1.984-0.774,2.148-2.096l0.845-2.431
			C330.441,55.56,329.631,54.426,328.441,54.15z"/>
	</g>
	<circle fill="#37BFF0" enable-background="new    " cx="314.339" cy="56.991" r="0.776"/>
	<circle fill="#37BFF0" enable-background="new    " cx="320.434" cy="56.991" r="0.776"/>
	<g enable-background="new    ">
		<path fill="#37BFF0" d="M317.33,64.832h-0.16c-1.404,0-2.078-0.598-2.104-0.624c-0.111-0.103-0.121-0.275-0.019-0.386
			c0.103-0.111,0.275-0.119,0.387-0.019c0.004,0.004,0.561,0.483,1.736,0.483h0.16c1.175,0,1.731-0.478,1.736-0.483
			c0.111-0.101,0.285-0.093,0.386,0.019c0.103,0.111,0.095,0.285-0.019,0.386C319.408,64.234,318.733,64.832,317.33,64.832z"/>
	</g>
	<g id="snit_-_6_1_">
		<path fill="#FFFFFF" stroke="#37BFF0" stroke-miterlimit="10" d="M331.068,53.535c0.187,0.124,0.414,0.265,0.653,0.379
			c-0.381-0.339-0.604-1.128-0.741-1.907c-0.007-0.066-0.02-0.176-0.02-0.176c-0.06-0.511-0.129-1.042-0.216-1.584
			c-0.002-0.007-0.002-0.016-0.004-0.023v0.004c-0.353-2.197-1.005-4.625-2.534-6.985c-2.327-3.592-5.656-3.664-5.656-3.664
			c-0.772-1.152-2.4-1.651-5.203-1.651c-3.634,0-6.894,0.972-9.682,3.653c0,0,1.272-1.463,0-0.003
			c-1.272,1.46-1.929,2.065-2.996,5.296c-0.527,1.592-1.553,4.808-1.726,7.297v-0.001c0,0.001,0,0.002,0,0.002
			c-0.027,0.373-0.034,0.729-0.017,1.062c0.028,0.578,0.076,1.123,0.136,1.637c0.04,1.424-0.001,3.001-0.396,3.755
			c0.731-0.208,0.889-0.802,0.889-0.802v-0.008c0.728,3.469,3.037,7.097,4.76,8.271c1.989,1.357,1.344,3.703,1.344,3.703
			s0.774-0.748,1.013-1.611c0.026,0.078,0.053,0.157,0.073,0.242c0.411,1.665-0.57,3.301-0.57,3.301s2.799-0.597,3.575-1.48
			c1.171-1.328,1.527-2.245,1.527-2.245c-1.089-0.433-3.058-1.666-4.122-2.398c-2.307-1.582-3.356-3.744-3.732-6.327
			c0,0-0.162,0.06-0.408,0.064c-1.236,0.089-1.863-0.828-2.023-2.107l-0.845-2.431c-0.149-1.209,0.624-2.318,1.77-2.624
			c-0.024-0.163-0.135-5.8,6.244-6.323c0.31-0.024,0.6-0.043,0.881-0.059c-0.39,0.593-0.555,1.34-0.659,2.074
			c0.364-1.001,2.594-1.78,2.594-1.78c-0.342,0.639-0.452,1.41-0.452,2.235c0.992-1.681,3.976-2.175,3.987-2.177
			c-0.418,0.898-0.786,1.966-0.963,2.787c0.909-1.495,2.521-2.817,3.778-3.701c0.528-0.274,1.114-0.644,1.799-1.14
			c1.513,1.171,5.615,4.623,5.413,7.485l0,0c-0.034,0.189-0.068,0.381-0.098,0.575c0.263,0.062,2.176,1.751,1.778,2.841
			c-0.45,1.237-0.703,1.815-0.778,2.236c-0.072,0.42-0.199,0.938-0.337,1.169c-0.141,0.229-0.462,0.586-0.462,0.586
			c-0.337,0.279-0.78,0.413-1.349,0.344c-0.126-0.018-0.248-0.045-0.366-0.079c-0.474,2.758-1.734,4.117-3.729,5.807
			c-0.691,0.588-3.264,2.442-3.264,2.442s0.166,1.699,1.896,3.079c1.145,0.911,2.443,1.718,2.443,1.718s-0.308-2.677,0.146-4.571
			c-0.165,1.055,1.362,2.072,1.362,2.072s-0.469-0.526-0.416-2.122c0.052-1.593,1.066-1.97,2.42-4.027
			c1.015-1.539,1.683-2.874,2.063-3.707c0.01-0.014,0.019-0.026,0.028-0.041c0.276-0.435,1.104-3.06,1.189-4.672
			C331.121,56.265,331.068,53.56,331.068,53.535z"/>
	</g>
</g>
<g>
	<g>
		<path fill="#FFFFFF" stroke="#37BFF0" stroke-miterlimit="10" d="M297.882,11.195h-36.551c-1.936,0-3.504,1.569-3.504,3.503v66.24
			c0,1.935,1.568,3.503,3.504,3.503h36.553c1.935,0,3.502-1.568,3.502-3.503V14.699C301.386,12.764,299.817,11.195,297.882,11.195z"
			/>
		<path fill="#FFFFFF" stroke="#37BFF0" stroke-miterlimit="10" d="M298.931,68.869c0,1.284-1.053,2.334-2.336,2.332l-33.148-0.045
			c-1.285-0.002-2.336-1.055-2.334-2.339l0.035-42.71c0.002-1.284,1.053-2.333,2.338-2.332l33.146,0.045
			c1.283,0.002,2.334,1.054,2.334,2.338L298.931,68.869z"/>
		<path fill="#37BFF0" d="M282.11,18.818c0,0.276-0.225,0.5-0.5,0.5h-10.002c-0.275,0-0.5-0.224-0.5-0.5l0,0
			c0-0.276,0.225-0.5,0.5-0.5h10.002C281.886,18.318,282.11,18.542,282.11,18.818L282.11,18.818z"/>
		<circle fill="#37BFF0" cx="285.534" cy="18.811" r="0.793"/>
		<circle fill="none" stroke="#37BFF0" stroke-miterlimit="10" cx="280.088" cy="77.208" r="3.183"/>
	</g>
	<g>
		<g id="BALD_2_">
			<path fill="none" stroke="#37BFF0" stroke-miterlimit="10" d="M291.263,46.812c0.249-1.68,0.832-3.008,0.559-6.318
				c-0.182-2.191-1.952-7.002-7.88-8.445c-1.159-0.413-2.408-0.64-3.709-0.64c-1.303,0-2.552,0.227-3.713,0.64
				c-5.927,1.442-7.698,6.253-7.88,8.445c-0.275,3.323,0.312,4.648,0.561,6.338c-1.123,0.298-1.881,1.386-1.734,2.57l0.297,2.38
				c0.15,1.22,1.205,2.103,2.406,2.071c0.145,1.219,0.276,2.265,0.364,2.985c0.354,2.876,1.34,3.467,3.621,4.989
				c2.283,1.521,3.807,2.366,6.078,2.366c2.271,0,3.792-0.845,6.075-2.366c2.282-1.522,3.269-2.113,3.621-4.989
				c0.088-0.722,0.218-1.77,0.363-2.992c1.233,0.073,2.329-0.819,2.483-2.064l0.295-2.38
				C293.221,48.192,292.427,47.083,291.263,46.812z"/>
		</g>
		<circle fill="#37BFF0" enable-background="new    " cx="277.204" cy="48.807" r="0.951"/>
		<circle fill="#37BFF0" enable-background="new    " cx="283.527" cy="48.807" r="0.951"/>
		<g>
			<path fill="#37BFF0" d="M280.347,56.802h-0.226c-1.964,0-2.904-0.837-2.943-0.874c-0.156-0.141-0.167-0.382-0.024-0.538
				s0.384-0.167,0.54-0.026c0.005,0.006,0.781,0.675,2.428,0.675h0.226c1.642,0,2.419-0.667,2.427-0.675
				c0.155-0.141,0.397-0.13,0.539,0.026c0.143,0.156,0.132,0.397-0.023,0.538C283.25,55.965,282.308,56.802,280.347,56.802z"/>
		</g>
	</g>
	<g id="brd_-_4_1_">
		<path fill="none" stroke="#37BFF0" stroke-miterlimit="10" d="M290.721,48.449c-0.129,0-0.454,0.741-0.646,1.202
			c-0.264,0.667-0.54,1.316-0.771,1.775c-0.607,1.199-2.399,2.595-2.707,3.41c-0.307,0.816-0.545,1.385-0.984,1.33
			c-0.44-0.056-0.221-1.128-1.431-2.807c-1.196-1.657-3.485-1.648-3.967-1.647c-0.48-0.001-2.772-0.01-3.968,1.647
			c-1.21,1.679-0.99,2.751-1.431,2.807c-0.439,0.055-0.678-0.514-0.984-1.33c-0.308-0.815-2.102-2.211-2.707-3.41
			c-0.257-0.506-0.565-1.243-0.853-1.979c-0.191-0.447-0.449-0.998-0.561-0.998c-0.186,0-0.137,0.565-0.102,0.924
			c0,0.007-0.004,0.011-0.004,0.018c0.182,1.929,0.4,4.148,0.531,5.234c0.193,1.596,0.111,3.577,1.24,4.925
			c1.127,1.348,4.42,3.472,6.328,4.209c1.204,0.468,2.354,0.47,2.509,0.47c0.154,0.002,1.303-0.002,2.507-0.47
			c1.908-0.737,5.201-2.861,6.329-4.209s1.046-3.329,1.237-4.925c0.132-1.089,0.354-3.321,0.535-5.257
			C290.857,49.01,290.904,48.449,290.721,48.449z M283.816,57.798c-0.43,0.216-1.713,0.917-3.604,0.923
			c-1.889-0.006-3.172-0.707-3.603-0.923c-0.349-0.175-0.831-0.559-0.64-1.026c0.193-0.469,1.378-1.981,2.277-2.61
			c0.541-0.376,1.447-0.44,1.965-0.431c0.521-0.01,1.426,0.055,1.965,0.431c0.901,0.629,2.085,2.142,2.278,2.61
			C284.647,57.239,284.165,57.623,283.816,57.798z"/>
	</g>
</g>
</svg>
