<?xml version="1.0" encoding="utf-8"?>
<!-- Generator: Adobe Illustrator 16.0.4, SVG Export Plug-In . SVG Version: 6.00 Build 0)  -->
<!DOCTYPE svg PUBLIC "-//W3C//DTD SVG 1.1//EN" "http://www.w3.org/Graphics/SVG/1.1/DTD/svg11.dtd">
<svg version="1.1" id="Laag_1" xmlns="http://www.w3.org/2000/svg" xmlns:xlink="http://www.w3.org/1999/xlink" x="0px" y="0px"
	 width="100px" height="100px" viewBox="0 0 100 100" enable-background="new 0 0 100 100" xml:space="preserve">
<circle fill="none" stroke="#37BFF0" stroke-miterlimit="10" cx="47.77" cy="48.981" r="28.71"/>
<circle fill="#37BFF0" cx="66.305" cy="72.7" r="8.948"/>
<g opacity="0.3">
	<g id="BALD_4_">
		<path fill="none" stroke="#37BFF0" stroke-miterlimit="10" d="M58.765,48.992c0.248-1.68,0.832-3.008,0.559-6.318
			c-0.182-2.191-1.951-7.002-7.879-8.445c-1.16-0.413-2.408-0.64-3.709-0.64c-1.305,0-2.553,0.227-3.713,0.64
			c-5.928,1.442-7.699,6.253-7.881,8.445c-0.275,3.323,0.312,4.648,0.561,6.338c-1.123,0.298-1.881,1.387-1.734,2.57l0.298,2.382
			c0.149,1.22,1.204,2.103,2.405,2.071c0.146,1.219,0.276,2.265,0.364,2.984c0.354,2.876,1.341,3.467,3.622,4.989
			c2.283,1.521,3.807,2.366,6.078,2.366c2.27,0,3.791-0.846,6.074-2.366c2.281-1.522,3.27-2.113,3.621-4.989
			c0.088-0.722,0.219-1.77,0.363-2.992c1.232,0.073,2.328-0.818,2.482-2.063l0.295-2.382C60.722,50.371,59.929,49.262,58.765,48.992
			z"/>
	</g>
	<circle fill="#37BFF0" cx="44.706" cy="50.987" r="0.952"/>
	<circle fill="#37BFF0" cx="51.03" cy="50.987" r="0.952"/>
	<g>
		<path fill="#37BFF0" d="M47.849,58.982h-0.227c-1.963,0-2.904-0.837-2.943-0.873c-0.154-0.142-0.166-0.383-0.023-0.539
			s0.385-0.166,0.541-0.025c0.004,0.006,0.781,0.675,2.428,0.675h0.227c1.641,0,2.418-0.667,2.426-0.675
			c0.154-0.141,0.396-0.131,0.539,0.025s0.133,0.397-0.023,0.539C50.753,58.146,49.81,58.982,47.849,58.982z"/>
	</g>
</g>
<circle fill="none" stroke="#FFFFFF" stroke-miterlimit="10" cx="69.059" cy="72.701" r="1.784"/>
<polyline fill="none" stroke="#FFFFFF" stroke-miterlimit="10" points="67.274,72.701 61.747,72.701 61.747,75.034 "/>
<line fill="none" stroke="#FFFFFF" stroke-miterlimit="10" x1="63.595" y1="74.995" x2="63.595" y2="72.701"/>
</svg>
