<?xml version="1.0" encoding="utf-8"?>
<!-- Generator: Adobe Illustrator 16.0.4, SVG Export Plug-In . SVG Version: 6.00 Build 0)  -->
<!DOCTYPE svg PUBLIC "-//W3C//DTD SVG 1.1//EN" "http://www.w3.org/Graphics/SVG/1.1/DTD/svg11.dtd">
<svg version="1.1" id="Layer_1" xmlns="http://www.w3.org/2000/svg" xmlns:xlink="http://www.w3.org/1999/xlink" x="0px" y="0px"
	 width="40px" height="40px" viewBox="0 0 40 40" enable-background="new 0 0 40 40" xml:space="preserve">
<path fill-rule="evenodd" clip-rule="evenodd" fill="#FFFFFF" d="M20.005,0C8.958,0,0,8.958,0,20.008
	c0,8.839,5.732,16.337,13.683,18.982c1,0.184,1.365-0.434,1.365-0.964c0-0.475-0.017-1.733-0.027-3.402
	c-5.565,1.209-6.739-2.683-6.739-2.683c-0.91-2.311-2.221-2.926-2.221-2.926c-1.816-1.241,0.137-1.217,0.137-1.217
	c2.008,0.142,3.064,2.062,3.064,2.062c1.785,3.057,4.683,2.174,5.822,1.662c0.182-1.293,0.699-2.175,1.271-2.675
	c-4.443-0.505-9.113-2.222-9.113-9.888c0-2.184,0.78-3.97,2.06-5.368c-0.206-0.507-0.893-2.54,0.196-5.294
	c0,0,1.68-0.539,5.502,2.051c1.596-0.444,3.307-0.667,5.008-0.674c1.699,0.007,3.411,0.229,5.009,0.674
	c3.819-2.59,5.496-2.051,5.496-2.051c1.091,2.754,0.405,4.787,0.199,5.294c1.282,1.398,2.056,3.185,2.056,5.368
	c0,7.686-4.677,9.377-9.134,9.872c0.718,0.618,1.358,1.839,1.358,3.705c0,2.675-0.025,4.832-0.025,5.488
	c0,0.535,0.36,1.157,1.376,0.962c7.943-2.65,13.67-10.145,13.67-18.98C40.013,8.958,31.054,0,20.005,0z"/>
</svg>
