<?xml version="1.0" encoding="utf-8"?>
<!-- Generator: Adobe Illustrator 16.0.4, SVG Export Plug-In . SVG Version: 6.00 Build 0)  -->
<!DOCTYPE svg PUBLIC "-//W3C//DTD SVG 1.1//EN" "http://www.w3.org/Graphics/SVG/1.1/DTD/svg11.dtd">
<svg version="1.1" id="Laag_1" xmlns="http://www.w3.org/2000/svg" xmlns:xlink="http://www.w3.org/1999/xlink" x="0px" y="0px"
	 width="100px" height="100px" viewBox="244.201 0 100 100" enable-background="new 244.201 0 100 100" xml:space="preserve">
<g>
	<g>
		<path fill="#FFFFFF" stroke="#37BFF0" stroke-miterlimit="10" d="M334.088,18.766h-36.03c-1.91,0-3.456,1.547-3.456,3.455V87.55
			c0,1.905,1.546,3.453,3.456,3.453h36.033c1.907,0,3.45-1.548,3.45-3.453V22.221C337.541,20.313,335.996,18.766,334.088,18.766z"/>
		<path fill="#FFFFFF" stroke="#37BFF0" stroke-miterlimit="10" d="M335.122,75.646c0,1.268-1.036,2.304-2.303,2.299l-32.679-0.042
			c-1.266-0.003-2.301-1.039-2.301-2.307l0.034-42.124c0.003-1.268,1.039-2.302,2.307-2.302l32.676,0.044
			c1.265,0.002,2.3,1.04,2.3,2.304L335.122,75.646z"/>
		<path fill="#37BFF0" d="M318.538,26.284c0,0.272-0.222,0.493-0.492,0.493h-9.86c-0.272,0-0.493-0.221-0.493-0.493l0,0
			c0-0.273,0.221-0.494,0.493-0.494h9.86C318.316,25.79,318.538,26.011,318.538,26.284L318.538,26.284z"/>
		<circle fill="#37BFF0" cx="321.914" cy="26.276" r="0.782"/>
		<circle fill="none" stroke="#37BFF0" stroke-miterlimit="10" cx="316.545" cy="83.872" r="3.138"/>
	</g>
	<g id="head_1_">
		<path fill="none" stroke="#37BFF0" stroke-miterlimit="10" d="M328.441,54.15c0.255-1.716,0.85-3.071,0.569-6.448
			c-0.186-2.237-1.994-7.15-8.047-8.624c-1.184-0.421-2.457-0.653-3.786-0.653c-1.328,0-2.604,0.232-3.788,0.653
			c-6.052,1.474-7.859,6.385-8.046,8.624c-0.28,3.391,0.321,4.744,0.573,6.47c-1.146,0.306-1.919,1.415-1.77,2.624l0.845,2.431
			c0.165,1.321,0.827,2.261,2.149,2.099c0.096-0.014,0.19-0.033,0.28-0.056c0.457,2.917,1.664,4.946,3.734,6.327
			c2.329,1.554,4.318,2.822,6.021,2.822c1.758,0,3.904-1.532,6.021-3.366c1.976-1.711,3.255-3.049,3.729-5.807
			c0.118,0.033,0.24,0.062,0.365,0.076c1.323,0.165,1.984-0.774,2.148-2.096l0.845-2.431
			C330.441,55.56,329.631,54.426,328.441,54.15z"/>
	</g>
	<circle fill="#37BFF0" enable-background="new    " cx="314.339" cy="56.991" r="0.776"/>
	<circle fill="#37BFF0" enable-background="new    " cx="320.434" cy="56.991" r="0.776"/>
	<g enable-background="new    ">
		<path fill="#37BFF0" d="M317.33,64.832h-0.16c-1.404,0-2.078-0.598-2.104-0.624c-0.111-0.103-0.121-0.275-0.019-0.386
			c0.103-0.111,0.275-0.119,0.387-0.019c0.004,0.004,0.561,0.483,1.736,0.483h0.16c1.175,0,1.731-0.478,1.736-0.483
			c0.111-0.101,0.285-0.093,0.386,0.019c0.103,0.111,0.095,0.285-0.019,0.386C319.408,64.234,318.733,64.832,317.33,64.832z"/>
	</g>
	<g id="snit_-_6_1_">
		<path fill="#FFFFFF" stroke="#37BFF0" stroke-miterlimit="10" d="M331.068,53.535c0.187,0.124,0.414,0.265,0.653,0.379
			c-0.381-0.339-0.604-1.128-0.741-1.907c-0.007-0.066-0.02-0.176-0.02-0.176c-0.06-0.511-0.129-1.042-0.216-1.584
			c-0.002-0.007-0.002-0.016-0.004-0.023v0.004c-0.353-2.197-1.005-4.625-2.534-6.985c-2.327-3.592-5.656-3.664-5.656-3.664
			c-0.772-1.152-2.4-1.651-5.203-1.651c-3.634,0-6.894,0.972-9.682,3.653c0,0,1.272-1.463,0-0.003
			c-1.272,1.46-1.929,2.065-2.996,5.296c-0.527,1.592-1.553,4.808-1.726,7.297v-0.001c0,0.001,0,0.002,0,0.002
			c-0.027,0.373-0.034,0.729-0.017,1.062c0.028,0.578,0.076,1.123,0.136,1.637c0.04,1.424-0.001,3.001-0.396,3.755
			c0.731-0.208,0.889-0.802,0.889-0.802v-0.008c0.728,3.469,3.037,7.097,4.76,8.271c1.989,1.357,1.344,3.703,1.344,3.703
			s0.774-0.748,1.013-1.611c0.026,0.078,0.053,0.157,0.073,0.242c0.411,1.665-0.57,3.301-0.57,3.301s2.799-0.597,3.575-1.48
			c1.171-1.328,1.527-2.245,1.527-2.245c-1.089-0.433-3.058-1.666-4.122-2.398c-2.307-1.582-3.356-3.744-3.732-6.327
			c0,0-0.162,0.06-0.408,0.064c-1.236,0.089-1.863-0.828-2.023-2.107l-0.845-2.431c-0.149-1.209,0.624-2.318,1.77-2.624
			c-0.024-0.163-0.135-5.8,6.244-6.323c0.31-0.024,0.6-0.043,0.881-0.059c-0.39,0.593-0.555,1.34-0.659,2.074
			c0.364-1.001,2.594-1.78,2.594-1.78c-0.342,0.639-0.452,1.41-0.452,2.235c0.992-1.681,3.976-2.175,3.987-2.177
			c-0.418,0.898-0.786,1.966-0.963,2.787c0.909-1.495,2.521-2.817,3.778-3.701c0.528-0.274,1.114-0.644,1.799-1.14
			c1.513,1.171,5.615,4.623,5.413,7.485l0,0c-0.034,0.189-0.068,0.381-0.098,0.575c0.263,0.062,2.176,1.751,1.778,2.841
			c-0.45,1.237-0.703,1.815-0.778,2.236c-0.072,0.42-0.199,0.938-0.337,1.169c-0.141,0.229-0.462,0.586-0.462,0.586
			c-0.337,0.279-0.78,0.413-1.349,0.344c-0.126-0.018-0.248-0.045-0.366-0.079c-0.474,2.758-1.734,4.117-3.729,5.807
			c-0.691,0.588-3.264,2.442-3.264,2.442s0.166,1.699,1.896,3.079c1.145,0.911,2.443,1.718,2.443,1.718s-0.308-2.677,0.146-4.571
			c-0.165,1.055,1.362,2.072,1.362,2.072s-0.469-0.526-0.416-2.122c0.052-1.593,1.066-1.97,2.42-4.027
			c1.015-1.539,1.683-2.874,2.063-3.707c0.01-0.014,0.019-0.026,0.028-0.041c0.276-0.435,1.104-3.06,1.189-4.672
			C331.121,56.265,331.068,53.56,331.068,53.535z"/>
	</g>
</g>
<g>
	<g>
		<path fill="#FFFFFF" stroke="#37BFF0" stroke-miterlimit="10" d="M297.882,11.195h-36.551c-1.936,0-3.504,1.569-3.504,3.503v66.24
			c0,1.935,1.568,3.503,3.504,3.503h36.553c1.935,0,3.502-1.568,3.502-3.503V14.699C301.386,12.764,299.817,11.195,297.882,11.195z"
			/>
		<path fill="#FFFFFF" stroke="#37BFF0" stroke-miterlimit="10" d="M298.931,68.869c0,1.284-1.053,2.334-2.336,2.332l-33.148-0.045
			c-1.285-0.002-2.336-1.055-2.334-2.339l0.035-42.71c0.002-1.284,1.053-2.333,2.338-2.332l33.146,0.045
			c1.283,0.002,2.334,1.054,2.334,2.338L298.931,68.869z"/>
		<path fill="#37BFF0" d="M282.11,18.818c0,0.276-0.225,0.5-0.5,0.5h-10.002c-0.275,0-0.5-0.224-0.5-0.5l0,0
			c0-0.276,0.225-0.5,0.5-0.5h10.002C281.886,18.318,282.11,18.542,282.11,18.818L282.11,18.818z"/>
		<circle fill="#37BFF0" cx="285.534" cy="18.811" r="0.793"/>
		<circle fill="none" stroke="#37BFF0" stroke-miterlimit="10" cx="280.088" cy="77.208" r="3.183"/>
	</g>
	<g>
		<g id="BALD_2_">
			<path fill="none" stroke="#37BFF0" stroke-miterlimit="10" d="M291.263,46.812c0.249-1.68,0.832-3.008,0.559-6.318
				c-0.182-2.191-1.952-7.002-7.88-8.445c-1.159-0.413-2.408-0.64-3.709-0.64c-1.303,0-2.552,0.227-3.713,0.64
				c-5.927,1.442-7.698,6.253-7.88,8.445c-0.275,3.323,0.312,4.648,0.561,6.338c-1.123,0.298-1.881,1.386-1.734,2.57l0.297,2.38
				c0.15,1.22,1.205,2.103,2.406,2.071c0.145,1.219,0.276,2.265,0.364,2.985c0.354,2.876,1.34,3.467,3.621,4.989
				c2.283,1.521,3.807,2.366,6.078,2.366c2.271,0,3.792-0.845,6.075-2.366c2.282-1.522,3.269-2.113,3.621-4.989
				c0.088-0.722,0.218-1.77,0.363-2.992c1.233,0.073,2.329-0.819,2.483-2.064l0.295-2.38
				C293.221,48.192,292.427,47.083,291.263,46.812z"/>
		</g>
		<circle fill="#37BFF0" enable-background="new    " cx="277.204" cy="48.807" r="0.951"/>
		<circle fill="#37BFF0" enable-background="new    " cx="283.527" cy="48.807" r="0.951"/>
		<g>
			<path fill="#37BFF0" d="M280.347,56.802h-0.226c-1.964,0-2.904-0.837-2.943-0.874c-0.156-0.141-0.167-0.382-0.024-0.538
				s0.384-0.167,0.54-0.026c0.005,0.006,0.781,0.675,2.428,0.675h0.226c1.642,0,2.419-0.667,2.427-0.675
				c0.155-0.141,0.397-0.13,0.539,0.026c0.143,0.156,0.132,0.397-0.023,0.538C283.25,55.965,282.308,56.802,280.347,56.802z"/>
		</g>
	</g>
	<g id="brd_-_4_1_">
		<path fill="none" stroke="#37BFF0" stroke-miterlimit="10" d="M290.721,48.449c-0.129,0-0.454,0.741-0.646,1.202
			c-0.264,0.667-0.54,1.316-0.771,1.775c-0.607,1.199-2.399,2.595-2.707,3.41c-0.307,0.816-0.545,1.385-0.984,1.33
			c-0.44-0.056-0.221-1.128-1.431-2.807c-1.196-1.657-3.485-1.648-3.967-1.647c-0.48-0.001-2.772-0.01-3.968,1.647
			c-1.21,1.679-0.99,2.751-1.431,2.807c-0.439,0.055-0.678-0.514-0.984-1.33c-0.308-0.815-2.102-2.211-2.707-3.41
			c-0.257-0.506-0.565-1.243-0.853-1.979c-0.191-0.447-0.449-0.998-0.561-0.998c-0.186,0-0.137,0.565-0.102,0.924
			c0,0.007-0.004,0.011-0.004,0.018c0.182,1.929,0.4,4.148,0.531,5.234c0.193,1.596,0.111,3.577,1.24,4.925
			c1.127,1.348,4.42,3.472,6.328,4.209c1.204,0.468,2.354,0.47,2.509,0.47c0.154,0.002,1.303-0.002,2.507-0.47
			c1.908-0.737,5.201-2.861,6.329-4.209s1.046-3.329,1.237-4.925c0.132-1.089,0.354-3.321,0.535-5.257
			C290.857,49.01,290.904,48.449,290.721,48.449z M283.816,57.798c-0.43,0.216-1.713,0.917-3.604,0.923
			c-1.889-0.006-3.172-0.707-3.603-0.923c-0.349-0.175-0.831-0.559-0.64-1.026c0.193-0.469,1.378-1.981,2.277-2.61
			c0.541-0.376,1.447-0.44,1.965-0.431c0.521-0.01,1.426,0.055,1.965,0.431c0.901,0.629,2.085,2.142,2.278,2.61
			C284.647,57.239,284.165,57.623,283.816,57.798z"/>
	</g>
</g>
</svg>
