<?xml version="1.0" encoding="utf-8"?>
<!-- Generator: Adobe Illustrator 16.0.4, SVG Export Plug-In . SVG Version: 6.00 Build 0)  -->
<!DOCTYPE svg PUBLIC "-//W3C//DTD SVG 1.1//EN" "http://www.w3.org/Graphics/SVG/1.1/DTD/svg11.dtd">
<svg version="1.1" id="Laag_1" xmlns="http://www.w3.org/2000/svg" xmlns:xlink="http://www.w3.org/1999/xlink" x="0px" y="0px"
	 width="100px" height="100px" viewBox="264.95 253 100 100" enable-background="new 264.95 253 100 100" xml:space="preserve">
<g>
	<g>
		<path fill="#FFFFFF" stroke="#37BFF0" stroke-miterlimit="10" d="M309.204,273.687h-29.083c-1.54,0-2.788,1.249-2.788,2.787
			v52.707c0,1.539,1.248,2.787,2.788,2.787h29.085c1.539,0,2.786-1.248,2.786-2.787v-52.706
			C311.992,274.936,310.744,273.687,309.204,273.687z"/>
		<path fill="#FFFFFF" stroke="#37BFF0" stroke-miterlimit="10" d="M309.7,321.434l-29.42-0.036"/>
		<path fill="#FFFFFF" stroke="#37BFF0" stroke-miterlimit="10" d="M280.315,283.696l29.418,0.035"/>
		<path fill="#37BFF0" d="M296.654,279.752c0,0.221-0.179,0.397-0.397,0.397h-7.958c-0.219,0-0.398-0.177-0.398-0.397l0,0
			c0-0.22,0.18-0.398,0.398-0.398h7.958C296.476,279.354,296.654,279.532,296.654,279.752L296.654,279.752z"/>
		<circle fill="#37BFF0" cx="299.38" cy="279.747" r="0.631"/>
		<circle fill="none" stroke="#37BFF0" stroke-miterlimit="10" cx="295.046" cy="326.214" r="2.533"/>
	</g>
	<g>
		<g>
			<g id="BALD_7_">
				<path fill="none" stroke="#77B37A" stroke-miterlimit="10" d="M304.513,302.225c0.196-1.327,0.657-2.378,0.441-4.99
					c-0.145-1.73-1.542-5.531-6.223-6.671c-0.915-0.325-1.902-0.505-2.929-0.505c-1.028,0-2.014,0.18-2.93,0.505
					c-4.679,1.14-6.076,4.94-6.221,6.671c-0.217,2.624,0.249,3.67,0.443,5.006c-0.887,0.238-1.485,1.095-1.368,2.031l0.234,1.88
					c0.12,0.963,0.951,1.661,1.899,1.636c0.112,0.962,0.216,1.787,0.286,2.355c0.278,2.271,1.058,2.738,2.859,3.942
					c1.802,1.199,3.004,1.866,4.796,1.866c1.794,0,2.995-0.667,4.798-1.866c1.801-1.204,2.58-1.671,2.858-3.942
					c0.069-0.568,0.172-1.396,0.287-2.36c0.973,0.059,1.839-0.646,1.96-1.631l0.232-1.88
					C306.059,303.314,305.431,302.437,304.513,302.225z"/>
			</g>
			<circle fill="#77B37A" enable-background="new    " cx="293.413" cy="303.802" r="0.752"/>
			<circle fill="#77B37A" enable-background="new    " cx="298.405" cy="303.802" r="0.752"/>
			<g>
				<path fill="#77B37A" d="M295.893,310.114h-0.178c-1.55,0-2.292-0.66-2.322-0.689c-0.124-0.111-0.133-0.302-0.02-0.425
					s0.304-0.133,0.427-0.022c0.004,0.006,0.616,0.533,1.915,0.533h0.178c1.298,0,1.91-0.527,1.918-0.533
					c0.122-0.11,0.312-0.101,0.424,0.022c0.114,0.123,0.105,0.313-0.019,0.425C298.186,309.454,297.442,310.114,295.893,310.114z"/>
			</g>
		</g>
		<g id="snit_-_3_2_">
			<path fill="#FFFFFF" stroke="#77B37A" stroke-miterlimit="10" d="M286.608,302.393c0,0-0.064-3.061-0.205-4.068
				c-0.152-1.077,0.167-3.594,0.962-4.681c0.793-1.088,2.139-2.984,5.504-3.392c5.567-0.676,8.429-1.994,9.245-3.247
				c0.437,3.666-0.533,4.419-0.533,4.419s0.336,0.172,1.255,0.89c1.181,0.924,2.487,2.813,2.241,5.343
				c-0.235,2.423-0.167,4.763-0.235,4.772c-0.066,0.008-0.26-0.114-0.325-0.034c-0.067,0.082-0.261,0.225-0.436,3.32
				c-0.041,0.359-0.251,0.37-0.247,0.192c0.121-6.098-0.849-6.219-0.803-7.268c0.051-1.199,0.677-3.141-0.333-4.477
				c-1.337-1.765-3.179,0.253-6.812,0.253c-3.634,0-6.406-1.871-7.191-0.481c-0.785,1.388-0.347,3.565-0.289,4.106
				c0.166,1.483-0.878,2.814-0.832,4.317c0.042,1.374,0.1,2.743,0.061,3.356c-0.035,0.542-0.245,0.414-0.271,0
				c-0.248-3.882-0.535-3.403-0.535-3.403L286.608,302.393z"/>
		</g>
	</g>
</g>
<g>
	<g>
		<path fill="#FFFFFF" stroke="#37BFF0" stroke-miterlimit="10" d="M347.346,268.813h-33.584c-1.778,0-3.22,1.442-3.22,3.219v60.864
			c0,1.777,1.441,3.219,3.22,3.219h33.586c1.777,0,3.218-1.441,3.218-3.219v-60.863
			C350.565,270.256,349.124,268.813,347.346,268.813z"/>
		<path fill="#FFFFFF" stroke="#37BFF0" stroke-miterlimit="10" d="M347.919,323.95l-33.974-0.041"/>
		<path fill="#FFFFFF" stroke="#37BFF0" stroke-miterlimit="10" d="M313.986,280.372l33.971,0.042"/>
		<path fill="#37BFF0" d="M332.854,275.817c0,0.254-0.207,0.46-0.46,0.46h-9.189c-0.253,0-0.46-0.206-0.46-0.46l0,0
			c0-0.254,0.207-0.459,0.46-0.459h9.189C332.647,275.358,332.854,275.563,332.854,275.817L332.854,275.817z"/>
		<circle fill="#37BFF0" cx="336" cy="275.812" r="0.729"/>
		<circle fill="none" stroke="#37BFF0" stroke-miterlimit="10" cx="330.996" cy="329.471" r="2.925"/>
	</g>
	<g>
		<g id="BALD_3_">
			<path fill="none" stroke="#955096" stroke-miterlimit="10" d="M341.264,301.541c0.229-1.545,0.765-2.765,0.514-5.806
				c-0.167-2.014-1.794-6.434-7.24-7.76c-1.065-0.379-2.213-0.588-3.408-0.588c-1.197,0-2.345,0.209-3.411,0.588
				c-5.446,1.326-7.074,5.746-7.241,7.76c-0.253,3.054,0.287,4.271,0.516,5.823c-1.032,0.274-1.729,1.274-1.594,2.362l0.272,2.188
				c0.139,1.121,1.107,1.933,2.211,1.903c0.133,1.12,0.254,2.081,0.335,2.743c0.325,2.643,1.231,3.186,3.327,4.584
				c2.098,1.398,3.498,2.175,5.585,2.175c2.086,0,3.484-0.776,5.582-2.175c2.097-1.398,3.003-1.941,3.327-4.584
				c0.081-0.663,0.2-1.626,0.334-2.749c1.133,0.067,2.14-0.753,2.281-1.897l0.271-2.188
				C343.062,302.808,342.333,301.788,341.264,301.541z"/>
		</g>
		<circle fill="#955096" enable-background="new    " cx="328.347" cy="303.374" r="0.875"/>
		<circle fill="#955096" enable-background="new    " cx="334.156" cy="303.374" r="0.875"/>
		<g>
			<path fill="#955096" d="M331.233,310.72h-0.207c-1.805,0-2.668-0.769-2.704-0.803c-0.144-0.129-0.153-0.351-0.022-0.494
				s0.353-0.154,0.496-0.024c0.005,0.005,0.718,0.62,2.23,0.62h0.207c1.509,0,2.223-0.613,2.23-0.62
				c0.143-0.13,0.365-0.119,0.495,0.024c0.131,0.144,0.121,0.365-0.021,0.494C333.901,309.951,333.035,310.72,331.233,310.72z"/>
		</g>
	</g>
	<g id="brd_-_4_2_">
		<path fill="none" stroke="#955096" stroke-miterlimit="10" d="M340.766,303.044c-0.118,0-0.417,0.681-0.593,1.105
			c-0.242,0.612-0.496,1.209-0.709,1.631c-0.559,1.102-2.205,2.384-2.487,3.134s-0.501,1.272-0.904,1.222
			c-0.405-0.051-0.203-1.036-1.314-2.579c-1.1-1.522-3.203-1.515-3.646-1.514c-0.441-0.001-2.547-0.009-3.646,1.514
			c-1.111,1.543-0.91,2.528-1.314,2.579c-0.403,0.051-0.623-0.472-0.904-1.222c-0.283-0.75-1.931-2.032-2.487-3.134
			c-0.236-0.465-0.52-1.143-0.783-1.819c-0.176-0.411-0.413-0.917-0.516-0.917c-0.17,0-0.125,0.52-0.093,0.85
			c0,0.006-0.004,0.01-0.004,0.016c0.167,1.773,0.368,3.812,0.488,4.811c0.178,1.467,0.103,3.287,1.14,4.525
			c1.035,1.238,4.061,3.189,5.814,3.867c1.106,0.43,2.163,0.432,2.305,0.432c0.143,0.002,1.197-0.002,2.304-0.432
			c1.753-0.678,4.779-2.629,5.815-3.867s0.961-3.059,1.137-4.525c0.121-1,0.326-3.052,0.492-4.831
			C340.892,303.56,340.935,303.044,340.766,303.044z M334.422,311.635c-0.395,0.199-1.574,0.843-3.311,0.849
			c-1.735-0.006-2.915-0.649-3.311-0.849c-0.32-0.16-0.764-0.513-0.588-0.942c0.178-0.431,1.267-1.821,2.093-2.398
			c0.497-0.346,1.33-0.405,1.806-0.396c0.478-0.01,1.31,0.05,1.805,0.396c0.828,0.577,1.916,1.968,2.094,2.398
			C335.186,311.122,334.742,311.475,334.422,311.635z"/>
	</g>
</g>
</svg>
