<?xml version="1.0" encoding="utf-8"?>
<!-- Generator: Adobe Illustrator 16.0.4, SVG Export Plug-In . SVG Version: 6.00 Build 0)  -->
<!DOCTYPE svg PUBLIC "-//W3C//DTD SVG 1.1//EN" "http://www.w3.org/Graphics/SVG/1.1/DTD/svg11.dtd">
<svg version="1.1" id="Laag_1" xmlns="http://www.w3.org/2000/svg" xmlns:xlink="http://www.w3.org/1999/xlink" x="0px" y="0px"
	 width="100px" height="100px" viewBox="0 0 100 100" enable-background="new 0 0 100 100" xml:space="preserve">
<g>
	<g>
		<path fill="#FFFFFF" stroke="#77B37A" stroke-miterlimit="10" d="M45.254,21.224H16.171c-1.54,0-2.788,1.248-2.788,2.787v52.707
			c0,1.539,1.248,2.786,2.788,2.786h29.085c1.539,0,2.786-1.247,2.786-2.786V24.011C48.042,22.472,46.794,21.224,45.254,21.224z"/>
		<path fill="#FFFFFF" stroke="#77B37A" stroke-miterlimit="10" d="M45.75,68.97l-29.42-0.035"/>
		<path fill="#FFFFFF" stroke="#77B37A" stroke-miterlimit="10" d="M16.365,31.231l29.418,0.035"/>
		<path fill="#77B37A" d="M32.704,27.288c0,0.221-0.179,0.396-0.397,0.396H24.35c-0.22,0-0.398-0.176-0.398-0.396l0,0
			c0-0.22,0.18-0.398,0.398-0.398h7.957C32.525,26.89,32.704,27.068,32.704,27.288L32.704,27.288z"/>
		<circle fill="#77B37A" cx="35.43" cy="27.283" r="0.631"/>
		<circle fill="none" stroke="#77B37A" stroke-miterlimit="10" cx="31.096" cy="73.75" r="2.533"/>
	</g>
	<g>
		<g>
			<g id="BALD_5_">
				<path fill="none" stroke="#77B37A" stroke-miterlimit="10" d="M40.562,49.761c0.195-1.326,0.656-2.377,0.44-4.99
					c-0.146-1.729-1.542-5.53-6.224-6.67c-0.914-0.325-1.901-0.506-2.928-0.506c-1.029,0-2.015,0.181-2.931,0.506
					c-4.679,1.14-6.075,4.939-6.221,6.67c-0.218,2.625,0.249,3.671,0.442,5.007c-0.887,0.237-1.484,1.095-1.367,2.03l0.233,1.881
					c0.12,0.963,0.951,1.66,1.899,1.636c0.111,0.962,0.216,1.787,0.285,2.354c0.279,2.271,1.059,2.738,2.859,3.942
					c1.803,1.199,3.004,1.866,4.797,1.866s2.994-0.667,4.797-1.866c1.801-1.204,2.58-1.671,2.858-3.942
					c0.069-0.567,0.172-1.396,0.287-2.359c0.974,0.059,1.839-0.646,1.96-1.631l0.232-1.881
					C42.107,50.851,41.48,49.974,40.562,49.761z"/>
			</g>
			<circle fill="#77B37A" cx="29.463" cy="51.338" r="0.752"/>
			<circle fill="#77B37A" cx="34.455" cy="51.338" r="0.752"/>
			<g>
				<path fill="#77B37A" d="M31.941,57.65h-0.178c-1.55,0-2.291-0.66-2.322-0.689c-0.123-0.11-0.133-0.302-0.02-0.425
					s0.305-0.133,0.428-0.021c0.004,0.006,0.615,0.533,1.914,0.533h0.178c1.299,0,1.91-0.527,1.918-0.533
					c0.123-0.11,0.312-0.102,0.425,0.021c0.114,0.123,0.104,0.312-0.019,0.425C34.234,56.99,33.492,57.65,31.941,57.65z"/>
			</g>
		</g>
		<g id="snit_-_3_1_">
			<path fill="#FFFFFF" stroke="#77B37A" stroke-miterlimit="10" d="M22.658,49.929c0,0-0.064-3.061-0.205-4.067
				c-0.152-1.077,0.167-3.595,0.962-4.681c0.793-1.088,2.14-2.984,5.504-3.393c5.567-0.676,8.429-1.994,9.245-3.247
				c0.438,3.666-0.533,4.419-0.533,4.419s0.336,0.172,1.256,0.891c1.18,0.924,2.486,2.812,2.24,5.343
				c-0.234,2.423-0.167,4.763-0.234,4.772c-0.066,0.008-0.261-0.115-0.326-0.035c-0.066,0.082-0.26,0.226-0.436,3.32
				c-0.041,0.359-0.251,0.37-0.247,0.192c0.121-6.099-0.849-6.22-0.803-7.269c0.051-1.199,0.677-3.141-0.333-4.477
				c-1.337-1.766-3.18,0.253-6.812,0.253s-6.406-1.871-7.19-0.481c-0.785,1.389-0.347,3.565-0.289,4.106
				c0.166,1.483-0.878,2.813-0.832,4.317c0.042,1.373,0.101,2.742,0.062,3.355c-0.035,0.542-0.246,0.414-0.271,0
				c-0.248-3.882-0.535-3.402-0.535-3.402L22.658,49.929z"/>
		</g>
	</g>
</g>
<g>
	<g>
		<path fill="#FFFFFF" stroke="#37BFF0" stroke-miterlimit="10" d="M83.396,16.349H49.812c-1.778,0-3.221,1.442-3.221,3.22v60.864
			c0,1.776,1.441,3.219,3.221,3.219h33.586c1.776,0,3.218-1.441,3.218-3.219V19.569C86.615,17.792,85.174,16.349,83.396,16.349z"/>
		<path fill="#FFFFFF" stroke="#37BFF0" stroke-miterlimit="10" d="M83.969,71.486l-33.974-0.041"/>
		<path fill="#FFFFFF" stroke="#37BFF0" stroke-miterlimit="10" d="M50.036,27.908l33.971,0.042"/>
		<path fill="#37BFF0" d="M68.904,23.353c0,0.254-0.207,0.461-0.461,0.461h-9.188c-0.253,0-0.46-0.207-0.46-0.461l0,0
			c0-0.254,0.207-0.459,0.46-0.459h9.188C68.697,22.894,68.904,23.099,68.904,23.353L68.904,23.353z"/>
		<circle fill="#37BFF0" cx="72.05" cy="23.348" r="0.729"/>
		<circle fill="none" stroke="#37BFF0" stroke-miterlimit="10" cx="67.046" cy="77.007" r="2.925"/>
	</g>
	<g>
		<g id="BALD_6_">
			<path fill="none" stroke="#37BFF0" stroke-miterlimit="10" d="M77.312,49.077c0.229-1.545,0.766-2.766,0.515-5.807
				c-0.167-2.014-1.794-6.434-7.24-7.76c-1.065-0.379-2.213-0.588-3.407-0.588c-1.197,0-2.346,0.209-3.412,0.588
				c-5.445,1.326-7.074,5.746-7.24,7.76c-0.254,3.055,0.287,4.271,0.516,5.824c-1.031,0.273-1.729,1.273-1.594,2.361l0.271,2.188
				c0.139,1.121,1.107,1.934,2.211,1.903c0.133,1.12,0.254,2.081,0.336,2.743c0.324,2.643,1.23,3.186,3.326,4.584
				c2.098,1.398,3.498,2.176,5.586,2.176c2.086,0,3.483-0.777,5.582-2.176c2.096-1.398,3.002-1.941,3.326-4.584
				c0.081-0.663,0.2-1.626,0.334-2.749c1.133,0.067,2.141-0.753,2.281-1.897l0.271-2.188C79.111,50.345,78.383,49.324,77.312,49.077
				z"/>
		</g>
		<circle fill="#37BFF0" cx="64.396" cy="50.91" r="0.875"/>
		<circle fill="#37BFF0" cx="70.206" cy="50.91" r="0.875"/>
		<g>
			<path fill="#37BFF0" d="M67.283,58.257h-0.207c-1.805,0-2.668-0.77-2.704-0.804c-0.144-0.129-0.153-0.351-0.022-0.494
				c0.131-0.143,0.354-0.153,0.496-0.024c0.006,0.006,0.719,0.621,2.23,0.621h0.207c1.509,0,2.223-0.613,2.23-0.621
				c0.143-0.129,0.364-0.118,0.494,0.024c0.131,0.144,0.121,0.365-0.021,0.494C69.951,57.487,69.085,58.257,67.283,58.257z"/>
		</g>
	</g>
	<g id="brd_-_4_3_">
		<path fill="none" stroke="#37BFF0" stroke-miterlimit="10" d="M76.814,50.58c-0.117,0-0.416,0.681-0.592,1.104
			c-0.242,0.613-0.496,1.209-0.709,1.632c-0.56,1.102-2.205,2.384-2.488,3.134c-0.281,0.75-0.5,1.271-0.903,1.223
			c-0.405-0.052-0.203-1.037-1.313-2.58c-1.101-1.521-3.203-1.515-3.646-1.514c-0.441-0.001-2.547-0.009-3.646,1.514
			c-1.111,1.543-0.91,2.528-1.313,2.58c-0.403,0.051-0.623-0.473-0.904-1.223c-0.282-0.75-1.931-2.032-2.487-3.134
			c-0.235-0.466-0.52-1.144-0.783-1.819c-0.176-0.411-0.412-0.917-0.516-0.917c-0.17,0-0.125,0.521-0.093,0.851
			c0,0.006-0.004,0.01-0.004,0.016c0.167,1.773,0.368,3.812,0.487,4.811c0.179,1.467,0.104,3.287,1.141,4.525
			c1.035,1.238,4.061,3.189,5.814,3.867c1.105,0.43,2.162,0.432,2.305,0.432c0.143,0.002,1.197-0.002,2.304-0.432
			c1.753-0.678,4.779-2.629,5.815-3.867c1.035-1.238,0.961-3.059,1.137-4.525c0.121-1,0.326-3.052,0.492-4.83
			C76.941,51.097,76.984,50.58,76.814,50.58z M70.473,59.171c-0.396,0.199-1.574,0.844-3.312,0.85
			c-1.735-0.006-2.915-0.649-3.312-0.85c-0.32-0.16-0.764-0.513-0.588-0.941c0.178-0.432,1.268-1.821,2.094-2.398
			c0.496-0.346,1.33-0.404,1.806-0.396c0.478-0.01,1.31,0.051,1.805,0.396c0.828,0.577,1.916,1.969,2.095,2.398
			C71.234,58.658,70.792,59.011,70.473,59.171z"/>
	</g>
</g>
</svg>
