<?xml version="1.0" encoding="utf-8"?>
<!-- Generator: Adobe Illustrator 16.0.4, SVG Export Plug-In . SVG Version: 6.00 Build 0)  -->
<!DOCTYPE svg PUBLIC "-//W3C//DTD SVG 1.1//EN" "http://www.w3.org/Graphics/SVG/1.1/DTD/svg11.dtd">
<svg version="1.1" id="Laag_1" xmlns="http://www.w3.org/2000/svg" xmlns:xlink="http://www.w3.org/1999/xlink" x="0px" y="0px"
	 width="100px" height="100px" viewBox="0 0 100 100" enable-background="new 0 0 100 100" xml:space="preserve">
<g>
	<g>
		<path fill="none" stroke="#37BFF0" stroke-miterlimit="10" d="M32.395,18.5H5.574c-1.422,0-2.572,1.15-2.572,2.57v48.628
			c0,1.418,1.15,2.569,2.572,2.569h26.822c1.419,0,2.568-1.151,2.568-2.569V21.07C34.965,19.65,33.814,18.5,32.395,18.5z
			 M33.164,60.838c0,0.943-0.771,1.714-1.715,1.711L7.124,62.517c-0.942-0.001-1.712-0.773-1.712-1.716l0.024-31.354
			c0.003-0.943,0.774-1.713,1.717-1.713l24.323,0.033c0.941,0.001,1.713,0.774,1.713,1.716L33.164,60.838z"/>
		<path fill="#37BFF0" d="M20.818,24.096c0,0.202-0.164,0.367-0.366,0.367h-7.34c-0.202,0-0.367-0.165-0.367-0.367l0,0
			c0-0.203,0.165-0.368,0.367-0.368h7.34C20.654,23.728,20.818,23.893,20.818,24.096L20.818,24.096z"/>
		<circle fill="#37BFF0" cx="23.332" cy="24.09" r="0.582"/>
		<circle fill="none" stroke="#37BFF0" stroke-miterlimit="10" cx="19.335" cy="66.959" r="2.336"/>
	</g>
	<g>
		<g id="BALD_1_">
			<path fill="none" stroke="#37BFF0" stroke-miterlimit="10" d="M27.537,45.885c0.183-1.233,0.611-2.21,0.41-4.639
				c-0.135-1.609-1.434-5.142-5.784-6.201c-0.851-0.303-1.769-0.47-2.723-0.47c-0.956,0-1.872,0.167-2.724,0.47
				c-4.351,1.06-5.649,4.592-5.783,6.201c-0.202,2.439,0.23,3.412,0.412,4.654c-0.824,0.221-1.381,1.018-1.272,1.888l0.218,1.747
				c0.111,0.896,0.884,1.545,1.766,1.521c0.105,0.895,0.201,1.661,0.267,2.19c0.259,2.111,0.983,2.545,2.658,3.664
				c1.675,1.115,2.792,1.735,4.459,1.735s2.784-0.62,4.46-1.735c1.674-1.119,2.398-1.553,2.657-3.664
				c0.064-0.529,0.16-1.299,0.267-2.195c0.904,0.055,1.709-0.601,1.822-1.517l0.217-1.747
				C28.974,46.898,28.391,46.082,27.537,45.885z"/>
		</g>
		<circle fill="#37BFF0" enable-background="new    " cx="17.219" cy="47.352" r="0.699"/>
		<circle fill="#37BFF0" enable-background="new    " cx="21.859" cy="47.352" r="0.699"/>
		<g>
			<path fill="#37BFF0" d="M19.523,53.22h-0.165c-1.44,0-2.131-0.613-2.159-0.641c-0.115-0.104-0.123-0.281-0.018-0.396
				c0.104-0.114,0.281-0.123,0.396-0.021c0.005,0.006,0.573,0.495,1.781,0.495h0.165c1.206,0,1.776-0.489,1.783-0.495
				c0.113-0.103,0.291-0.094,0.395,0.021c0.105,0.114,0.098,0.292-0.018,0.396C21.655,52.606,20.964,53.22,19.523,53.22z"/>
		</g>
	</g>
	<g id="snit_-_3">
		<path fill="#FFFFFF" stroke="#37BFF0" stroke-miterlimit="10" d="M10.893,46.041c0,0-0.061-2.845-0.191-3.781
			c-0.141-1.002,0.156-3.342,0.895-4.352c0.737-1.012,1.988-2.774,5.117-3.153c5.176-0.628,7.836-1.854,8.594-3.019
			c0.406,3.408-0.495,4.107-0.495,4.107s0.312,0.16,1.167,0.828c1.098,0.858,2.312,2.615,2.084,4.967
			c-0.22,2.252-0.156,4.428-0.22,4.437c-0.062,0.007-0.241-0.106-0.302-0.031c-0.062,0.075-0.243,0.208-0.405,3.086
			c-0.038,0.335-0.233,0.345-0.229,0.179c0.112-5.668-0.789-5.781-0.746-6.756c0.047-1.114,0.629-2.92-0.311-4.162
			c-1.242-1.641-2.954,0.235-6.332,0.235s-5.955-1.739-6.685-0.448c-0.73,1.291-0.323,3.315-0.269,3.818
			c0.154,1.379-0.817,2.617-0.774,4.014c0.039,1.277,0.093,2.551,0.057,3.12c-0.032,0.504-0.228,0.385-0.252,0
			c-0.23-3.608-0.497-3.164-0.497-3.164L10.893,46.041z"/>
	</g>
</g>
<g>
	<g>
		<path fill="#FFFFFF" stroke="#37BFF0" stroke-miterlimit="10" d="M95.287,21.768h-26.82c-1.422,0-2.572,1.152-2.572,2.572v48.63
			c0,1.418,1.15,2.57,2.572,2.57h26.822c1.42,0,2.568-1.152,2.568-2.57V24.34C97.857,22.92,96.707,21.768,95.287,21.768z"/>
		<path fill="#FFFFFF" stroke="#37BFF0" stroke-miterlimit="10" d="M96.057,64.109c0,0.943-0.771,1.715-1.714,1.711l-24.325-0.031
			c-0.942-0.002-1.713-0.773-1.713-1.717l0.025-31.357c0.002-0.943,0.773-1.713,1.717-1.713l24.323,0.033
			c0.941,0.002,1.712,0.773,1.712,1.715L96.057,64.109z"/>
		<path fill="#37BFF0" d="M83.712,27.363c0,0.203-0.165,0.367-0.366,0.367h-7.34c-0.203,0-0.367-0.164-0.367-0.367l0,0
			c0-0.203,0.164-0.367,0.367-0.367h7.34C83.547,26.996,83.712,27.16,83.712,27.363L83.712,27.363z"/>
		<circle fill="#37BFF0" cx="86.225" cy="27.358" r="0.583"/>
		<circle fill="none" stroke="#37BFF0" stroke-miterlimit="10" cx="82.229" cy="70.231" r="2.336"/>
	</g>
	<g id="head">
		<path fill="none" stroke="#37BFF0" stroke-miterlimit="10" d="M91.084,48.107c0.189-1.277,0.632-2.285,0.424-4.801
			c-0.139-1.664-1.484-5.322-5.99-6.418c-0.881-0.314-1.829-0.486-2.818-0.486c-0.988,0-1.938,0.172-2.819,0.486
			c-4.505,1.096-5.851,4.752-5.989,6.418c-0.209,2.525,0.239,3.533,0.427,4.818c-0.853,0.227-1.429,1.053-1.317,1.953l0.629,1.81
			c0.123,0.983,0.615,1.683,1.6,1.562c0.071-0.01,0.142-0.024,0.209-0.041c0.34,2.171,1.238,3.682,2.779,4.71
			c1.734,1.156,3.215,2.101,4.482,2.101c1.309,0,2.906-1.141,4.482-2.506c1.471-1.273,2.423-2.27,2.775-4.322
			c0.088,0.024,0.179,0.046,0.271,0.057c0.985,0.123,1.478-0.576,1.6-1.56l0.629-1.81C92.572,49.156,91.969,48.312,91.084,48.107z"
			/>
	</g>
	<circle fill="#37BFF0" enable-background="new    " cx="80.586" cy="50.222" r="0.578"/>
	<circle fill="#37BFF0" enable-background="new    " cx="85.123" cy="50.222" r="0.578"/>
	<g enable-background="new    ">
		<path fill="#37BFF0" d="M82.812,56.06h-0.119c-1.045,0-1.547-0.445-1.566-0.465c-0.083-0.076-0.09-0.205-0.014-0.287
			c0.076-0.083,0.205-0.089,0.288-0.014c0.003,0.003,0.417,0.359,1.292,0.359h0.119c0.875,0,1.289-0.355,1.293-0.359
			c0.083-0.075,0.212-0.069,0.287,0.014c0.076,0.083,0.07,0.212-0.014,0.287C84.359,55.614,83.857,56.06,82.812,56.06z"/>
	</g>
	<g id="snit_-_6">
		<path fill="#FFFFFF" stroke="#37BFF0" stroke-miterlimit="10" d="M93.039,47.65c0.139,0.092,0.309,0.197,0.486,0.281
			c-0.283-0.252-0.449-0.84-0.552-1.42c-0.005-0.049-0.015-0.131-0.015-0.131c-0.044-0.379-0.096-0.775-0.16-1.18
			c-0.002-0.004-0.002-0.012-0.003-0.018v0.004c-0.263-1.637-0.748-3.443-1.887-5.201c-1.732-2.674-4.21-2.727-4.21-2.727
			c-0.575-0.857-1.787-1.229-3.873-1.229c-2.705,0-5.132,0.723-7.207,2.719c0,0,0.947-1.09,0-0.002
			c-0.947,1.086-1.436,1.537-2.23,3.941c-0.393,1.186-1.155,3.58-1.284,5.434v-0.002c0,0.002,0,0.002,0,0.002
			c-0.021,0.277-0.025,0.543-0.013,0.791c0.021,0.43,0.057,0.836,0.102,1.219c0.029,1.06-0.001,2.233-0.295,2.795
			c0.545-0.155,0.662-0.597,0.662-0.597v-0.006c0.541,2.582,2.261,5.282,3.543,6.157c1.48,1.01,1,2.756,1,2.756
			s0.576-0.557,0.754-1.199c0.02,0.059,0.039,0.117,0.055,0.181c0.306,1.239-0.425,2.457-0.425,2.457s2.083-0.444,2.661-1.103
			c0.872-0.988,1.137-1.671,1.137-1.671c-0.811-0.322-2.275-1.24-3.068-1.785c-1.717-1.178-2.498-2.787-2.778-4.71
			c0,0-0.12,0.044-0.304,0.048c-0.92,0.066-1.387-0.616-1.506-1.568L73,50.078c-0.111-0.9,0.465-1.727,1.317-1.953
			c-0.019-0.121-0.101-4.318,4.647-4.707c0.23-0.02,0.446-0.033,0.656-0.045c-0.29,0.441-0.413,0.998-0.491,1.545
			c0.271-0.746,1.931-1.326,1.931-1.326c-0.254,0.477-0.336,1.051-0.336,1.666c0.738-1.252,2.959-1.621,2.968-1.621
			c-0.312,0.668-0.585,1.463-0.717,2.074c0.677-1.113,1.876-2.098,2.812-2.756c0.394-0.203,0.829-0.479,1.339-0.848
			c1.126,0.871,4.18,3.441,4.029,5.572l0,0c-0.025,0.141-0.051,0.283-0.072,0.428c0.195,0.047,1.619,1.305,1.323,2.115
			c-0.335,0.921-0.523,1.352-0.579,1.665c-0.054,0.312-0.148,0.698-0.251,0.87c-0.104,0.171-0.344,0.436-0.344,0.436
			c-0.251,0.208-0.581,0.308-1.004,0.256c-0.094-0.013-0.185-0.033-0.272-0.059c-0.353,2.053-1.291,3.064-2.775,4.322
			c-0.515,0.438-2.43,1.818-2.43,1.818s0.124,1.265,1.412,2.292c0.852,0.678,1.818,1.278,1.818,1.278s-0.229-1.992,0.109-3.402
			c-0.123,0.785,1.014,1.542,1.014,1.542s-0.349-0.392-0.31-1.579c0.039-1.186,0.794-1.467,1.802-2.998
			c0.755-1.146,1.252-2.14,1.536-2.76c0.007-0.01,0.014-0.02,0.021-0.03c0.206-0.323,0.822-2.277,0.886-3.478
			C93.078,49.682,93.039,47.668,93.039,47.65z"/>
	</g>
</g>
<g>
	<g>
		<path fill="#FFFFFF" stroke="#37BFF0" stroke-miterlimit="10" d="M72.691,14.196H36.141c-1.936,0-3.504,1.569-3.504,3.503V83.94
			c0,1.935,1.568,3.503,3.504,3.503h36.553c1.935,0,3.502-1.568,3.502-3.503V17.7C76.195,15.766,74.627,14.196,72.691,14.196z"/>
		<path fill="#FFFFFF" stroke="#37BFF0" stroke-miterlimit="10" d="M73.74,71.872c0,1.284-1.053,2.334-2.336,2.332l-33.148-0.045
			c-1.285-0.002-2.336-1.055-2.334-2.339l0.035-42.712c0.002-1.284,1.053-2.333,2.338-2.332l33.146,0.045
			c1.283,0.002,2.334,1.054,2.334,2.338L73.74,71.872z"/>
		<path fill="#37BFF0" d="M56.92,21.819c0,0.276-0.225,0.5-0.5,0.5H46.418c-0.275,0-0.5-0.224-0.5-0.5l0,0
			c0-0.276,0.225-0.5,0.5-0.5H56.42C56.695,21.319,56.92,21.543,56.92,21.819L56.92,21.819z"/>
		<circle fill="#37BFF0" cx="60.344" cy="21.812" r="0.793"/>
		<circle fill="none" stroke="#37BFF0" stroke-miterlimit="10" cx="54.897" cy="80.211" r="3.183"/>
	</g>
	<g>
		<g id="BALD_4_">
			<path fill="none" stroke="#37BFF0" stroke-miterlimit="10" d="M66.072,49.814c0.249-1.681,0.832-3.009,0.559-6.318
				c-0.182-2.191-1.952-7.002-7.88-8.445c-1.159-0.412-2.408-0.64-3.709-0.64c-1.303,0-2.552,0.228-3.713,0.64
				c-5.927,1.443-7.698,6.254-7.88,8.445c-0.275,3.323,0.312,4.648,0.561,6.338c-1.123,0.299-1.881,1.387-1.734,2.571l0.297,2.381
				c0.15,1.22,1.205,2.103,2.406,2.071c0.145,1.219,0.276,2.265,0.364,2.985c0.354,2.876,1.34,3.467,3.621,4.989
				c2.283,1.521,3.807,2.366,6.078,2.366c2.271,0,3.792-0.845,6.075-2.366c2.282-1.522,3.269-2.113,3.621-4.989
				c0.088-0.722,0.218-1.77,0.363-2.992c1.233,0.073,2.329-0.819,2.483-2.064l0.295-2.381C68.03,51.193,67.236,50.084,66.072,49.814
				z"/>
		</g>
		<circle fill="#37BFF0" enable-background="new    " cx="52.014" cy="51.809" r="0.952"/>
		<circle fill="#37BFF0" enable-background="new    " cx="58.337" cy="51.809" r="0.952"/>
		<g>
			<path fill="#37BFF0" d="M55.156,59.805h-0.226c-1.964,0-2.904-0.837-2.943-0.874c-0.156-0.141-0.167-0.382-0.024-0.538
				s0.384-0.167,0.54-0.026c0.005,0.006,0.781,0.675,2.428,0.675h0.226c1.642,0,2.419-0.667,2.427-0.675
				c0.155-0.141,0.397-0.13,0.539,0.026c0.143,0.156,0.132,0.397-0.023,0.538C58.06,58.968,57.117,59.805,55.156,59.805z"/>
		</g>
	</g>
	<g id="brd_-_4">
		<path fill="none" stroke="#37BFF0" stroke-miterlimit="10" d="M65.53,51.45c-0.129,0-0.454,0.741-0.646,1.203
			c-0.264,0.667-0.54,1.316-0.771,1.775c-0.607,1.199-2.399,2.595-2.707,3.41c-0.307,0.816-0.545,1.385-0.984,1.33
			c-0.44-0.056-0.221-1.128-1.431-2.807c-1.196-1.657-3.485-1.648-3.967-1.647c-0.48-0.001-2.772-0.01-3.968,1.647
			c-1.21,1.679-0.99,2.751-1.431,2.807c-0.439,0.055-0.678-0.514-0.984-1.33c-0.308-0.815-2.102-2.211-2.707-3.41
			c-0.257-0.506-0.565-1.243-0.853-1.98c-0.191-0.447-0.449-0.998-0.561-0.998c-0.186,0-0.137,0.565-0.102,0.925
			c0,0.007-0.004,0.011-0.004,0.018c0.182,1.93,0.4,4.149,0.531,5.235c0.193,1.596,0.111,3.577,1.24,4.925
			c1.127,1.348,4.42,3.472,6.328,4.209c1.204,0.468,2.354,0.47,2.509,0.47c0.154,0.002,1.303-0.002,2.507-0.47
			c1.908-0.737,5.201-2.861,6.329-4.209s1.046-3.329,1.237-4.925c0.132-1.089,0.354-3.321,0.535-5.258
			C65.667,52.012,65.714,51.45,65.53,51.45z M58.626,60.801c-0.43,0.216-1.713,0.917-3.604,0.923
			c-1.889-0.006-3.172-0.707-3.603-0.923c-0.349-0.175-0.831-0.559-0.64-1.026c0.193-0.469,1.378-1.981,2.277-2.61
			c0.541-0.376,1.447-0.44,1.965-0.431c0.521-0.01,1.426,0.055,1.965,0.431c0.901,0.629,2.085,2.142,2.278,2.61
			C59.457,60.242,58.975,60.626,58.626,60.801z"/>
	</g>
</g>
</svg>
