<?xml version="1.0" encoding="utf-8"?>
<!-- Generator: Adobe Illustrator 16.0.4, SVG Export Plug-In . SVG Version: 6.00 Build 0)  -->
<!DOCTYPE svg PUBLIC "-//W3C//DTD SVG 1.1//EN" "http://www.w3.org/Graphics/SVG/1.1/DTD/svg11.dtd">
<svg version="1.1" id="Laag_1" xmlns="http://www.w3.org/2000/svg" xmlns:xlink="http://www.w3.org/1999/xlink" x="0px" y="0px"
	 width="100px" height="100px" viewBox="0 0 100 100" enable-background="new 0 0 100 100" xml:space="preserve">
<g>
	<g>
		<g id="BALD_5_">
			<path fill="none" stroke="#37BFF0" stroke-miterlimit="10" d="M35.929,36.152c0.227-1.535,0.76-2.751,0.51-5.777
				c-0.168-2.002-1.783-6.402-7.205-7.722c-1.058-0.376-2.201-0.585-3.389-0.585c-1.192,0-2.333,0.209-3.394,0.585
				c-5.417,1.319-7.034,5.718-7.202,7.722c-0.253,3.039,0.288,4.25,0.512,5.797c-1.026,0.274-1.719,1.267-1.583,2.35l0.271,2.176
				c0.139,1.115,1.102,1.921,2.199,1.893c0.129,1.114,0.25,2.068,0.33,2.726c0.323,2.629,1.226,3.169,3.311,4.562
				c2.087,1.388,3.478,2.161,5.553,2.161c2.076,0,3.467-0.772,5.554-2.161c2.085-1.393,2.987-1.933,3.31-4.562
				c0.08-0.657,0.198-1.616,0.332-2.73c1.126,0.067,2.128-0.749,2.268-1.888l0.27-2.176C37.718,37.414,36.993,36.398,35.929,36.152z
				"/>
		</g>
		<circle fill="#37BFF0" cx="23.08" cy="37.978" r="0.871"/>
		<circle fill="#37BFF0" cx="28.859" cy="37.978" r="0.871"/>
		<g>
			<path fill="#37BFF0" d="M25.949,45.282h-0.206c-1.794,0-2.652-0.764-2.688-0.797c-0.143-0.128-0.153-0.35-0.022-0.492
				s0.353-0.153,0.495-0.024c0.005,0.007,0.713,0.617,2.216,0.617h0.206c1.504,0,2.212-0.61,2.221-0.617
				c0.143-0.128,0.361-0.118,0.491,0.024c0.133,0.143,0.121,0.362-0.021,0.492C28.604,44.519,27.745,45.282,25.949,45.282z"/>
		</g>
	</g>
	<g id="snit_-_3_1_">
		<path fill="#FFFFFF" stroke="#37BFF0" stroke-miterlimit="10" d="M15.202,36.347c0,0-0.075-3.543-0.237-4.709
			c-0.177-1.247,0.193-4.162,1.113-5.419c0.918-1.26,2.478-3.455,6.373-3.928c6.445-0.782,9.758-2.309,10.704-3.759
			c0.507,4.244-0.617,5.116-0.617,5.116s0.389,0.199,1.454,1.031c1.365,1.07,2.877,3.256,2.592,6.186
			c-0.271,2.805-0.193,5.514-0.271,5.525c-0.077,0.009-0.302-0.134-0.378-0.041c-0.077,0.095-0.3,0.261-0.503,3.843
			c-0.048,0.416-0.291,0.428-0.286,0.223c0.14-7.059-0.982-7.199-0.93-8.414c0.059-1.388,0.783-3.636-0.386-5.183
			c-1.548-2.044-3.681,0.293-7.887,0.293c-4.206,0-7.417-2.167-8.325-0.558c-0.909,1.608-0.401,4.128-0.335,4.754
			c0.192,1.717-1.017,3.257-0.963,4.998c0.049,1.59,0.116,3.174,0.071,3.884c-0.041,0.627-0.285,0.479-0.314,0
			c-0.287-4.493-0.62-3.938-0.62-3.938L15.202,36.347z"/>
	</g>
</g>
<g>
	<g>
		<g id="BALD_6_">
			<path fill="none" stroke="#37BFF0" stroke-miterlimit="10" d="M85.755,28.642c0.229-1.545,0.766-2.766,0.515-5.807
				c-0.167-2.014-1.794-6.434-7.24-7.76c-1.065-0.379-2.213-0.588-3.407-0.588c-1.198,0-2.347,0.209-3.413,0.588
				c-5.445,1.326-7.074,5.746-7.24,7.76c-0.254,3.055,0.287,4.271,0.516,5.824c-1.031,0.273-1.729,1.273-1.594,2.361l0.271,2.188
				c0.139,1.121,1.107,1.934,2.211,1.903c0.133,1.12,0.254,2.081,0.336,2.743c0.324,2.642,1.23,3.185,3.326,4.583
				c2.098,1.398,3.498,2.176,5.587,2.176c2.086,0,3.483-0.777,5.582-2.176c2.096-1.398,3.002-1.941,3.326-4.583
				c0.081-0.663,0.2-1.626,0.334-2.749c1.133,0.067,2.141-0.753,2.281-1.897l0.271-2.188C87.554,29.91,86.825,28.889,85.755,28.642z
				"/>
		</g>
		<circle fill="#37BFF0" cx="72.838" cy="30.475" r="0.875"/>
		<circle fill="#37BFF0" cx="78.648" cy="30.475" r="0.875"/>
		<g>
			<path fill="#37BFF0" d="M75.726,37.822h-0.207c-1.806,0-2.669-0.77-2.705-0.804c-0.144-0.129-0.153-0.351-0.022-0.494
				c0.131-0.143,0.354-0.153,0.496-0.024c0.006,0.006,0.719,0.621,2.231,0.621h0.207c1.509,0,2.223-0.613,2.23-0.621
				c0.143-0.129,0.364-0.118,0.494,0.024c0.131,0.144,0.121,0.365-0.021,0.494C78.394,37.052,77.527,37.822,75.726,37.822z"/>
		</g>
	</g>
	<g id="brd_-_4_3_">
		<path fill="none" stroke="#37BFF0" stroke-miterlimit="10" d="M85.257,30.145c-0.117,0-0.416,0.681-0.592,1.104
			c-0.242,0.613-0.496,1.209-0.709,1.632c-0.56,1.102-2.205,2.384-2.488,3.134c-0.281,0.75-0.5,1.271-0.903,1.223
			c-0.405-0.052-0.203-1.037-1.313-2.58c-1.101-1.521-3.203-1.515-3.646-1.514c-0.441-0.001-2.548-0.009-3.647,1.514
			c-1.111,1.543-0.91,2.528-1.313,2.58c-0.403,0.051-0.623-0.473-0.904-1.223c-0.282-0.75-1.931-2.032-2.487-3.134
			c-0.235-0.466-0.52-1.144-0.783-1.819c-0.176-0.411-0.412-0.917-0.516-0.917c-0.17,0-0.125,0.521-0.093,0.851
			c0,0.006-0.004,0.01-0.004,0.016c0.167,1.773,0.368,3.812,0.487,4.811c0.179,1.467,0.104,3.287,1.141,4.525
			c1.035,1.238,4.061,3.189,5.814,3.867c1.105,0.43,2.163,0.432,2.306,0.432c0.143,0.002,1.197-0.002,2.304-0.432
			c1.753-0.678,4.779-2.629,5.815-3.867c1.035-1.238,0.961-3.058,1.137-4.525c0.121-1,0.326-3.052,0.492-4.83
			C85.384,30.662,85.427,30.145,85.257,30.145z M78.915,38.736c-0.396,0.199-1.574,0.843-3.312,0.849
			c-1.736-0.006-2.916-0.649-3.312-0.849c-0.32-0.16-0.764-0.513-0.588-0.941c0.178-0.432,1.268-1.821,2.094-2.398
			c0.496-0.346,1.33-0.404,1.807-0.396c0.478-0.01,1.31,0.051,1.805,0.396c0.828,0.577,1.916,1.969,2.095,2.398
			C79.677,38.223,79.234,38.576,78.915,38.736z"/>
	</g>
</g>
<g>
	<g id="head">
		<path fill="none" stroke="#37BFF0" stroke-miterlimit="10" d="M67.643,68.217c0.238-1.605,0.794-2.872,0.532-6.033
			c-0.174-2.091-1.865-6.688-7.527-8.064c-1.106-0.396-2.297-0.611-3.54-0.611c-1.242,0-2.436,0.216-3.543,0.611
			c-5.659,1.377-7.351,5.972-7.523,8.064c-0.262,3.173,0.301,4.438,0.535,6.054c-1.07,0.286-1.792,1.323-1.653,2.454l0.791,2.274
			c0.154,1.235,0.773,2.115,2.009,1.963c0.09-0.012,0.18-0.03,0.263-0.051c0.427,2.728,1.555,4.626,3.492,5.918
			c2.179,1.452,4.039,2.64,5.632,2.64c1.645,0,3.652-1.434,5.633-3.148c1.848-1.601,3.043-2.853,3.486-5.432
			c0.11,0.03,0.225,0.059,0.34,0.072c1.238,0.153,1.858-0.724,2.012-1.96l0.79-2.274C69.513,69.534,68.754,68.475,67.643,68.217z"/>
	</g>
	<circle fill="#37BFF0" cx="54.45" cy="70.874" r="0.726"/>
	<circle fill="#37BFF0" cx="60.152" cy="70.874" r="0.726"/>
	<g enable-background="new    ">
		<path fill="#37BFF0" d="M57.248,78.21h-0.149c-1.312,0-1.943-0.56-1.968-0.584c-0.104-0.096-0.113-0.258-0.018-0.36
			c0.096-0.105,0.258-0.113,0.36-0.019c0.005,0.004,0.525,0.45,1.625,0.45h0.149c1.1,0,1.62-0.445,1.625-0.45
			c0.104-0.095,0.266-0.087,0.361,0.019c0.094,0.103,0.087,0.265-0.019,0.36C59.192,77.649,58.562,78.21,57.248,78.21z"/>
	</g>
	<g id="snit_-_6">
		<path fill="#FFFFFF" stroke="#37BFF0" stroke-miterlimit="10" d="M70.1,67.643c0.174,0.115,0.388,0.247,0.61,0.354
			c-0.355-0.317-0.564-1.057-0.694-1.786c-0.006-0.062-0.019-0.164-0.019-0.164c-0.055-0.477-0.121-0.974-0.201-1.482
			c-0.002-0.006-0.002-0.017-0.004-0.023v0.005c-0.33-2.057-0.939-4.326-2.37-6.536c-2.178-3.359-5.291-3.426-5.291-3.426
			c-0.723-1.077-2.245-1.544-4.866-1.544c-3.399,0-6.448,0.908-9.055,3.416c0,0,1.188-1.369,0-0.002
			c-1.19,1.364-1.805,1.932-2.8,4.953c-0.494,1.489-1.453,4.498-1.615,6.827v-0.002c0,0.002,0,0.002,0,0.002
			c-0.025,0.349-0.03,0.683-0.016,0.994c0.025,0.54,0.072,1.051,0.129,1.531c0.037,1.333-0.002,2.807-0.371,3.513
			c0.686-0.194,0.832-0.75,0.832-0.75v-0.008c0.681,3.244,2.839,6.638,4.451,7.737c1.858,1.27,1.255,3.463,1.255,3.463
			s0.724-0.699,0.947-1.507c0.025,0.074,0.049,0.147,0.069,0.228c0.384,1.557-0.535,3.087-0.535,3.087s2.619-0.558,3.345-1.385
			c1.095-1.242,1.429-2.102,1.429-2.102c-1.019-0.403-2.859-1.557-3.855-2.241c-2.156-1.481-3.138-3.503-3.489-5.919
			c0,0-0.151,0.056-0.383,0.061c-1.154,0.082-1.742-0.774-1.891-1.971l-0.791-2.271c-0.14-1.132,0.583-2.17,1.653-2.455
			c-0.023-0.151-0.126-5.426,5.838-5.914c0.288-0.025,0.561-0.042,0.825-0.057c-0.365,0.555-0.52,1.254-0.618,1.941
			c0.342-0.938,2.428-1.667,2.428-1.667c-0.319,0.599-0.422,1.32-0.422,2.094c0.927-1.573,3.718-2.037,3.728-2.037
			c-0.391,0.84-0.733,1.838-0.9,2.606c0.852-1.398,2.358-2.636,3.534-3.463c0.496-0.255,1.042-0.602,1.683-1.065
			c1.415,1.095,5.253,4.323,5.062,7.002l0,0c-0.03,0.177-0.063,0.354-0.089,0.538c0.244,0.059,2.034,1.64,1.662,2.658
			c-0.422,1.155-0.657,1.698-0.728,2.091c-0.067,0.393-0.186,0.877-0.315,1.093c-0.13,0.215-0.432,0.549-0.432,0.549
			c-0.316,0.26-0.731,0.387-1.262,0.321c-0.119-0.017-0.233-0.041-0.343-0.073c-0.442,2.579-1.622,3.85-3.486,5.43
			c-0.647,0.552-3.054,2.284-3.054,2.284s0.155,1.59,1.774,2.881c1.071,0.852,2.283,1.605,2.283,1.605s-0.287-2.503,0.138-4.274
			c-0.154,0.985,1.273,1.938,1.273,1.938s-0.438-0.493-0.389-1.983c0.049-1.491,0.998-1.845,2.264-3.768
			c0.95-1.439,1.573-2.688,1.931-3.47c0.009-0.012,0.019-0.024,0.026-0.036c0.26-0.406,1.033-2.862,1.114-4.371
			C70.148,70.194,70.1,67.664,70.1,67.643z"/>
	</g>
</g>
<g>
	<g>
		<g>
			<line fill="none" stroke="#37BFF0" stroke-miterlimit="10" x1="36.386" y1="27.484" x2="37.373" y2="27.323"/>
			
				<line fill="none" stroke="#37BFF0" stroke-miterlimit="10" stroke-dasharray="2.0629,2.0629" x1="39.409" y1="26.99" x2="62.822" y2="23.161"/>
			<line fill="none" stroke="#37BFF0" stroke-miterlimit="10" x1="63.84" y1="22.995" x2="64.825" y2="22.832"/>
		</g>
	</g>
	<g>
		<g>
			<line fill="none" stroke="#37BFF0" stroke-miterlimit="10" x1="33.821" y1="49.733" x2="34.623" y2="50.333"/>
			
				<line fill="none" stroke="#37BFF0" stroke-miterlimit="10" stroke-dasharray="2.2359,2.2359" x1="36.414" y1="51.669" x2="46.268" y2="59.027"/>
		</g>
	</g>
	<g>
		<g>
			<line fill="none" stroke="#37BFF0" stroke-miterlimit="10" x1="68.124" y1="57.672" x2="68.65" y2="56.822"/>
			
				<line fill="none" stroke="#37BFF0" stroke-miterlimit="10" stroke-dasharray="2.0145,2.0145" x1="69.713" y1="55.11" x2="75.552" y2="45.693"/>
			<line fill="none" stroke="#37BFF0" stroke-miterlimit="10" x1="76.082" y1="44.837" x2="76.608" y2="43.988"/>
		</g>
	</g>
</g>
</svg>
