<?xml version="1.0" encoding="utf-8"?>
<!-- Generator: Adobe Illustrator 16.0.4, SVG Export Plug-In . SVG Version: 6.00 Build 0)  -->
<!DOCTYPE svg PUBLIC "-//W3C//DTD SVG 1.1//EN" "http://www.w3.org/Graphics/SVG/1.1/DTD/svg11.dtd">
<svg version="1.1" id="Laag_1" xmlns="http://www.w3.org/2000/svg" xmlns:xlink="http://www.w3.org/1999/xlink" x="0px" y="0px"
	 width="100px" height="100px" viewBox="0 0 100 100" enable-background="new 0 0 100 100" xml:space="preserve">
<g>
	<circle fill="#37BFF0" enable-background="new    " cx="27.264" cy="41.956" r="0.886"/>
	<g>
		<g id="BALD_3_">
			<path fill="none" stroke="#37BFF0" stroke-miterlimit="10" d="M34.527,39.61c0.245-1.657,0.82-2.966,0.55-6.229
				c-0.179-2.162-1.925-6.907-7.772-8.331c-1.144-0.406-2.374-0.63-3.658-0.63c-1.284,0-2.515,0.224-3.66,0.63
				c-5.846,1.424-7.592,6.169-7.771,8.331c-0.272,3.277,0.308,4.584,0.553,6.25c-1.107,0.295-1.856,1.367-1.709,2.536l0.292,2.348
				c0.148,1.2,1.188,2.072,2.372,2.041c0.143,1.204,0.271,2.235,0.358,2.946c0.348,2.835,1.32,3.419,3.571,4.921
				c2.252,1.501,3.754,2.334,5.993,2.334c2.24,0,3.741-0.833,5.993-2.334c2.25-1.502,3.222-2.086,3.571-4.921
				c0.087-0.712,0.215-1.746,0.359-2.952c1.216,0.072,2.296-0.809,2.448-2.035l0.292-2.348
				C36.458,40.972,35.674,39.876,34.527,39.61z"/>
		</g>
		<circle fill="#37BFF0" enable-background="new    " cx="20.295" cy="41.956" r="0.886"/>
		<g enable-background="new    ">
			<path fill="#37BFF0" d="M23.715,50.084H23.53c-1.605,0-2.374-0.685-2.406-0.714c-0.126-0.115-0.136-0.314-0.021-0.44
				c0.117-0.129,0.314-0.137,0.442-0.021c0.005,0.003,0.641,0.551,1.984,0.551h0.185c1.342,0,1.977-0.545,1.983-0.551
				c0.128-0.116,0.326-0.108,0.443,0.021c0.116,0.126,0.107,0.325-0.022,0.44C26.088,49.399,25.319,50.084,23.715,50.084z"/>
		</g>
	</g>
</g>
<g>
	<circle fill="#37BFF0" enable-background="new    " cx="78.38" cy="32.941" r="0.886"/>
	<g>
		<g id="BALD_4_">
			<path fill="none" stroke="#37BFF0" stroke-miterlimit="10" d="M85.643,30.596c0.245-1.657,0.82-2.966,0.55-6.229
				c-0.179-2.162-1.925-6.907-7.771-8.331c-1.144-0.406-2.374-0.63-3.658-0.63s-2.515,0.224-3.659,0.63
				c-5.846,1.424-7.593,6.169-7.771,8.331c-0.272,3.277,0.308,4.584,0.553,6.25c-1.107,0.295-1.856,1.367-1.71,2.536l0.292,2.348
				c0.148,1.2,1.188,2.072,2.372,2.041c0.143,1.204,0.271,2.235,0.358,2.946c0.348,2.834,1.32,3.418,3.571,4.919
				c2.252,1.501,3.754,2.334,5.992,2.334c2.24,0,3.741-0.833,5.993-2.334c2.251-1.501,3.223-2.085,3.571-4.919
				c0.087-0.712,0.215-1.746,0.359-2.952c1.216,0.072,2.296-0.809,2.447-2.035l0.292-2.348
				C87.574,31.958,86.79,30.862,85.643,30.596z"/>
		</g>
		<circle fill="#37BFF0" enable-background="new    " cx="71.411" cy="32.941" r="0.886"/>
		<g enable-background="new    ">
			<path fill="#37BFF0" d="M74.831,41.07h-0.185c-1.605,0-2.374-0.685-2.406-0.714c-0.126-0.115-0.136-0.314-0.021-0.44
				c0.117-0.129,0.314-0.137,0.442-0.021c0.005,0.003,0.641,0.551,1.984,0.551h0.185c1.342,0,1.978-0.545,1.983-0.551
				c0.128-0.116,0.326-0.108,0.443,0.021c0.115,0.126,0.106,0.325-0.022,0.44C77.204,40.385,76.435,41.07,74.831,41.07z"/>
		</g>
	</g>
</g>
<g>
	<circle fill="#37BFF0" enable-background="new    " cx="60.438" cy="74.6" r="0.886"/>
	<g>
		<g id="BALD_1_">
			<path fill="none" stroke="#37BFF0" stroke-miterlimit="10" d="M67.701,72.255c0.244-1.657,0.82-2.967,0.55-6.23
				c-0.179-2.161-1.925-6.906-7.771-8.33c-1.145-0.406-2.375-0.63-3.658-0.63c-1.284,0-2.515,0.224-3.659,0.63
				c-5.846,1.424-7.592,6.169-7.771,8.33c-0.272,3.277,0.308,4.585,0.553,6.25c-1.107,0.297-1.856,1.368-1.709,2.537l0.292,2.348
				c0.148,1.199,1.188,2.071,2.372,2.04c0.143,1.204,0.271,2.235,0.358,2.946c0.348,2.835,1.32,3.419,3.571,4.92
				c2.251,1.501,3.753,2.334,5.993,2.334c2.24,0,3.741-0.833,5.993-2.334c2.251-1.501,3.223-2.085,3.57-4.92
				c0.088-0.712,0.216-1.746,0.359-2.951c1.217,0.071,2.297-0.81,2.448-2.035l0.292-2.348
				C69.633,73.616,68.849,72.521,67.701,72.255z"/>
		</g>
		<circle fill="#37BFF0" enable-background="new    " cx="53.469" cy="74.6" r="0.886"/>
		<g enable-background="new    ">
			<path fill="#37BFF0" d="M56.89,82.729h-0.186c-1.604,0-2.374-0.686-2.405-0.715c-0.126-0.114-0.136-0.313-0.021-0.44
				c0.117-0.129,0.313-0.137,0.441-0.021c0.006,0.004,0.641,0.551,1.984,0.551h0.186c1.342,0,1.977-0.545,1.983-0.551
				c0.128-0.116,0.326-0.108,0.442,0.021c0.116,0.127,0.107,0.326-0.021,0.44C59.263,82.043,58.493,82.729,56.89,82.729z"/>
		</g>
	</g>
</g>
<g>
	<g>
		<line fill="none" stroke="#37BFF0" stroke-miterlimit="10" x1="34.677" y1="31.573" x2="35.652" y2="31.353"/>
		
			<line fill="none" stroke="#37BFF0" stroke-miterlimit="10" stroke-dasharray="2.0629,2.0629" x1="37.665" y1="30.899" x2="60.806" y2="25.678"/>
		<line fill="none" stroke="#37BFF0" stroke-miterlimit="10" x1="61.812" y1="25.451" x2="62.787" y2="25.23"/>
	</g>
</g>
<g>
	<g>
		<line fill="none" stroke="#37BFF0" stroke-miterlimit="10" x1="32.327" y1="51.998" x2="33.163" y2="52.548"/>
		
			<line fill="none" stroke="#37BFF0" stroke-miterlimit="10" stroke-dasharray="2.2359,2.2359" x1="35.031" y1="53.775" x2="45.307" y2="60.532"/>
		<line fill="none" stroke="#37BFF0" stroke-miterlimit="10" x1="46.241" y1="61.146" x2="47.076" y2="61.695"/>
	</g>
</g>
<g>
	<g>
		<line fill="none" stroke="#37BFF0" stroke-miterlimit="10" x1="65.758" y1="60.079" x2="66.4" y2="59.312"/>
		
			<line fill="none" stroke="#37BFF0" stroke-miterlimit="10" stroke-dasharray="2.0145,2.0145" x1="67.695" y1="57.77" x2="74.816" y2="49.279"/>
		<line fill="none" stroke="#37BFF0" stroke-miterlimit="10" x1="75.464" y1="48.507" x2="76.106" y2="47.741"/>
	</g>
</g>
</svg>
