<?xml version="1.0" encoding="utf-8"?>
<!-- Generator: Adobe Illustrator 16.0.4, SVG Export Plug-In . SVG Version: 6.00 Build 0)  -->
<!DOCTYPE svg PUBLIC "-//W3C//DTD SVG 1.1//EN" "http://www.w3.org/Graphics/SVG/1.1/DTD/svg11.dtd">
<svg version="1.1" id="Laag_1" xmlns="http://www.w3.org/2000/svg" xmlns:xlink="http://www.w3.org/1999/xlink" x="0px" y="0px"
	 width="190px" height="340px" viewBox="0 0 190 340" enable-background="new 0 0 190 340" xml:space="preserve">
<path fill="#ECAD5E" d="M128.164,275.002c-0.188-2.041-0.857-5.336-0.857-5.336s2.562-19.166,2.307-22.791
	c-0.254-3.625,1.225-25.625-3.717-29.25c-4.938-3.625-10.942-5.879-13.483-9.129c-2.542-3.25-32.935-3.25-35.476,0
	s-8.547,5.504-13.486,9.129s-3.465,25.625-3.719,29.25s2.307,22.791,2.307,22.791s-0.67,3.296-0.857,5.336s1.889,5.9,5.846,5.9
	c4.014,0,4.875-4.061,4.875-5.922c0-1.86-1.762-5.479-1.762-5.479c-0.763-5.479-1.242-24.877-0.986-28.877
	c0.254-4,0.396-7.25,3.066-7c2.668,0.25,4.211,13.875,4.846,17.75c0.631,3.876,2.68,13.626,2.68,13.626l0.012,0.001
	c0.006,0.026,2.702,11.447,3.592,18.886c0.342,2.854,1.558,15.844,2.234,20.795c0.001,0.02-0.006,0.028-0.004,0.045
	c0.064,0.711-0.23,1.668-1.21,2.209c-1.146,0.637-1.914,0.875-1.914,2.58c0,0.739,0.479,1.33,2.33,1.33c1.505,0,5.153,0,6.351,0
	c1.239,0,1.664-1.138,1.664-2.062c0-1.394-0.613-1.777-0.613-3.783l0,0c0.41-5.78-0.147-19.162-0.147-21.112
	c0-2.139,0.481-11.709,2.633-11.727c2.153,0.018,2.634,9.588,2.634,11.727c0,1.95-0.558,15.332-0.146,21.112c0,0,0,0,0,0.001
	c0,2.006-0.614,2.391-0.614,3.783c0,0.925,0.428,2.062,1.665,2.062c1.192,0,4.847,0,6.353,0c1.851,0,2.33-0.593,2.33-1.332
	c0-1.705-0.771-1.945-1.914-2.578c-0.979-0.543-1.275-1.498-1.211-2.209c0.002-0.02-0.004-0.029-0.004-0.045
	c0.678-4.953,1.895-17.942,2.233-20.795c0.892-7.439,3.585-18.861,3.592-18.889l0.013-0.001c0,0,2.049-9.75,2.686-13.625
	c0.635-3.875,2.176-17.5,4.845-17.75s2.812,3,3.065,7c0.255,4-0.225,23.396-0.987,28.877c0,0-1.763,3.618-1.763,5.479
	c0,1.862,0.861,5.92,4.875,5.92C126.275,280.902,128.354,277.042,128.164,275.002z"/>
<path opacity="0.05" fill="#1E1E1C" enable-background="new    " d="M112.41,208.496c-2.542-3.25-32.934-3.25-35.477,0
	c-1.437,1.838-2.621,3.357-6.012,4.986c8.465,6.342,13.826,9.772,23.518,9.772c9.763,0,15.158-3.479,23.699-9.907
	C114.855,211.77,113.807,210.283,112.41,208.496z"/>
<g id="bottom_-_2_2_">
	<path fill="#066B86" d="M94.667,263.441c-5.205,0-15.728-1.088-15.728-1.088s3.52,14.084,4.41,21.53
		c0.375,3.117,1.424,12.958,1.801,22.369c1.188,0.489,4.509,1.458,7.274,0.271c0.528-5.256-0.038-20.594-0.038-22.64
		c0-2.138,0.881-6.724,2.286-6.724c1.224,0,1.937,4.585,1.937,6.724c0,2.046-0.154,17.384,0.371,22.64
		c2.771,1.188,6.056,0.256,7.24-0.233c0.422-9.211,1.401-19.287,1.775-22.403c0.891-7.449,4.408-21.533,4.408-21.533
		S99.871,263.441,94.667,263.441z"/>
</g>
<g id="feet_-_3_kopie">
	<path fill="#CA5C50" d="M84.991,306.256c-1.866,0.204-3.216,0.904-3.703,2.299c-0.488,1.396-0.364,2.291,0.129,2.291
		c0.562,0,9.958,0,10.724,0c0.767,0,0.754-1.352,0.696-2.062s0.087-2.541-0.414-2.259c0,0-2.101,0.382-3.308,0.315
		C87.908,306.779,84.991,306.256,84.991,306.256z"/>
	<path fill="#CA5C50" d="M104.415,306.256c1.864,0.204,3.215,0.904,3.703,2.299c0.487,1.396,0.362,2.291-0.13,2.291
		c-0.562,0-9.959,0-10.725,0c-0.77,0-0.757-1.352-0.697-2.062c0.059-0.71-0.086-2.541,0.414-2.259c0,0,2.102,0.382,3.309,0.315
		C101.496,306.779,104.415,306.256,104.415,306.256z"/>
</g>
<g id="top_-_3">
	<path fill="#066B86" d="M120.77,208.625h-1.442h-49.49h-1.446c-10.299,0-12.014,8.244-11.554,23.248
		c0.455,14.85,4.306,37.827,4.306,37.827l10.59-0.195c0,0-1.971-27.849-1.793-29.295c0.463-3.767,1.69-3.185,1.69-3.185
		l3.272,25.875c0,0,2.481,6.432,19.678,6.432c17.195,0,19.679-6.432,19.679-6.432l3.271-25.875c0,0,1.229-0.582,1.691,3.185
		c0.178,1.446-1.795,29.295-1.795,29.295l10.59,0.195c0,0,3.852-22.978,4.311-37.827
		C132.784,216.869,131.068,208.625,120.77,208.625z"/>
	<path fill="#FFFFFF" d="M78.441,208.625c0.016,0.1,0.021,0.189,0.041,0.29c2.617,14.894,16.193,36.132,16.193,36.132
		c0.083-0.094,13.571-21.238,16.19-36.132c0.019-0.101,0.024-0.19,0.04-0.29H78.441z"/>
	<circle fill="#066B86" cx="94.667" cy="253.284" r="1.191"/>
	<circle fill="#066B86" cx="94.667" cy="259.398" r="1.191"/>
	<path fill="#066B86" d="M98.805,220.305c0-4.236-4.104-9.979-4.104-9.979l-0.056-0.018c0,0-4.106,5.743-4.106,9.979
		c0,1.144,1.301,3.312,2.542,4.013c-0.627,1.52-1.624,9.264-2.438,14.949c2.321,4.115,4.034,6.796,4.034,6.796
		c0.029-0.032,1.729-2.69,4.028-6.764c-0.812-5.691-1.812-13.444-2.441-14.968C97.502,223.617,98.805,221.447,98.805,220.305z"/>
</g>
<g id="BALD_2_">
	<path fill="#ECAD5E" d="M156.686,122.724c1.4-9.476,4.689-16.967,3.146-35.637c-1.021-12.361-11.014-39.508-44.454-47.646
		c-6.543-2.328-13.586-3.607-20.928-3.607c-7.345,0-14.386,1.279-20.929,3.607C40.078,47.58,30.089,74.726,29.066,87.087
		c-1.553,18.748,1.771,26.224,3.162,35.756c-6.33,1.689-10.609,7.818-9.777,14.503l1.672,13.429
		c0.854,6.867,6.792,11.856,13.57,11.673c0.818,6.884,1.551,12.786,2.049,16.851c1.988,16.219,7.551,19.557,20.43,28.145
		c12.879,8.586,21.467,13.355,34.277,13.355c12.81,0,21.396-4.771,34.275-13.355c12.879-8.588,18.438-11.926,20.43-28.145
		c0.5-4.07,1.234-9.984,2.055-16.883c6.956,0.414,13.132-4.629,14.004-11.641l1.672-13.429
		C167.732,130.512,163.249,124.246,156.686,122.724z"/>
</g>
<g id="FACE_2_">
	<circle opacity="0.7" fill="#020303" enable-background="new    " cx="78.486" cy="135.092" r="4.252"/>
	<circle opacity="0.7" fill="#020303" enable-background="new    " cx="111.927" cy="135.092" r="4.252"/>
	<g opacity="0.2">
		<path fill="#1E1E1C" d="M94.898,178.102h-0.883c-7.701,0-11.394-3.289-11.547-3.429c-0.611-0.558-0.654-1.507-0.097-2.118
			c0.558-0.613,1.507-0.656,2.119-0.098c0.021,0.018,3.073,2.645,9.524,2.645h0.883c6.445,0,9.496-2.619,9.524-2.645
			c0.61-0.559,1.562-0.516,2.119,0.098c0.558,0.611,0.515,1.562-0.099,2.118C106.292,174.812,102.6,178.102,94.898,178.102z"/>
	</g>
</g>
<g id="snit_-_3">
	<path fill="#975197" d="M29.669,123.806c0,0-0.467-21.897-1.478-29.099c-1.078-7.705,1.201-25.727,6.884-33.508
		c5.68-7.781,15.309-21.35,39.396-24.271c39.844-4.831,63.557-8.969,66.149-23.234c3.139,26.237-3.812,31.623-3.812,31.623
		s2.404,1.23,8.984,6.372c8.459,6.611,17.809,20.139,16.049,38.229c-1.686,17.344-1.203,34.094-1.688,34.147
		c-0.482,0.053-1.854-0.814-2.331-0.235c-0.48,0.579-1.871,1.602-3.119,23.75c-0.295,2.574-1.785,2.658-1.761,1.369
		c0.865-43.611-6.075-44.486-5.752-51.993c0.371-8.581,4.845-22.484-2.393-32.037c-9.557-12.619-22.734,1.804-48.738,1.804
		s-45.838-13.378-51.459-3.437s-2.485,25.521-2.057,29.388c1.178,10.601-6.299,20.156-5.971,30.895
		c0.301,9.846,0.711,19.627,0.434,24.012c-0.246,3.875-1.75,2.959-1.938,0c-1.775-27.76-3.83-24.36-3.83-24.36L29.669,123.806z"/>
</g>
</svg>
