<?xml version="1.0" encoding="utf-8"?>
<!-- Generator: Adobe Illustrator 16.0.4, SVG Export Plug-In . SVG Version: 6.00 Build 0)  -->
<!DOCTYPE svg PUBLIC "-//W3C//DTD SVG 1.1//EN" "http://www.w3.org/Graphics/SVG/1.1/DTD/svg11.dtd">
<svg version="1.1" id="Laag_1" xmlns="http://www.w3.org/2000/svg" xmlns:xlink="http://www.w3.org/1999/xlink" x="0px" y="0px"
	 width="190px" height="340px" viewBox="0 0 190 340" enable-background="new 0 0 190 340" xml:space="preserve">
<path fill="#37BFF0" d="M128.164,275.002c-0.188-2.041-0.857-5.336-0.857-5.336s2.562-19.166,2.307-22.791
	c-0.254-3.625,1.225-25.625-3.717-29.25c-4.938-3.625-10.942-5.879-13.483-9.129c-2.542-3.25-32.934-3.25-35.476,0
	c-2.541,3.25-8.547,5.504-13.486,9.129s-3.464,25.625-3.718,29.25c-0.255,3.625,2.306,22.791,2.306,22.791s-0.67,3.296-0.857,5.336
	c-0.188,2.04,1.888,5.9,5.846,5.9c4.013,0,4.875-4.061,4.875-5.922c0-1.86-1.762-5.479-1.762-5.479
	c-0.763-5.479-1.242-24.877-0.987-28.877c0.254-4,0.397-7.25,3.066-7c2.669,0.25,4.211,13.875,4.846,17.75
	c0.631,3.876,2.68,13.626,2.68,13.626l0.012,0.001c0.006,0.026,2.702,11.447,3.591,18.886c0.342,2.854,1.558,15.844,2.235,20.795
	c0.001,0.02-0.006,0.028-0.004,0.045c0.065,0.711-0.23,1.668-1.21,2.209c-1.146,0.637-1.914,0.875-1.914,2.58
	c0,0.739,0.479,1.33,2.33,1.33c1.505,0,5.154,0,6.35,0c1.24,0,1.665-1.138,1.665-2.062c0-1.394-0.614-1.777-0.614-3.783l0,0
	c0.41-5.78-0.147-19.162-0.147-21.112c0-2.139,0.481-11.709,2.633-11.727c2.153,0.018,2.634,9.588,2.634,11.727
	c0,1.95-0.558,15.332-0.146,21.112c0,0,0,0,0,0.001c0,2.006-0.614,2.391-0.614,3.783c0,0.925,0.428,2.062,1.665,2.062
	c1.192,0,4.847,0,6.353,0c1.851,0,2.33-0.593,2.33-1.332c0-1.705-0.771-1.945-1.914-2.578c-0.979-0.543-1.275-1.498-1.211-2.209
	c0.002-0.02-0.004-0.029-0.004-0.045c0.678-4.953,1.895-17.942,2.233-20.795c0.892-7.439,3.585-18.861,3.592-18.889l0.013-0.001
	c0,0,2.049-9.75,2.686-13.625c0.635-3.875,2.176-17.5,4.845-17.75s2.812,3,3.065,7c0.255,4-0.225,23.396-0.987,28.877
	c0,0-1.763,3.618-1.763,5.479c0,1.862,0.861,5.92,4.875,5.92C126.275,280.902,128.354,277.042,128.164,275.002z"/>
<path opacity="0.05" fill="#1E1E1C" enable-background="new    " d="M112.41,208.496c-2.542-3.25-32.934-3.25-35.476,0
	c-1.437,1.838-2.622,3.357-6.012,4.986c8.465,6.342,13.826,9.772,23.518,9.772c9.762,0,15.158-3.479,23.699-9.907
	C114.855,211.77,113.807,210.283,112.41,208.496z"/>
<g id="bottom_-_2_1_">
	<path fill="#78B47B" d="M94.667,263.441c-5.205,0-15.727-1.088-15.727-1.088s3.519,14.084,4.41,21.53
		c0.374,3.117,1.423,12.958,1.801,22.369c1.188,0.489,4.508,1.458,7.274,0.271c0.528-5.256-0.038-20.594-0.038-22.64
		c0-2.138,0.88-6.724,2.286-6.724c1.224,0,1.937,4.585,1.937,6.724c0,2.046-0.154,17.384,0.371,22.64
		c2.771,1.188,6.056,0.256,7.24-0.233c0.422-9.211,1.401-19.287,1.775-22.403c0.891-7.449,4.408-21.533,4.408-21.533
		S99.871,263.441,94.667,263.441z"/>
</g>
<g id="top_-_2_1_">
	<path fill="#78B47B" d="M109.557,211.777h-2.842c0,11.171,0.221,20.658-12.043,20.658c-12.691,0-11.796-9.182-12.047-20.658h-3.841
		c0,0,5.628,32.908-3.423,32.908c0.512,3.271,1.713,24.641,1.713,24.641c9.577,3.08,17.594,2.943,17.599,2.943
		c0.005,0,8.022,0.137,17.601-2.943c0,0,1.903-22.672,1.903-24.812C107.434,244.516,109.557,211.777,109.557,211.777z"/>
</g>
<g id="BALD_5_">
	<path fill="#37BFF0" d="M156.686,122.725c1.4-9.477,4.689-16.968,3.146-35.638c-1.021-12.36-11.014-39.508-44.454-47.646
		c-6.543-2.328-13.586-3.607-20.928-3.607c-7.344,0-14.385,1.279-20.929,3.607C40.078,47.58,30.089,74.727,29.066,87.087
		c-1.552,18.748,1.771,26.224,3.162,35.756c-6.33,1.689-10.609,7.818-9.777,14.503l1.672,13.43
		c0.854,6.867,6.792,11.855,13.57,11.673c0.818,6.884,1.551,12.786,2.049,16.851c1.988,16.219,7.551,19.557,20.43,28.145
		c12.879,8.586,21.467,13.355,34.277,13.355c12.81,0,21.396-4.771,34.275-13.355c12.879-8.588,18.438-11.926,20.43-28.145
		c0.5-4.07,1.234-9.984,2.055-16.883c6.956,0.414,13.132-4.629,14.004-11.641l1.672-13.43
		C167.732,130.512,163.249,124.246,156.686,122.725z"/>
</g>
<g id="FACE_7_">
	<circle opacity="0.7" fill="#020303" enable-background="new    " cx="78.487" cy="135.092" r="4.252"/>
	<circle opacity="0.7" fill="#020303" enable-background="new    " cx="111.927" cy="135.092" r="4.252"/>
	<g opacity="0.2">
		<path fill="#1E1E1C" d="M94.899,178.102h-0.884c-7.701,0-11.393-3.289-11.546-3.429c-0.612-0.558-0.655-1.507-0.097-2.118
			c0.558-0.613,1.507-0.656,2.119-0.098c0.021,0.018,3.073,2.645,9.524,2.645h0.884c6.445,0,9.496-2.619,9.524-2.645
			c0.61-0.559,1.562-0.516,2.119,0.098c0.558,0.611,0.515,1.562-0.099,2.118C106.292,174.812,102.6,178.102,94.899,178.102z"/>
	</g>
</g>
<g id="mst_-_3">
	<path fill="#066B86" d="M103.073,160.117c0,0-4.402,0.336-8.406,0.336c-4.109,0-8.406-0.336-8.406-0.336
		c-0.738,3.556-2.195,6.926-1.833,8.535c0,0,0.001,0.003,0.002,0.005c0.377-0.319,5.27,1.25,10.236,1.25
		c5.299,0,9.859-1.569,10.236-1.25c0-0.002,0.002-0.003,0.002-0.005C105.27,167.043,103.811,163.672,103.073,160.117z"/>
</g>
<g id="snit_-_4">
	<g>
		<path fill="#066C87" d="M172.173,142.643c0.577-6.865,5.733-8.896,4.952-17.283c-1.652-17.711-6.831-13.988-6.928-24.086
			c-0.098-10.099,1.938-21.383-13.068-42.508c-6.066-8.541-14.181-14.586-22.816-18.761c-2.479-3.276-10.017-7.187-31.436-8.06
			c-1.845-0.121-3.611-0.18-5.277-0.18h-8.01c-17,0-38.953,5.207-53.959,26.332c-15.007,21.125-12.33,32.767-12.428,42.863
			c-0.098,10.098-13.111,15.035-9.896,32.531c1.471,8.006,5.91,10.25,6.391,17.122c0.348,4.973-4.541,11.81,2.223,20.401
			c4.402,5.592-3.399,18.267-3.399,18.267s4.683-0.78,9.425-4.376c0,0,7.417,2.455,5.865,13.568
			c-1.587,11.355-7.453,16.426-7.453,16.426s20.334-0.248,26.592-4.771c0,0,1.488,2.423-0.328,4.922c0,0,2.744-1.078,8.723-6.835
			c-0.391-0.259-0.774-0.51-1.173-0.774c-12.879-8.588-18.441-11.926-20.43-28.146c-0.498-4.062-1.23-9.967-2.049-16.851
			c-6.778,0.184-12.717-4.807-13.57-11.674l-1.672-13.429c-0.832-6.685,3.447-12.813,9.777-14.503
			c-0.508-3.48-1.272-6.688-1.964-10.268c0.221-0.201,0.439-0.4,0.674-0.613c2.135-0.523,33.7-8.311,61.926-18.312
			C113.708,86.26,124.387,69.843,129.246,58l0,0c23.137,14.241,20.398,33.711,20.715,45.384c0.249,9.214,4.814,16.574,6.734,19.276
			c-0.004,0.021-0.008,0.042-0.01,0.062c0.021,0.006,0.045,0.014,0.065,0.02c0.479,0.671,0.788,1.047,0.788,1.047l1.083,0.061
			c5.703,2.08,9.04,7.215,8.259,13.496l-1.672,13.428c-0.872,7.013-7.048,12.056-14.004,11.642
			c-0.82,6.897-1.557,12.812-2.057,16.883c-1.986,16.218-7.551,19.558-20.43,28.144c-0.226,0.149-0.438,0.289-0.66,0.438
			c6.787,3.896,17.18,2.786,17.18,2.786l-0.141-4.673c6.104,5.606,19.732,4.903,19.732,4.903s-6.756-6.398-7.453-12.42
			c-0.791-6.824,4.064-12.777,9.059-19.828c0.642,1.162,1.725,2.918,2.812,3.68c-1.197-4.391,0.869-9.008,1.812-10.787
			c0.142-0.248,0.279-0.497,0.42-0.749c0.002-0.005,0.015-0.021,0.015-0.021l-0.005,0.004c1.414-2.582,2.646-5.338,3.515-8.35
			C177.924,152.283,171.596,149.506,172.173,142.643z M132.962,46.48c0.082,0.049,0.165,0.097,0.247,0.146
			c-0.146,0.002-0.293,0.005-0.439,0.008C132.837,46.581,132.896,46.533,132.962,46.48z"/>
	</g>
</g>
</svg>
