<?xml version="1.0" encoding="utf-8"?>
<!-- Generator: Adobe Illustrator 16.0.4, SVG Export Plug-In . SVG Version: 6.00 Build 0)  -->
<!DOCTYPE svg PUBLIC "-//W3C//DTD SVG 1.1//EN" "http://www.w3.org/Graphics/SVG/1.1/DTD/svg11.dtd">
<svg version="1.1" id="Laag_1" xmlns="http://www.w3.org/2000/svg" xmlns:xlink="http://www.w3.org/1999/xlink" x="0px" y="0px"
	 width="190px" height="340px" viewBox="0 0 190 340" enable-background="new 0 0 190 340" xml:space="preserve">
<path fill="#066B86" d="M128.164,275.002c-0.188-2.041-0.857-5.336-0.857-5.336s2.562-19.166,2.307-22.791
	c-0.254-3.625,1.225-25.625-3.717-29.25c-4.938-3.625-10.942-5.879-13.483-9.129c-2.542-3.25-32.935-3.25-35.476,0
	s-8.547,5.504-13.486,9.129s-3.465,25.625-3.719,29.25s2.307,22.791,2.307,22.791s-0.67,3.296-0.857,5.336s1.889,5.9,5.846,5.9
	c4.014,0,4.875-4.061,4.875-5.922c0-1.86-1.762-5.479-1.762-5.479c-0.763-5.479-1.242-24.877-0.986-28.877
	c0.254-4,0.396-7.25,3.066-7c2.668,0.25,4.211,13.875,4.846,17.75c0.631,3.876,2.68,13.626,2.68,13.626l0.012,0.001
	c0.006,0.026,2.702,11.447,3.592,18.886c0.342,2.854,1.558,15.844,2.234,20.795c0.001,0.02-0.006,0.028-0.004,0.045
	c0.064,0.711-0.23,1.668-1.21,2.209c-1.146,0.637-1.914,0.875-1.914,2.58c0,0.739,0.479,1.33,2.33,1.33c1.505,0,5.153,0,6.351,0
	c1.239,0,1.664-1.138,1.664-2.062c0-1.394-0.613-1.777-0.613-3.783l0,0c0.41-5.78-0.147-19.162-0.147-21.112
	c0-2.139,0.481-11.709,2.633-11.727c2.153,0.018,2.634,9.588,2.634,11.727c0,1.95-0.558,15.332-0.146,21.112c0,0,0,0,0,0.001
	c0,2.006-0.614,2.391-0.614,3.783c0,0.925,0.428,2.062,1.665,2.062c1.192,0,4.847,0,6.353,0c1.851,0,2.33-0.593,2.33-1.332
	c0-1.705-0.771-1.945-1.914-2.578c-0.979-0.543-1.275-1.498-1.211-2.209c0.002-0.02-0.004-0.029-0.004-0.045
	c0.678-4.953,1.895-17.942,2.233-20.795c0.892-7.439,3.585-18.861,3.592-18.889l0.013-0.001c0,0,2.049-9.75,2.686-13.625
	c0.635-3.875,2.176-17.5,4.845-17.75s2.812,3,3.065,7c0.255,4-0.225,23.396-0.987,28.877c0,0-1.763,3.618-1.763,5.479
	c0,1.862,0.861,5.92,4.875,5.92C126.275,280.902,128.354,277.042,128.164,275.002z"/>
<path opacity="0.05" fill="#1E1E1C" enable-background="new    " d="M112.41,208.496c-2.542-3.25-32.934-3.25-35.477,0
	c-1.437,1.838-2.621,3.357-6.012,4.986c8.465,6.342,13.826,9.772,23.518,9.772c9.763,0,15.158-3.479,23.699-9.907
	C114.855,211.77,113.807,210.283,112.41,208.496z"/>
<g id="bottom_-_1">
	<path fill="#CA5C50" d="M94.667,262.441c-5.205,0-15.91-0.442-15.91-0.442s1.701,14.44,2.591,21.888
		c0.375,3.117,2.596,19.336,3.437,22.95c1.188,0.489,4.917,1.115,7.684-0.073c0.528-5.257,1.437-20.834,1.437-22.877
		c0-2.138-0.066-2.722,0.768-2.722c0.539,0,0.494,0.583,0.494,2.722c0,2.043,0.832,17.621,1.359,22.877
		c2.769,1.188,6.849,0.562,8.035,0.072c0.84-3.613,3.062-19.833,3.438-22.949c0.891-7.449,2.591-21.889,2.591-21.889
		S99.871,262.441,94.667,262.441z"/>
</g>
<g id="feet_-_3">
	<path fill="#F5F5F5" d="M84.991,306.256c-1.866,0.204-3.216,0.904-3.703,2.299c-0.488,1.396-0.364,2.291,0.129,2.291
		c0.562,0,9.958,0,10.724,0c0.767,0,0.754-1.352,0.696-2.062s0.087-2.541-0.414-2.259c0,0-2.101,0.382-3.308,0.315
		C87.908,306.779,84.991,306.256,84.991,306.256z"/>
	<path fill="#F5F5F5" d="M104.415,306.256c1.864,0.204,3.215,0.904,3.703,2.299c0.487,1.396,0.362,2.291-0.13,2.291
		c-0.562,0-9.959,0-10.725,0c-0.77,0-0.757-1.352-0.697-2.062c0.059-0.71-0.086-2.541,0.414-2.259c0,0,2.102,0.382,3.309,0.315
		C101.496,306.779,104.415,306.256,104.415,306.256z"/>
	<path fill="#78B47B" d="M92.861,310.646c0,0.238-0.194,0.437-0.436,0.437H81.42c-0.24,0-0.436-0.194-0.436-0.437l0,0
		c0-0.24,0.195-0.438,0.436-0.438h11.005C92.667,310.211,92.861,310.406,92.861,310.646L92.861,310.646z"/>
	<circle fill="#78B47B" cx="90.686" cy="308.551" r="0.978"/>
	<path fill="#78B47B" d="M108.424,310.646c0,0.238-0.195,0.437-0.438,0.437H96.98c-0.239,0-0.438-0.194-0.438-0.437l0,0
		c0-0.24,0.195-0.438,0.438-0.438h11.006C108.229,310.211,108.424,310.406,108.424,310.646L108.424,310.646z"/>
	<circle fill="#78B47B" cx="98.414" cy="308.551" r="0.978"/>
</g>
<g id="top_-_5_2_">
	<path fill="#37BFF0" d="M120.77,208.625h-1.442h-49.49h-1.446c-10.299,0-12.014,8.244-11.554,23.248
		c0.455,14.85,3.306,38.828,3.306,38.828l10.59-0.195c0,0-0.969-28.85-0.793-30.295c0.463-3.768,1.69-3.184,1.69-3.184l3.272,25.875
		c0,0,2.481,6.431,19.678,6.431c17.195,0,19.679-6.431,19.679-6.431l3.271-25.875c0,0,1.229-0.584,1.691,3.184
		c0.178,1.446-0.793,30.295-0.793,30.295l10.588,0.195c0,0,2.852-23.979,3.311-38.828
		C132.784,216.869,131.068,208.625,120.77,208.625z"/>
	<path fill="#FFFFFF" d="M78.441,208.625c0.016,0.1,0.021,0.189,0.041,0.29c2.617,14.894,16.193,36.132,16.193,36.132
		c0.083-0.094,13.571-21.238,16.19-36.132c0.019-0.101,0.024-0.19,0.04-0.29H78.441z"/>
	<path opacity="0.1" fill="#1E1E1C" enable-background="new    " d="M87.34,243.332c0,0-5.607-5.925-7.811-9.796
		c-0.535-0.94-1.162-1.908-1.856-3.013c-0.17-0.271,0.775-2.078,0.599-2.364c-0.127-0.206-1.838,0.051-1.969-0.166
		c-1.787-2.961-3.271-10.173-4.004-13.507c-1.724-7.836-2.006-6.715,0.965-0.316c1.084,2.335,2.453,9.497,3.744,12.952
		c0.11,0.295,2.488-0.099,2.641,0.18c0.131,0.239-1.021,2.99-0.889,3.23C81.699,235.857,84.786,240.795,87.34,243.332z"/>
	<path opacity="0.1" fill="#1E1E1C" enable-background="new    " d="M101.424,243.332c0,0,5.608-5.925,7.811-9.796
		c0.535-0.94,1.162-1.908,1.856-3.013c0.171-0.271-0.774-2.078-0.598-2.364c0.127-0.206,1.838,0.051,1.968-0.166
		c1.787-2.961,3.271-10.173,4.004-13.507c1.725-7.836,2.006-6.715-0.965-0.316c-1.084,2.335-2.452,9.497-3.744,12.952
		c-0.109,0.295-2.488-0.099-2.641,0.18c-0.131,0.239,1.021,2.99,0.889,3.23C107.064,235.857,103.979,240.795,101.424,243.332z"/>
	<circle fill="#066B86" cx="94.667" cy="253.284" r="1.191"/>
	<circle fill="#066B86" cx="94.667" cy="259.398" r="1.191"/>
	<path fill="#066B86" d="M95.164,222.611c0,0-4.307-2.816-6.141-2.816c-1.469,0-1.82,1.17-1.82,2.653s0.523,5.088,2.186,5.088
		s5.775-3.871,5.775-3.871V222.611z"/>
	<path fill="#066B86" d="M94.17,222.611c0,0,4.307-2.816,6.139-2.816c1.469,0,1.819,1.17,1.819,2.653s-0.524,5.088-2.185,5.088
		c-1.659,0-5.774-3.871-5.774-3.871L94.17,222.611L94.17,222.611z"/>
</g>
<g id="BALD_3_">
	<path fill="#066B86" d="M156.686,122.725c1.4-9.477,4.689-16.968,3.146-35.638c-1.021-12.36-11.014-39.508-44.454-47.646
		c-6.543-2.328-13.586-3.607-20.928-3.607c-7.345,0-14.386,1.279-20.929,3.607C40.078,47.58,30.089,74.727,29.066,87.087
		c-1.553,18.748,1.771,26.224,3.162,35.756c-6.33,1.689-10.609,7.818-9.777,14.503l1.672,13.43
		c0.854,6.867,6.792,11.855,13.57,11.673c0.818,6.884,1.551,12.786,2.049,16.851c1.988,16.219,7.551,19.557,20.43,28.145
		c12.879,8.586,21.467,13.355,34.277,13.355c12.81,0,21.396-4.771,34.275-13.355c12.879-8.588,18.438-11.926,20.43-28.145
		c0.5-4.07,1.234-9.984,2.055-16.883c6.956,0.414,13.132-4.629,14.004-11.641l1.672-13.43
		C167.732,130.512,163.249,124.246,156.686,122.725z"/>
</g>
<g id="FACE_5_">
	<circle opacity="0.7" fill="#020303" enable-background="new    " cx="78.486" cy="135.092" r="4.252"/>
	<circle opacity="0.7" fill="#020303" enable-background="new    " cx="111.927" cy="135.092" r="4.252"/>
	<g opacity="0.2">
		<path fill="#1E1E1C" d="M94.898,178.102h-0.883c-7.701,0-11.394-3.289-11.547-3.429c-0.611-0.558-0.654-1.507-0.097-2.118
			c0.558-0.613,1.507-0.656,2.119-0.098c0.021,0.018,3.073,2.645,9.524,2.645h0.883c6.445,0,9.496-2.619,9.524-2.645
			c0.61-0.559,1.562-0.516,2.119,0.098c0.558,0.611,0.515,1.562-0.099,2.118C106.292,174.812,102.6,178.102,94.898,178.102z"/>
	</g>
</g>
<g id="snit_-_6_1_">
	<path fill="#975197" d="M164.014,95.42c-0.771-2.167-4.005-7.281-4.035-6.359c-0.115,3.383-4.758,14.586-5.578,19.76
		c-1.264,7.972-1.93,13.681-2.451,40.128c-0.025,1.288,2.466,1.204,2.761-1.369c1.248-22.147,2.642-23.17,3.119-23.75
		c0.479-0.579,4.062,1.388,4.062,1.388c0.281-0.031,2.325-8.811,2.58-17.109C164.59,104.125,165.753,100.303,164.014,95.42z"/>
	<path fill="#975197" d="M25.296,95.42c0.772-2.167,4.004-7.281,4.035-6.359c0.114,3.383,4.756,14.586,5.576,19.76
		c1.264,7.972,1.931,13.681,2.454,40.128c0.025,1.288-2.465,1.204-2.76-1.369c-1.248-22.147-2.64-23.17-3.119-23.75
		c-0.479-0.579-4.062,1.388-4.062,1.388c-0.282-0.031-2.327-8.811-2.581-17.109C24.719,104.125,23.557,100.303,25.296,95.42z"/>
</g>
</svg>
