<?xml version="1.0" encoding="utf-8"?>
<!-- Generator: Adobe Illustrator 16.0.4, SVG Export Plug-In . SVG Version: 6.00 Build 0)  -->
<!DOCTYPE svg PUBLIC "-//W3C//DTD SVG 1.1//EN" "http://www.w3.org/Graphics/SVG/1.1/DTD/svg11.dtd">
<svg version="1.1" id="Laag_1" xmlns="http://www.w3.org/2000/svg" xmlns:xlink="http://www.w3.org/1999/xlink" x="0px" y="0px"
	 width="190px" height="340px" viewBox="0 0 190 340" enable-background="new 0 0 190 340" xml:space="preserve">
<g id="Laag_14_1_">
	<path fill="#CA5C50" d="M127.633,270.546c-0.717-1.917-2.191-4.926-2.191-4.926s-0.077-0.304-0.215-0.836l0,0
		c0,0,1.433-13.681,0.193-32.318c-0.88-13.213-7.574-18.528-8.505-18.981s-21.931-7.424-21.931-7.424
		c-0.016,0-0.043,0.014-0.043,0.014s-22.729,7.652-21.923,7.41c0.806-0.243-7.185,1.352-8.505,19.982s0.191,32.318,0.191,32.318
		c-0.137,0.533-0.215,0.836-0.215,0.836s-1.476,3.009-2.191,4.926c-0.719,1.917,0.289,5.174,3.695,6.139
		c3.453,0.979,5.029-1.754,5.537-3.545c0.506-1.791-0.023-5.703-0.023-5.703c0.061-0.393-1.311-13.883,0.355-22.887
		c1.154-6.234,2.791-10.925,4.287-10.925c2.399,0,3.424,9.22,3.12,14.747c-0.215,3.91-1.573,11.958-0.812,19.635
		c0.761,7.678,5.5,17.051,8.225,35.674c0,0.019-0.006,0.029-0.006,0.047c0.061,0.711-0.205,1.666-1.08,2.209
		c-1.027,0.633-1.713,0.873-1.713,2.578c0,0.74,0.428,1.33,2.084,1.33c1.346,0,4.609,0,5.681,0c1.108,0,1.487-1.137,1.487-2.062
		c0-1.394-0.549-1.777-0.549-3.783c0.365-5.78,1.458-16.36,1.075-20.521c-0.681-7.43,0.346-11.289,1.302-11.289
		c1.754,0,2.894,3.42,2.545,11.25c-0.203,4.572-0.334,14.779,0.03,20.561c0,2.006-0.549,2.391-0.549,3.783
		c0,0.926,0.379,2.062,1.488,2.062c1.069,0,4.334,0,5.68,0c1.656,0,2.084-0.591,2.084-1.33c0-1.705-0.687-1.945-1.712-2.58
		c-0.876-0.541-1.141-1.498-1.081-2.209c0-0.017-0.006-0.027-0.005-0.045c3.089-19.447,7.463-27.998,8.225-35.675
		c0.76-7.677-0.793-15.725-1.009-19.635c-0.304-5.528,0.722-14.747,3.121-14.747c1.646,0,4.088,5.542,4.955,11.489
		c1.351,9.26-0.374,20.929-0.313,21.321c0,0-0.529,3.91-0.022,5.701c0.508,1.793,2.083,4.523,5.537,3.545
		C127.344,275.719,128.35,272.463,127.633,270.546z"/>
	<path opacity="0.05" fill="#CA5C50" enable-background="new    " d="M94.984,206.061c-0.016,0-0.043,0.014-0.043,0.014
		s-11.42,3.846-17.781,5.998c6.244,4.474,12.803,7.182,17.908,7.182c4.906,0,11.064-2.727,16.927-7.495
		C105.193,209.552,94.984,206.061,94.984,206.061z"/>
</g>
<g id="feed_-_2_1_">
	<path fill="#010202" d="M93.115,308.115c0,0,0.223,0.49,0.223,1.554s-0.041,2.519-0.041,2.519h-0.875c0,0,0.057-1.506-0.799-1.24
		c-3.996,1.24-7.613,1.24-9.738,1.24s0.498-2.697,2.436-4.27c0,0,0.039,1.916,2.332,2.041
		C88.943,310.084,93.115,308.115,93.115,308.115z"/>
	<path fill="#010202" d="M97.035,308.115c0,0-0.222,0.49-0.222,1.554s0.04,2.519,0.04,2.519h0.875c0,0-0.057-1.506,0.799-1.24
		c3.996,1.24,7.613,1.24,9.738,1.24s-0.498-2.697-2.437-4.27c0,0,0.962,1.916-1.33,2.041S97.035,308.115,97.035,308.115z"/>
</g>
<g id="bottom_-_1_1_">
	<path fill="#010202" d="M94.939,260.439c-5.764,0.275-16.979-0.994-16.979-0.994s-0.051,9.053,0.669,12.912
		c0.72,3.858,5.751,19.082,6.315,23.146c0.566,4.064,1.609,7.62,1.547,8.809c-0.062,1.188,2.438,1.375,3.125,1.375
		s3.156-0.131,3.156-1.068s1.146-15.79,1.198-17.859c0.054-2.068,0.179-13.025,1.165-13.025c2.074,0,2.053,11.535,2.074,13.097
		c0.021,1.562-0.052,16.079,0.18,18.532c0.062,0.656,1.537,0.449,2.787,0.449s2.984-0.141,3.062-0.766
		c0.072-0.576,1.42-4.824,2.277-9.589c0.988-5.483,5.09-19.083,6.057-23.257c1.369-5.91,0.418-12.535,0.418-12.535
		S103.137,260.047,94.939,260.439z"/>
</g>
<g id="top_-_3_1_">
	<path fill="#78B47B" d="M126.926,237.577c0.195-0.203,0.318-0.478,0.318-0.78c0-0.525-0.367-0.949-0.857-1.074
		c-0.446-3.92-1.203-9.812-1.903-11.807c-1.084-3.083-2.666-7.995-6.666-10.664c-2.063-1.377-4.063-2.25-9.396-2.771l-13.311,9.773
		l-13.307-9.773c-5.332,0.521-7.332,1.396-9.396,2.771c-4,2.669-5.582,7.581-6.666,10.664c-0.701,1.993-1.457,7.887-1.903,11.807
		c-0.489,0.125-0.856,0.549-0.856,1.074c0,0.305,0.122,0.577,0.318,0.78c-0.189,0.231-0.318,0.519-0.318,0.84
		c0,0.399,0.184,0.749,0.461,0.995c0,0.002-0.002,0.01-0.002,0.01s1.578,1.96,5.313,1.96c4.542,0,4.709-1.206,4.709-1.206
		c-0.002-0.005-0.001-0.012-0.003-0.017c0.088-0.161,0.15-0.336,0.15-0.532c0-0.179-0.05-0.342-0.123-0.49
		c0.008-0.037,0.021-0.074,0.031-0.111c0.553-0.073,0.983-0.528,0.983-1.1c0-0.219-0.078-0.41-0.187-0.584
		c0.735-1.121,1.764-2.06,2.483-1.994c1.353,0.123,2.692,6.912,1.886,10.924c-1.527,7.584-0.451,18.594-0.451,18.594
		s11.281,3.949,15.84,3.949l1.191-1.319l1.861,1.319c4.635,0,15.186-4.358,15.186-4.358s-0.318-13.862-1.135-18.708
		c-0.53-3.156,0.893-10.277,2.244-10.398c0.721-0.065,1.748,0.871,2.484,1.993c-0.107,0.173-0.188,0.365-0.188,0.584
		c0,0.57,0.432,1.025,0.983,1.101c0.011,0.035,0.022,0.074,0.032,0.109c-0.074,0.149-0.124,0.312-0.124,0.491
		c0,0.196,0.063,0.371,0.151,0.532c-0.002,0.005-0.002,0.012-0.004,0.017c0,0,0.168,1.206,4.709,1.206
		c3.735,0,5.313-1.96,5.313-1.96s-0.001-0.008-0.001-0.01c0.277-0.246,0.461-0.597,0.461-0.995
		C127.244,238.096,127.115,237.811,126.926,237.577z"/>
	<path opacity="0.05" fill="#020303" enable-background="new    " d="M122.307,241.328c0.207-9.191,0.312-16.624,0.367-22.012
		c-1.066-2.246-2.555-4.527-4.857-6.064c-0.319-0.213-0.639-0.412-0.967-0.602c0.05,5.863,0.117,17.933-0.072,27.576
		c0.092,0.229,0.711,1.154,4.693,1.154C121.77,241.382,122.034,241.352,122.307,241.328z"/>
	<path opacity="0.05" fill="#020303" enable-background="new    " d="M72.408,213.252c-2.303,1.536-3.789,3.814-4.854,6.062
		c0.054,5.388,0.159,12.82,0.367,22.015c0.272,0.022,0.534,0.054,0.834,0.054c4.03,0,4.614-0.947,4.694-1.162
		c-0.189-9.643-0.123-21.709-0.072-27.57C73.048,212.839,72.728,213.039,72.408,213.252z"/>
	<path opacity="0.05" fill="#020303" enable-background="new    " d="M78.791,210.869c0.111,3.799,0.467,14.701,1.3,31.104
		c0.562,11.051,1.054,18.979,1.392,23.963c1.531,0.485,3.443,1.062,5.371,1.572c-0.291-6.462-0.785-17.291-1.229-26.007
		c-0.496-9.813-0.787-22.731-0.904-28.881l-2.918-2.142C80.654,210.592,79.666,210.723,78.791,210.869z"/>
	<path opacity="0.05" fill="#020303" enable-background="new    " d="M108.422,210.479l-2.914,2.142
		c-0.119,6.147-0.408,19.067-0.906,28.882c-0.445,8.762-0.942,19.661-1.231,26.111c1.897-0.555,3.813-1.215,5.384-1.787
		c0.336-4.992,0.826-12.887,1.383-23.854c0.834-16.402,1.188-27.305,1.301-31.104C110.561,210.723,109.572,210.592,108.422,210.479z
		"/>
	<path opacity="0.05" fill="#020303" enable-background="new    " d="M100.434,241.796c-0.248-10.879-0.528-19.334-0.738-24.909
		l-4.584,3.367l-4.59-3.372c0.062,6.767,0.176,16.792,0.359,24.782c0.209,9.133,0.531,20.578,0.715,26.902
		c0.939,0.156,1.789,0.248,2.48,0.248l1.191-1.32l1.861,1.32c0.834,0,1.862-0.144,2.984-0.375
		C100.396,263.857,100.739,255.083,100.434,241.796z"/>
	<path opacity="0.2" fill="#020303" enable-background="new    " d="M122.598,238.939c-3.043,0.625-5.121,0.275-5.892,0.093
		c0.011,0.034,0.022,0.069,0.03,0.104c-0.023,0.049-0.042,0.104-0.061,0.155c1.097,0.97,3.701,0.577,6.041,0.335
		c2.088-0.216,3.953-1.076,4.358-1.795c-0.047-0.088-0.09-0.18-0.151-0.255c0.051-0.054,0.082-0.123,0.123-0.187
		C126.48,237.947,126.377,238.165,122.598,238.939z"/>
	<path opacity="0.2" fill="#020303" enable-background="new    " d="M67.625,238.939c3.043,0.625,5.121,0.275,5.893,0.093
		c-0.01,0.034-0.021,0.069-0.029,0.104c0.023,0.049,0.041,0.104,0.06,0.155c-1.097,0.97-3.7,0.577-6.041,0.335
		c-2.087-0.216-3.952-1.076-4.358-1.795c0.047-0.088,0.09-0.18,0.152-0.255c-0.053-0.054-0.082-0.123-0.123-0.187
		C63.744,237.947,63.848,238.165,67.625,238.939z"/>
	<line fill="none" x1="94.963" y1="220.093" x2="94.963" y2="220.625"/>
	<g opacity="0.05">
		<path fill="#020303" d="M64.953,227.475c-0.412,2.428-0.793,5.452-1.07,7.854c2.172,0.335,6.122,0.914,10.83,1.469
			c0.68-0.861,1.488-1.504,2.088-1.449c0.428,0.039,0.854,0.746,1.211,1.818c5.594,0.594,11.84,1.081,17.297,1.081
			c5.197,0,11.218-0.269,16.74-0.604c0.406-1.317,0.895-2.252,1.375-2.295c0.721-0.064,1.748,0.872,2.483,1.994
			c-0.01,0.016-0.015,0.033-0.024,0.051c4.822-0.334,8.938-0.685,11.309-0.896c-0.11-0.38-0.414-0.674-0.805-0.771
			c-0.271-2.369-0.653-5.455-1.069-7.97c-5.312,0.745-15.711,1.865-30.206,1.865C78.633,229.619,68.756,228.171,64.953,227.475z"/>
		<path fill="#020303" d="M95.111,220.254l-7.051-5.179c-7.042-0.188-12.542-0.642-16.562-1.104
			c-2.407,2.004-3.836,4.83-4.807,7.325c6.551,0.942,18.846,2.501,28.619,2.501c9.473,0,21.683-0.891,28.607-1.469
			c-0.966-2.667-2.395-5.975-5.066-8.26c-4.338,0.43-9.947,0.834-16.69,1.009L95.111,220.254z"/>
		<path fill="#020303" d="M78.869,244.902c-0.041,0.479-0.098,0.94-0.184,1.369c-0.418,2.074-0.64,4.405-0.742,6.697
			c5.611,0.598,11.885,1.088,17.365,1.088c5.144,0,11.094-0.263,16.568-0.596c-0.174-3.029-0.402-5.962-0.697-7.715
			c-0.041-0.242-0.066-0.514-0.086-0.797c-4.562,0.283-9.914,0.479-15.982,0.479C88.709,245.43,83.311,245.21,78.869,244.902z"/>
		<path fill="#020303" d="M77.994,261.368c0.106,2.114,0.242,3.496,0.242,3.496s11.279,3.95,15.838,3.95l1.193-1.32l1.859,1.32
			c4.635,0,15.187-4.359,15.187-4.359s-0.028-1.219-0.089-3.051c-4.801,0.322-10.533,0.554-17.113,0.554
			C88.287,261.958,82.596,261.709,77.994,261.368z"/>
	</g>
	<circle opacity="0.5" fill="#020303" enable-background="new    " cx="95.137" cy="224.074" r="1.005"/>
	<circle opacity="0.5" fill="#020303" enable-background="new    " cx="95.137" cy="232.999" r="1.005"/>
	<circle opacity="0.5" fill="#020303" enable-background="new    " cx="95.137" cy="241.924" r="1.005"/>
	<circle opacity="0.5" fill="#020303" enable-background="new    " cx="95.137" cy="250.849" r="1.005"/>
	<circle opacity="0.5" fill="#020303" enable-background="new    " cx="95.137" cy="259.772" r="1.005"/>
	<g opacity="0.2">
		<polygon fill="#020303" points="94.379,219.716 90.18,224.622 84.441,212.656 83.85,212.873 90.01,225.671 94.928,220.119 		"/>
		<polygon fill="#020303" points="106.629,212.88 106.023,212.656 99.982,224.316 95.705,219.816 95.184,220.2 100.23,225.646 		"/>
	</g>
</g>
<g id="head_1_">
	<path fill="#CA5C50" d="M156.85,127.516c1.392-9.41,4.656-16.848,3.123-35.387c-1.019-12.273-10.938-39.229-44.144-47.311
		c-6.497-2.314-13.487-3.582-20.78-3.582c-7.287,0-14.281,1.268-20.779,3.582C41.063,52.9,31.145,79.855,30.129,92.129
		c-1.541,18.617,1.76,26.039,3.14,35.506c-6.284,1.676-10.532,7.762-9.707,14.4l4.64,13.334c0.902,7.248,4.531,12.396,11.785,11.496
		c0.527-0.066,1.041-0.17,1.547-0.295c2.498,15.995,9.115,27.124,20.478,34.698c12.789,8.523,23.702,15.491,33.04,15.491
		c9.643,0,21.422-8.411,33.041-18.474c10.836-9.381,17.854-16.725,20.45-31.849c0.649,0.187,1.317,0.34,2.009,0.427
		c7.254,0.899,10.885-4.248,11.787-11.496l4.639-13.334C167.82,135.249,163.367,129.027,156.85,127.516z"/>
</g>
<g id="FACE_1_">
	<circle fill="#121212" cx="79.479" cy="143.1" r="4.252"/>
	<circle fill="#121212" cx="112.917" cy="143.1" r="4.252"/>
	<g opacity="0.2">
		<path fill="#020303" d="M95.889,186.107h-0.883c-7.699,0-11.393-3.287-11.545-3.428c-0.611-0.559-0.654-1.508-0.098-2.119
			c0.559-0.611,1.508-0.653,2.119-0.098c0.021,0.02,3.074,2.645,9.521,2.645h0.885c6.445,0,9.496-2.617,9.524-2.645
			c0.61-0.556,1.562-0.515,2.119,0.098s0.515,1.562-0.099,2.119C107.282,182.82,103.59,186.107,95.889,186.107z"/>
	</g>
</g>
<g id="snit_-_5">
	<path fill="#F5F5F5" d="M167.079,90.167c-9.729-25.296-34.849-42.703-55.692-47.199c-20.84-4.496-33.466,0.269-46.086,4.686
		C32.611,59.095,25.746,89.395,23.459,98.278c-6.555,25.451-1.184,53.188,1.055,68.558c0.654,4.496-0.023,16.255-0.023,16.255
		l9.535,2.8l1.014-3.41l0.695,3.266l2.623-0.059l1.041-2.687l1.658,3.106l7.605,1.322c-2.44-4.533-5.336-11.642-6.521-17.5
		c-3.879-19.849-2.165-48.202-2.165-48.202s4.902-0.737,10.015-1.478l2.365-14.45l0.594,13.997c9.25-1.298,20.867-2.707,32.637-3.29
		h-0.023l1.523-7.406l1.119,7.295c1.779-0.063,3.51-0.101,5.158-0.101c0,0,1.396-11.845,1.748-12.28
		c0.35,0.435,2.128,11.947,2.128,11.947c3.056,0,11.153,0.544,11.153,0.544l1.522-7.406l1.089,7.539
		c0.353,0.016,9.355,0.937,13.68,1.418l0.873-13.776l1.933,14.467c12.728,1.517,23.599,2.978,23.599,2.978l-2.546,44.709
		c-1.339,7.796-5.756,15.986-9.364,20.993c0,0,5.56-1.735,8.82-2.487l1.455-3.84l0.287,3.976c1.125,0.055,6.373-1.045,6.812-1.045
		l0.736-3.392l0.736,3.41c0.412-0.007,7.703-2.729,7.703-2.729c0.062-0.598-0.373-9.533,0.17-14.224
		C171.152,121.762,173.137,105.917,167.079,90.167z"/>
	<path fill="#F5F5F5" d="M108.506,115.963l0.063-0.311C108.539,115.744,108.516,115.846,108.506,115.963z"/>
</g>
</svg>
