<?xml version="1.0" encoding="utf-8"?>
<!-- Generator: Adobe Illustrator 16.0.4, SVG Export Plug-In . SVG Version: 6.00 Build 0)  -->
<!DOCTYPE svg PUBLIC "-//W3C//DTD SVG 1.1//EN" "http://www.w3.org/Graphics/SVG/1.1/DTD/svg11.dtd">
<svg version="1.1" id="Laag_1" xmlns="http://www.w3.org/2000/svg" xmlns:xlink="http://www.w3.org/1999/xlink" x="0px" y="0px"
	 width="190px" height="340px" viewBox="0 0 190 340" enable-background="new 0 0 190 340" xml:space="preserve">
<path fill="#78B47B" d="M129.164,272.002c-0.188-2.041-0.857-5.336-0.857-5.336s2.562-19.166,2.307-22.791
	c-0.254-3.625,1.225-25.625-3.717-29.25c-4.938-3.625-10.942-5.879-13.483-9.129c-2.542-3.25-32.935-3.25-35.476,0
	s-8.547,5.504-13.486,9.129s-3.465,25.625-3.719,29.25s2.307,22.791,2.307,22.791s-0.67,3.296-0.857,5.336s1.889,5.9,5.846,5.9
	c4.014,0,4.875-4.061,4.875-5.922c0-1.86-1.762-5.479-1.762-5.479c-0.763-5.479-1.242-24.877-0.986-28.877
	c0.254-4,0.396-7.25,3.066-7c2.668,0.25,4.211,13.875,4.846,17.75c0.631,3.876,2.68,13.626,2.68,13.626l0.012,0.001
	c0.006,0.026,2.702,11.447,3.592,18.886c0.342,2.854,1.558,15.844,2.234,20.795c0.001,0.02-0.006,0.028-0.004,0.045
	c0.064,0.711-0.23,1.668-1.21,2.209c-1.146,0.637-1.914,0.875-1.914,2.58c0,0.739,0.479,1.33,2.33,1.33c1.505,0,5.153,0,6.351,0
	c1.239,0,1.664-1.138,1.664-2.062c0-1.394-0.613-1.777-0.613-3.783l0,0c0.41-5.78-0.147-19.162-0.147-21.112
	c0-2.139,0.481-11.709,2.633-11.727c2.153,0.018,2.634,9.588,2.634,11.727c0,1.95-0.558,15.332-0.146,21.112c0,0,0,0,0,0.001
	c0,2.006-0.614,2.391-0.614,3.783c0,0.925,0.428,2.062,1.665,2.062c1.192,0,4.847,0,6.353,0c1.851,0,2.33-0.593,2.33-1.332
	c0-1.705-0.771-1.945-1.914-2.578c-0.979-0.543-1.275-1.498-1.211-2.209c0.002-0.02-0.004-0.029-0.004-0.045
	c0.678-4.953,1.895-17.942,2.233-20.795c0.892-7.439,3.585-18.861,3.592-18.889l0.013-0.001c0,0,2.049-9.75,2.686-13.625
	c0.635-3.875,2.176-17.5,4.845-17.75s2.812,3,3.065,7c0.255,4-0.225,23.396-0.987,28.877c0,0-1.763,3.618-1.763,5.479
	c0,1.862,0.861,5.92,4.875,5.92C127.275,277.902,129.354,274.042,129.164,272.002z"/>
<path opacity="0.05" fill="#1E1E1C" enable-background="new    " d="M113.41,205.496c-2.542-3.25-32.934-3.25-35.477,0
	c-1.437,1.838-2.621,3.357-6.012,4.986c8.465,6.342,13.826,9.772,23.518,9.772c9.763,0,15.158-3.479,23.699-9.907
	C115.855,208.77,114.807,207.283,113.41,205.496z"/>
<g id="bottom_-_2">
	<path fill="#CA5C50" d="M95.667,260.441c-5.205,0-15.728-1.088-15.728-1.088s3.52,14.084,4.41,21.53
		c0.375,3.117,1.424,12.958,1.801,22.369c1.188,0.489,4.509,1.458,7.274,0.271c0.528-5.256-0.038-20.594-0.038-22.64
		c0-2.138,0.881-6.724,2.286-6.724c1.224,0,1.937,4.585,1.937,6.724c0,2.046-0.154,17.384,0.371,22.64
		c2.771,1.188,6.056,0.256,7.24-0.233c0.422-9.211,1.401-19.287,1.775-22.403c0.891-7.449,4.408-21.533,4.408-21.533
		S100.871,260.441,95.667,260.441z"/>
</g>
<g>
	<path fill="#066B86" d="M109.952,307.37L109.952,307.37c-0.321-0.751-2.069-1.062-2.069-1.062s0.096,0.526-0.221,0.904
		c-1.104-0.084-2.486-0.193-3.903-0.309c0.22-0.711,0.683-2.055,1.179-2.562c0.688-0.698,0.986-1.176,0.602-1.487
		c-0.475-0.383-1.559,0.773-1.938,1.576c-0.305,0.646-0.898,1.9-1.121,2.37c-1.907-0.153-3.733-0.305-4.865-0.397
		c-0.055-0.359-0.065-0.822-0.065-0.822s-1.09,0.113-1.09,0.727l0,0h-0.002v1.271c0,0,5.298,1.065,10.476,1.065
		c2.592,0,3.303-0.279,3.252-0.598S109.952,307.37,109.952,307.37z"/>
	<path fill="#066B86" d="M94.88,306.309c0-0.613-1.09-0.727-1.09-0.727s-0.013,0.463-0.065,0.822
		c-1.131,0.094-2.957,0.244-4.865,0.397c-0.223-0.47-0.816-1.725-1.123-2.37c-0.379-0.803-1.461-1.959-1.936-1.576
		c-0.387,0.312-0.087,0.789,0.602,1.487c0.496,0.507,0.957,1.853,1.178,2.562c-1.417,0.114-2.801,0.224-3.902,0.308
		c-0.316-0.378-0.222-0.904-0.222-0.904s-1.748,0.31-2.067,1.062l0,0c0,0-0.184,0.358-0.232,0.677
		c-0.051,0.318,0.66,0.598,3.252,0.598c5.176,0,10.474-1.065,10.474-1.065L94.88,306.309L94.88,306.309L94.88,306.309z"/>
</g>
<g id="top_-_2">
	<path fill="#F5F5F5" d="M110.557,208.777h-2.842c0,11.171,0.221,20.658-12.043,20.658c-12.691,0-11.796-9.182-12.047-20.658h-3.841
		c0,0,5.628,32.908-3.423,32.908c0.512,3.271,1.713,24.641,1.713,24.641c9.576,3.08,17.594,2.943,17.599,2.943
		s8.022,0.137,17.601-2.943c0,0,1.903-22.672,1.903-24.812C108.434,241.516,110.557,208.777,110.557,208.777z"/>
</g>
<g id="BALD">
	<path fill="#78B47B" d="M157.686,119.724c1.4-9.476,4.689-16.967,3.146-35.637c-1.021-12.361-11.014-39.508-44.454-47.646
		c-6.543-2.328-13.586-3.607-20.928-3.607c-7.345,0-14.386,1.279-20.929,3.607C41.078,44.58,31.089,71.726,30.066,84.087
		c-1.553,18.748,1.771,26.224,3.162,35.756c-6.33,1.689-10.609,7.818-9.777,14.503l1.672,13.429
		c0.854,6.867,6.792,11.856,13.57,11.673c0.818,6.884,1.551,12.786,2.049,16.851c1.988,16.219,7.551,19.557,20.43,28.145
		c12.879,8.586,21.467,13.355,34.277,13.355c12.81,0,21.396-4.771,34.275-13.355c12.879-8.588,18.438-11.926,20.43-28.145
		c0.5-4.07,1.234-9.984,2.055-16.883c6.956,0.414,13.132-4.629,14.004-11.641l1.672-13.429
		C168.732,127.512,164.249,121.246,157.686,119.724z"/>
</g>
<g id="FACE">
	<circle opacity="0.7" fill="#020303" enable-background="new    " cx="79.486" cy="132.092" r="4.252"/>
	<circle opacity="0.7" fill="#020303" enable-background="new    " cx="112.927" cy="132.092" r="4.252"/>
	<g opacity="0.2">
		<path fill="#1E1E1C" d="M95.898,175.102h-0.883c-7.701,0-11.394-3.289-11.547-3.429c-0.611-0.558-0.654-1.507-0.097-2.118
			c0.558-0.613,1.507-0.656,2.119-0.098c0.021,0.018,3.073,2.645,9.524,2.645h0.883c6.445,0,9.496-2.619,9.524-2.645
			c0.61-0.559,1.562-0.516,2.119,0.098c0.558,0.611,0.515,1.562-0.099,2.118C107.292,171.812,103.6,175.102,95.898,175.102z"/>
	</g>
</g>
<g id="brd_-_4">
	<path fill="#CA5C50" d="M154.854,129.09c-0.721,0-2.559,4.183-3.635,6.789c-1.49,3.766-3.047,7.431-4.357,10.022
		c-3.422,6.771-13.543,14.639-15.276,19.248s-3.078,7.815-5.562,7.503c-2.483-0.312-1.241-6.366-8.073-15.839
		c-6.748-9.355-19.671-9.303-22.384-9.3c-2.713-0.003-15.633-0.056-22.381,9.3c-6.834,9.473-5.59,15.529-8.076,15.839
		c-2.484,0.312-3.825-2.896-5.562-7.503c-1.735-4.607-11.856-12.477-15.28-19.248c-1.443-2.856-3.186-7.016-4.812-11.178
		c-1.078-2.527-2.526-5.633-3.147-5.633c-1.047,0-0.772,3.189-0.582,5.217c0.004,0.042-0.02,0.062-0.022,0.097
		c1.021,10.9,2.267,23.426,3.006,29.552c1.087,9.007,0.622,20.188,6.988,27.797s24.954,19.587,35.717,23.759
		c6.794,2.635,13.286,2.652,14.151,2.643c0.865,0.012,7.355-0.008,14.15-2.643c10.764-4.172,29.352-16.15,35.719-23.759
		c6.364-7.608,5.899-18.79,6.986-27.797c0.742-6.148,1.995-18.743,3.02-29.67C155.627,132.258,155.895,129.09,154.854,129.09z
		 M115.891,181.865c-2.423,1.214-9.67,5.176-20.328,5.203c-10.656-0.026-17.904-3.989-20.326-5.203
		c-1.971-0.987-4.695-3.157-3.608-5.797c1.087-2.643,7.765-11.181,12.853-14.729c3.043-2.121,8.146-2.483,11.082-2.435
		c2.938-0.048,8.039,0.314,11.082,2.435c5.088,3.547,11.769,12.088,12.854,14.729C120.584,178.708,117.859,180.878,115.891,181.865z
		"/>
</g>
</svg>
