<?xml version="1.0" encoding="utf-8"?>
<!-- Generator: Adobe Illustrator 16.0.4, SVG Export Plug-In . SVG Version: 6.00 Build 0)  -->
<!DOCTYPE svg PUBLIC "-//W3C//DTD SVG 1.1//EN" "http://www.w3.org/Graphics/SVG/1.1/DTD/svg11.dtd">
<svg version="1.1" id="Laag_1" xmlns="http://www.w3.org/2000/svg" xmlns:xlink="http://www.w3.org/1999/xlink" x="0px" y="0px"
	 width="190px" height="340px" viewBox="0 0 190 340" enable-background="new 0 0 190 340" xml:space="preserve">
<path fill="#F5F5F5" d="M128.164,275.002c-0.188-2.041-0.857-5.336-0.857-5.336s2.562-19.166,2.307-22.791
	c-0.254-3.625,1.225-25.625-3.717-29.25c-4.938-3.625-10.942-5.879-13.483-9.129c-2.542-3.25-32.935-3.25-35.476,0
	s-8.547,5.504-13.486,9.129s-3.465,25.625-3.719,29.25s2.307,22.791,2.307,22.791s-0.67,3.296-0.857,5.336s1.889,5.9,5.846,5.9
	c4.014,0,4.875-4.061,4.875-5.922c0-1.86-1.762-5.479-1.762-5.479c-0.763-5.479-1.242-24.877-0.986-28.877
	c0.254-4,0.396-7.25,3.066-7c2.668,0.25,4.211,13.875,4.846,17.75c0.631,3.876,2.68,13.626,2.68,13.626l0.012,0.001
	c0.006,0.026,2.702,11.447,3.592,18.886c0.342,2.854,1.558,15.844,2.234,20.795c0.001,0.02-0.006,0.028-0.004,0.045
	c0.064,0.711-0.23,1.668-1.21,2.209c-1.146,0.637-1.914,0.875-1.914,2.58c0,0.739,0.479,1.33,2.33,1.33c1.505,0,5.153,0,6.351,0
	c1.239,0,1.664-1.138,1.664-2.062c0-1.394-0.613-1.777-0.613-3.783l0,0c0.41-5.78-0.147-19.162-0.147-21.112
	c0-2.139,0.481-11.709,2.633-11.727c2.153,0.018,2.634,9.588,2.634,11.727c0,1.95-0.558,15.332-0.146,21.112c0,0,0,0,0,0.001
	c0,2.006-0.614,2.391-0.614,3.783c0,0.925,0.428,2.062,1.665,2.062c1.192,0,4.847,0,6.353,0c1.851,0,2.33-0.593,2.33-1.332
	c0-1.705-0.771-1.945-1.914-2.578c-0.979-0.543-1.275-1.498-1.211-2.209c0.002-0.02-0.004-0.029-0.004-0.045
	c0.678-4.953,1.895-17.942,2.233-20.795c0.892-7.439,3.585-18.861,3.592-18.889l0.013-0.001c0,0,2.049-9.75,2.686-13.625
	c0.635-3.875,2.176-17.5,4.845-17.75s2.812,3,3.065,7c0.255,4-0.225,23.396-0.987,28.877c0,0-1.763,3.618-1.763,5.479
	c0,1.862,0.861,5.92,4.875,5.92C126.275,280.902,128.354,277.042,128.164,275.002z"/>
<path opacity="0.05" fill="#1E1E1C" enable-background="new    " d="M112.41,208.496c-2.542-3.25-32.934-3.25-35.477,0
	c-1.437,1.838-2.621,3.357-6.012,4.986c8.465,6.342,13.826,9.772,23.518,9.772c9.763,0,15.158-3.479,23.699-9.907
	C114.855,211.77,113.807,210.283,112.41,208.496z"/>
<g id="bottom_-_3">
	<path fill="#78B47B" d="M94.667,262.441c-5.205,0-15.91-0.442-15.91-0.442s1.813,18.714,1.979,29.8
		c3.801,2.109,11.041,1.407,13.174,1.083c0.004-2.454-0.006-8.35-0.006-8.995c0-2.138-0.066-2.722,0.768-2.722
		c0.539,0,0.494,0.583,0.494,2.722c0,0.641-0.018,6.521-0.023,8.952c1.817,0.294,10.494,1.169,14.469-1.047
		c-0.6-9.735,0.978-29.793,0.978-29.793S99.871,262.441,94.667,262.441z"/>
</g>
<g>
	<path fill="#066B86" d="M108.952,310.37L108.952,310.37c-0.321-0.751-2.069-1.062-2.069-1.062s0.096,0.526-0.221,0.904
		c-1.104-0.084-2.486-0.193-3.903-0.309c0.22-0.711,0.683-2.055,1.179-2.562c0.688-0.698,0.986-1.176,0.602-1.487
		c-0.475-0.383-1.559,0.773-1.938,1.576c-0.305,0.646-0.898,1.9-1.121,2.37c-1.907-0.153-3.733-0.305-4.865-0.397
		c-0.055-0.359-0.065-0.822-0.065-0.822s-1.09,0.113-1.09,0.727l0,0h-0.002v1.271c0,0,5.298,1.065,10.476,1.065
		c2.592,0,3.303-0.279,3.252-0.598S108.952,310.37,108.952,310.37z"/>
	<path fill="#066B86" d="M93.88,309.309c0-0.613-1.09-0.727-1.09-0.727s-0.013,0.463-0.065,0.822
		c-1.131,0.094-2.957,0.244-4.865,0.397c-0.223-0.47-0.816-1.725-1.123-2.37c-0.379-0.803-1.461-1.959-1.936-1.576
		c-0.387,0.312-0.087,0.789,0.602,1.487c0.496,0.507,0.957,1.853,1.178,2.562c-1.417,0.114-2.801,0.224-3.902,0.308
		c-0.316-0.378-0.222-0.904-0.222-0.904s-1.748,0.31-2.067,1.062l0,0c0,0-0.184,0.358-0.232,0.677
		c-0.051,0.318,0.66,0.598,3.252,0.598c5.176,0,10.474-1.065,10.474-1.065L93.88,309.309L93.88,309.309L93.88,309.309z"/>
</g>
<g id="top_-_5_1_">
	<path fill="#37BFF0" d="M120.77,208.625h-1.442h-49.49h-1.446c-10.299,0-12.014,8.244-11.554,23.248
		c0.455,14.85,3.306,38.828,3.306,38.828l10.59-0.195c0,0-0.969-28.85-0.793-30.295c0.463-3.768,1.69-3.184,1.69-3.184l3.272,25.875
		c0,0,2.481,6.431,19.678,6.431c17.195,0,19.679-6.431,19.679-6.431l3.271-25.875c0,0,1.229-0.584,1.691,3.184
		c0.178,1.446-0.793,30.295-0.793,30.295l10.588,0.195c0,0,2.852-23.979,3.311-38.828
		C132.784,216.869,131.068,208.625,120.77,208.625z"/>
	<path fill="#FFFFFF" d="M78.441,208.625c0.016,0.1,0.021,0.189,0.041,0.29c2.617,14.894,16.193,36.132,16.193,36.132
		c0.083-0.094,13.571-21.238,16.19-36.132c0.019-0.101,0.024-0.19,0.04-0.29H78.441z"/>
	<path opacity="0.1" fill="#1E1E1C" enable-background="new    " d="M87.34,243.332c0,0-5.607-5.925-7.811-9.796
		c-0.535-0.94-1.162-1.908-1.856-3.013c-0.17-0.271,0.775-2.078,0.599-2.364c-0.127-0.206-1.838,0.051-1.969-0.166
		c-1.787-2.961-3.271-10.173-4.004-13.507c-1.724-7.836-2.006-6.715,0.965-0.316c1.084,2.335,2.453,9.497,3.744,12.952
		c0.11,0.295,2.488-0.099,2.641,0.18c0.131,0.239-1.021,2.99-0.889,3.23C81.699,235.857,84.786,240.795,87.34,243.332z"/>
	<path opacity="0.1" fill="#1E1E1C" enable-background="new    " d="M101.424,243.332c0,0,5.608-5.925,7.811-9.796
		c0.535-0.94,1.162-1.908,1.856-3.013c0.171-0.271-0.774-2.078-0.598-2.364c0.127-0.206,1.838,0.051,1.968-0.166
		c1.787-2.961,3.271-10.173,4.004-13.507c1.725-7.836,2.006-6.715-0.965-0.316c-1.084,2.335-2.452,9.497-3.744,12.952
		c-0.109,0.295-2.488-0.099-2.641,0.18c-0.131,0.239,1.021,2.99,0.889,3.23C107.064,235.857,103.979,240.795,101.424,243.332z"/>
	<circle fill="#066B86" cx="94.667" cy="253.284" r="1.191"/>
	<circle fill="#066B86" cx="94.667" cy="259.398" r="1.191"/>
	<path fill="#066B86" d="M95.164,222.611c0,0-4.307-2.816-6.141-2.816c-1.469,0-1.82,1.17-1.82,2.653s0.523,5.088,2.186,5.088
		s5.775-3.871,5.775-3.871V222.611z"/>
	<path fill="#066B86" d="M94.17,222.611c0,0,4.307-2.816,6.139-2.816c1.469,0,1.819,1.17,1.819,2.653s-0.524,5.088-2.185,5.088
		c-1.659,0-5.774-3.871-5.774-3.871L94.17,222.611L94.17,222.611z"/>
</g>
<g id="BALD_1_">
	<path fill="#F5F5F5" d="M156.686,122.725c1.4-9.477,4.689-16.968,3.146-35.638c-1.021-12.36-11.014-39.508-44.454-47.646
		c-6.543-2.328-13.586-3.607-20.928-3.607c-7.345,0-14.386,1.279-20.929,3.607C40.078,47.58,30.089,74.727,29.066,87.087
		c-1.553,18.748,1.771,26.224,3.162,35.756c-6.33,1.689-10.609,7.818-9.777,14.503l1.672,13.43
		c0.854,6.867,6.792,11.855,13.57,11.673c0.818,6.884,1.551,12.786,2.049,16.851c1.988,16.219,7.551,19.557,20.43,28.145
		c12.879,8.586,21.467,13.355,34.277,13.355c12.81,0,21.396-4.771,34.275-13.355c12.879-8.588,18.438-11.926,20.43-28.145
		c0.5-4.07,1.234-9.984,2.055-16.883c6.956,0.414,13.132-4.629,14.004-11.641l1.672-13.43
		C167.732,130.512,163.249,124.246,156.686,122.725z"/>
</g>
<g id="FACE_4_">
	<circle opacity="0.7" fill="#020303" enable-background="new    " cx="78.486" cy="135.092" r="4.252"/>
	<circle opacity="0.7" fill="#020303" enable-background="new    " cx="111.927" cy="135.092" r="4.252"/>
	<g opacity="0.2">
		<path fill="#1E1E1C" d="M94.898,178.102h-0.883c-7.701,0-11.394-3.289-11.547-3.429c-0.611-0.558-0.654-1.507-0.097-2.118
			c0.558-0.613,1.507-0.656,2.119-0.098c0.021,0.018,3.073,2.645,9.524,2.645h0.883c6.445,0,9.496-2.619,9.524-2.645
			c0.61-0.559,1.562-0.516,2.119,0.098c0.558,0.611,0.515,1.562-0.099,2.118C106.292,174.812,102.6,178.102,94.898,178.102z"/>
	</g>
</g>
<g id="snit_-_7">
	<path fill="#CA5C50" d="M160.25,63.002c-1.184-8.641-6.27-15.034-10.01-18.68l2.977-2.49h-5.793c-0.828-0.657-1.343-1-1.343-1
		l2.075-4.182c-1.75,0.25-8.264,0.115-8.264,0.115c1-0.75,3.949-7.353,3.949-7.353l-12.972,2.34c0,0,1.435-6.151,2.871-7.625
		c-2,0.75-16.368,5.845-16.368,5.845l3.188-8.47L99.25,28.956c0,0,0.999-4.703,3.499-7.453c-3.75,1.5-16.128,7.453-16.128,7.453
		c0.847-1.573,0.956-5.438,2.378-7.453c-3.771,2.763-14.765,9.651-14.765,9.651v-7.676c0,0-0.491,0.931-3.979,3.953
		c-3.487,3.023-7.771,6.979-7.771,6.979s-0.139-3.489,0-6.979c-2.887,2.791-10.838,8.606-10.838,8.606v-3.722
		c0,0-5.582,6.514-8.373,9.305v-5.117c0,0-6.047,11.165-9.303,15.352c-3.258,4.186-4.885,10.699-5.828,17.443
		c-0.492,3.512-0.277,12.27,0.039,19.86c-0.093,2.511-0.021,4.739,0.221,6.456c0.05,0.355,0.098,0.755,0.146,1.175
		c0.173,3.211,0.308,5.354,0.308,5.354l0.135-0.172c0.604,9.012,0.89,21.739,0.89,21.739l1.576-0.586c0,0,2.056-2.397,3.829,25.36
		c0.188,2.959,1.691,3.875,1.938,0c0.277-4.385-0.133-14.166-0.434-24.012c-0.328-10.738,7.148-20.295,5.971-30.895
		c-0.214-1.926-0.105-5.764,0.75-10.355l15.176-19.592c8.297,0.106,20.826,3.997,37.588,3.997c26.004,0,35.181-10.422,44.734,2.197
		c7.234,9.553,6.768,19.455,6.396,28.034c-0.324,7.509,6.617,8.384,5.753,51.994c-0.025,1.289,1.465,1.205,1.76-1.369
		c1.248-22.147,2.64-24.172,3.118-24.75c0.479-0.579,1.775,0.462,2.259,0.408c0.36-0.039,0.224-8.967,0.839-20.726
		c0.004-0.076,0.008-0.151,0.012-0.229c0.016-0.229,0.025-0.461,0.039-0.692c0.174-2.802,0.526-5.584,0.784-7.372
		c0.031-0.091,0.062-0.189,0.089-0.299C163.861,87.402,161.936,75.299,160.25,63.002z"/>
</g>
</svg>
