<?xml version="1.0" encoding="utf-8"?>
<!-- Generator: Adobe Illustrator 16.0.4, SVG Export Plug-In . SVG Version: 6.00 Build 0)  -->
<!DOCTYPE svg PUBLIC "-//W3C//DTD SVG 1.1//EN" "http://www.w3.org/Graphics/SVG/1.1/DTD/svg11.dtd">
<svg version="1.1" id="Laag_1" xmlns="http://www.w3.org/2000/svg" xmlns:xlink="http://www.w3.org/1999/xlink" x="0px" y="0px"
	 width="190px" height="340px" viewBox="0 0 190 340" enable-background="new 0 0 190 340" xml:space="preserve">
<g id="Laag_14_4_">
	<path fill="#78B47B" d="M127.633,270.546c-0.717-1.917-2.191-4.926-2.191-4.926s-0.077-0.304-0.215-0.836l0,0
		c0,0,1.433-13.681,0.193-32.318c-0.88-13.213-7.574-18.528-8.505-18.981s-21.931-7.424-21.931-7.424
		c-0.016,0-0.043,0.014-0.043,0.014s-22.729,7.652-21.923,7.41c0.806-0.243-7.185,1.352-8.505,19.982s0.191,32.318,0.191,32.318
		c-0.137,0.533-0.215,0.836-0.215,0.836s-1.476,3.009-2.191,4.926c-0.719,1.917,0.289,5.174,3.695,6.139
		c3.453,0.979,5.029-1.754,5.537-3.545c0.506-1.791-0.023-5.703-0.023-5.703c0.061-0.393-1.311-13.883,0.355-22.887
		c1.154-6.234,2.791-10.925,4.287-10.925c2.399,0,3.424,9.22,3.12,14.747c-0.215,3.91-1.573,11.958-0.812,19.635
		c0.761,7.678,5.5,17.051,8.225,35.674c0,0.019-0.006,0.029-0.006,0.047c0.061,0.711-0.205,1.666-1.08,2.209
		c-1.027,0.633-1.713,0.873-1.713,2.578c0,0.74,0.428,1.33,2.084,1.33c1.346,0,4.609,0,5.681,0c1.108,0,1.487-1.137,1.487-2.062
		c0-1.394-0.549-1.777-0.549-3.783c0.365-5.78,1.458-16.36,1.075-20.521c-0.681-7.43,0.346-11.289,1.302-11.289
		c1.754,0,2.894,3.42,2.545,11.25c-0.203,4.572-0.334,14.779,0.03,20.561c0,2.006-0.549,2.391-0.549,3.783
		c0,0.926,0.379,2.062,1.488,2.062c1.069,0,4.334,0,5.68,0c1.656,0,2.084-0.591,2.084-1.33c0-1.705-0.687-1.945-1.712-2.58
		c-0.876-0.541-1.141-1.498-1.081-2.209c0-0.017-0.006-0.027-0.005-0.045c3.089-19.447,7.463-27.998,8.225-35.675
		c0.76-7.677-0.793-15.725-1.009-19.635c-0.304-5.528,0.722-14.747,3.121-14.747c1.646,0,4.088,5.542,4.955,11.489
		c1.351,9.26-0.374,20.929-0.313,21.321c0,0-0.529,3.91-0.022,5.701c0.508,1.793,2.083,4.523,5.537,3.545
		C127.344,275.719,128.35,272.463,127.633,270.546z"/>
	<path opacity="0.05" fill="#78B47B" enable-background="new    " d="M94.984,206.061c-0.016,0-0.043,0.014-0.043,0.014
		s-11.42,3.846-17.781,5.998c6.244,4.474,12.803,7.182,17.908,7.182c4.906,0,11.064-2.727,16.927-7.495
		C105.193,209.552,94.984,206.061,94.984,206.061z"/>
</g>
<g id="feed_-_4_2_">
	<path fill="#F5F5F5" d="M86.453,306.256c-1.865,0.204-3.215,0.904-3.703,2.299c-0.488,1.394-0.363,2.291,0.129,2.291
		c0.561,0,8.957,0,9.725,0c0.766,0,0.754-1.352,0.695-2.062s0.088-2.541-0.414-2.259c0,0-2.102,0.382-3.309,0.317
		C88.369,306.779,86.453,306.256,86.453,306.256z"/>
	<path fill="#F5F5F5" d="M103.403,306.256c1.864,0.204,3.215,0.904,3.703,2.299c0.487,1.394,0.362,2.291-0.13,2.291
		c-0.562,0-8.957,0-9.725,0c-0.767,0-0.754-1.352-0.695-2.062c0.058-0.71-0.088-2.541,0.412-2.259c0,0,2.103,0.382,3.31,0.317
		C101.485,306.779,103.403,306.256,103.403,306.256z"/>
	<path fill="#CA5C50" d="M93.324,310.646c0,0.24-0.195,0.437-0.436,0.437H82.883c-0.24,0-0.436-0.194-0.436-0.437l0,0
		c0-0.24,0.195-0.437,0.436-0.437h10.006C93.129,310.211,93.324,310.406,93.324,310.646L93.324,310.646z"/>
	<circle fill="#CA5C50" cx="91.146" cy="308.551" r="0.978"/>
	<path fill="#CA5C50" d="M107.412,310.646c0,0.24-0.195,0.437-0.438,0.437H96.971c-0.24,0-0.437-0.194-0.437-0.437l0,0
		c0-0.24,0.195-0.437,0.437-0.437h10.004C107.217,310.211,107.412,310.406,107.412,310.646L107.412,310.646z"/>
	<circle fill="#CA5C50" cx="98.403" cy="308.551" r="0.978"/>
</g>
<g id="bottom_-_1_3_">
	<path fill="#975197" d="M94.939,260.439c-5.764,0.275-16.979-0.994-16.979-0.994s-0.051,9.053,0.669,12.912
		c0.72,3.858,5.751,19.082,6.315,23.146c0.566,4.064,1.609,7.62,1.547,8.809c-0.062,1.188,2.438,1.375,3.125,1.375
		s3.156-0.131,3.156-1.068s1.146-15.79,1.198-17.859c0.054-2.068,0.179-13.025,1.165-13.025c2.074,0,2.053,11.535,2.074,13.097
		c0.021,1.562-0.052,16.079,0.18,18.532c0.062,0.656,1.537,0.449,2.787,0.449s2.984-0.141,3.062-0.766
		c0.072-0.576,1.42-4.824,2.277-9.589c0.988-5.483,5.09-19.083,6.057-23.257c1.369-5.91,0.418-12.535,0.418-12.535
		S103.137,260.047,94.939,260.439z"/>
</g>
<g id="top_-_1_1_">
	<path fill="#975197" d="M95.098,232.236c0,0-12.934-6.736-11.986-21.322c-4.621,0.566-9.231,1.347-11.074,2.338
		c-3.307,1.777-4.604,2.582-6.57,10.664c-0.227,0.932-0.453,2.531-0.66,4.327l9.557,8.833c0.674-1.006,1.485-1.789,2.162-1.729
		c1.354,0.121,1.717,7.283,2.021,10.471c0.304,3.187-0.61,14.627-0.61,14.627s11.45,1.912,17.163,1.912h0.078
		c5.715,0,17.166-1.912,17.166-1.912s-0.914-11.44-0.61-14.627c0.304-3.188,0.668-10.35,2.021-10.471
		c0.678-0.062,1.488,0.723,2.163,1.729l9.556-8.833c-0.207-1.796-0.434-3.396-0.659-4.327c-1.966-8.082-3.265-8.887-6.57-10.664
		c-1.843-0.991-6.453-1.771-11.073-2.338c0.945,14.586-11.988,21.322-11.988,21.322H95.098z"/>
</g>
<g id="acc_-_1">
	<circle fill="#F5F5F5" cx="94.954" cy="236.242" r="1.781"/>
	<circle fill="#F5F5F5" cx="99.695" cy="235.503" r="1.779"/>
	<path fill="#F5F5F5" d="M102.536,234.381c-0.578-0.797-0.401-1.909,0.396-2.484c0.794-0.581,1.909-0.404,2.484,0.393
		c0.581,0.795,0.401,1.906-0.393,2.486C104.229,235.353,103.115,235.179,102.536,234.381z"/>
	<circle fill="#F5F5F5" cx="107.38" cy="229.952" r="1.781"/>
	<path fill="#F5F5F5" d="M109.02,227.373c-0.936-0.306-1.446-1.308-1.141-2.243c0.304-0.938,1.309-1.451,2.243-1.143
		c0.936,0.301,1.448,1.309,1.145,2.243C110.962,227.163,109.957,227.677,109.02,227.373z"/>
	<path fill="#F5F5F5" d="M110.333,222.723c-0.982-0.002-1.78-0.799-1.777-1.781c0-0.985,0.799-1.786,1.783-1.78
		c0.979-0.003,1.777,0.798,1.777,1.78S111.318,222.721,110.333,222.723z"/>
	<path fill="#F5F5F5" d="M110.147,217.894c-0.935,0.302-1.939-0.209-2.24-1.146c-0.306-0.937,0.205-1.944,1.146-2.244
		c0.93-0.307,1.938,0.209,2.24,1.145C111.597,216.581,111.083,217.588,110.147,217.894z"/>
	<path fill="#F5F5F5" d="M80.971,214.399c0.932,0.307,1.447,1.312,1.136,2.246c-0.304,0.935-1.312,1.449-2.247,1.137
		c-0.926-0.297-1.44-1.305-1.135-2.243C79.025,214.607,80.031,214.098,80.971,214.399z"/>
	<path fill="#F5F5F5" d="M79.65,219.049c0.983,0.003,1.781,0.802,1.772,1.786c0,0.982-0.8,1.782-1.788,1.774
		c-0.969,0.005-1.771-0.798-1.768-1.782C77.864,219.847,78.663,219.052,79.65,219.049z"/>
	<path fill="#F5F5F5" d="M79.83,223.878c0.936-0.301,1.941,0.211,2.241,1.151c0.304,0.935-0.214,1.942-1.155,2.24
		c-0.922,0.306-1.934-0.209-2.233-1.148C78.379,225.188,78.892,224.187,79.83,223.878z"/>
	<path fill="#F5F5F5" d="M81.493,228.415c0.798-0.575,1.909-0.398,2.484,0.404c0.575,0.795,0.399,1.912-0.404,2.486
		c-0.783,0.571-1.903,0.395-2.479-0.403C80.516,230.109,80.695,228.999,81.493,228.415z"/>
	<path fill="#F5F5F5" d="M84.475,232.217c0.581-0.792,1.695-0.969,2.49-0.382c0.793,0.575,0.969,1.694,0.382,2.49
		c-0.567,0.786-1.687,0.963-2.481,0.382C84.07,234.13,83.898,233.02,84.475,232.217z"/>
	<path fill="#F5F5F5" d="M88.486,234.912c0.309-0.933,1.312-1.446,2.25-1.132c0.932,0.301,1.445,1.312,1.133,2.249
		c-0.297,0.924-1.307,1.438-2.242,1.13C88.694,236.854,88.186,235.853,88.486,234.912z"/>
</g>
<g id="head_4_">
	<path fill="#78B47B" d="M156.85,127.516c1.392-9.41,4.656-16.848,3.123-35.387c-1.019-12.273-10.938-39.229-44.144-47.311
		c-6.497-2.314-13.487-3.582-20.78-3.582c-7.287,0-14.281,1.268-20.779,3.582C41.063,52.9,31.145,79.855,30.129,92.129
		c-1.541,18.617,1.76,26.039,3.14,35.506c-6.284,1.676-10.532,7.762-9.707,14.4l4.64,13.334c0.902,7.248,4.531,12.396,11.785,11.496
		c0.527-0.066,1.041-0.17,1.547-0.295c2.498,15.994,9.115,27.123,20.478,34.697c12.789,8.523,23.702,15.491,33.04,15.491
		c9.643,0,21.422-8.411,33.041-18.474c10.836-9.381,17.854-16.725,20.45-31.85c0.649,0.188,1.317,0.34,2.009,0.428
		c7.254,0.898,10.885-4.248,11.787-11.496l4.639-13.334C167.82,135.249,163.367,129.027,156.85,127.516z"/>
</g>
<g id="FACE_9_">
	<circle fill="#121212" cx="79.479" cy="143.1" r="4.252"/>
	<circle fill="#121212" cx="112.917" cy="143.1" r="4.252"/>
	<g opacity="0.2">
		<path fill="#020303" d="M95.889,186.107h-0.883c-7.699,0-11.393-3.287-11.545-3.428c-0.611-0.559-0.654-1.508-0.098-2.119
			c0.559-0.611,1.508-0.653,2.119-0.098c0.021,0.02,3.074,2.645,9.521,2.645h0.885c6.445,0,9.496-2.617,9.524-2.645
			c0.61-0.556,1.562-0.515,2.119,0.098s0.515,1.562-0.099,2.119C107.282,182.82,103.59,186.107,95.889,186.107z"/>
	</g>
</g>
<g id="snit_-_1">
	<g id="snit_1_2_">
		<path fill="#036C89" d="M156.661,126.805c0,0,6.763-17.695,2.916-37.597c-3.844-19.899-7.437-20.293-9.625-23.14
			c-2.19-2.844-6.784,2.732-2.526,12.347C151.684,88.027,158.094,106.891,156.661,126.805z"/>
		<path fill="#036C89" d="M30.261,126.805c-3.035-7.408-11.319-28.152-7.937-41.308s3.25-20.236,3.568-26.813
			c0.32-6.576,6.896-17.709,7.403-10.119c0.506,7.59-1.013,16.696,5.565,8.096c6.576-8.602,3.034-12.242,9.106-16.746
			c6.071-4.504,2.022-15.129,21.754-11.587s20.235,8.095,30.354,3.036c10.119-5.061,3.543-11.637,16.697-6.578
			c13.154,5.061,8.6,10.119,15.684,12.648c7.082,2.529,8.602,15.18,8.602,15.18l-3.035,4.047c0,0-25.299,32.887-49.58,41.488
			c-24.285,8.6-48.064,22.479-51.101,33.248C34.309,142.163,30.261,126.805,30.261,126.805z"/>
		<path fill="#036C89" d="M141.061,52.611c0,0,10.091,9.75,13.445,19.312c3.354,9.56-5.843,10.938-8.007,4.052
			c-2.163-6.892-16.784-9.525-16.784-9.525L141.061,52.611z"/>
	</g>
</g>
<g id="Glasses_-_1">
	<g id="glasses_1_2_">
		<path fill="#F5F5F5" d="M145.252,133.723c-1.029-0.502-2.013-0.925-2.921-1.258l-0.006-0.09l-6.433-1.979l-0.182-0.049
			l-0.021-0.002c-3.16-0.617-6.521-0.932-9.988-0.932c-5.447,0-10.994,0.784-16.031,2.27c-3.119,0.918-5.74,2.088-7.789,3.476
			c-1.381,0.765-2.787,1.2-4.078,1.265c-0.062,0.004-0.119,0.006-0.184,0.006l-0.127-0.002h-0.025h-0.033l-0.129,0.002
			c-0.062,0-0.121-0.002-0.186-0.006c-1.289-0.062-2.696-0.5-4.074-1.265c-2.047-1.388-4.67-2.558-7.789-3.476
			c-5.037-1.482-10.582-2.27-16.031-2.27c-3.467,0-6.828,0.312-9.988,0.932l-6.634,2.029l-0.006,0.09
			c-0.91,0.333-1.892,0.756-2.921,1.258l-0.247,0.119l0.028,0.273c0.041,0.404,0.086,0.871,0.134,1.381
			c0.317,3.336,0.753,7.904,1.629,9.359c0.625,1.037,1.538,1.215,2.205,1.342c0.183,0.037,0.356,0.068,0.483,0.117
			c0.004,0.027,0.01,0.06,0.016,0.09c0.865,4.875,2.838,8.123,6.206,10.217c2.854,1.775,6.651,2.738,12.698,3.212
			c0.64,0.051,1.285,0.075,1.92,0.075c9.527,0,16.361-5.754,17.9-8.834c0.484-0.965,1.049-2.936,1.676-5.852
			c0.076-0.158,0.133-0.312,0.176-0.468c0.406-1.5,2.098-2.501,2.963-2.926c0.866,0.425,2.56,1.425,2.967,2.927
			c0.041,0.155,0.099,0.309,0.172,0.467c0.632,2.916,1.193,4.887,1.677,5.852c1.09,2.178,3.805,4.318,5.981,5.599
			c2.517,1.476,6.623,3.235,11.918,3.235h0.002c0.636,0,1.281-0.024,1.92-0.075c6.048-0.474,9.845-1.437,12.697-3.212
			c3.366-2.094,5.34-5.342,6.207-10.217c0.006-0.03,0.01-0.062,0.016-0.09c0.125-0.049,0.302-0.08,0.484-0.117
			c0.666-0.127,1.579-0.305,2.202-1.342c0.877-1.455,1.312-6.023,1.627-9.359c0.05-0.51,0.097-0.977,0.138-1.381l0.026-0.273
			L145.252,133.723z M104.731,145.471c-0.093-1.656-0.269-5.611,0.051-7.354c0.006-0.03,0.013-0.061,0.017-0.088
			c1.64-0.991,3.653-1.842,5.996-2.531c4.678-1.378,9.832-2.105,14.903-2.105c3.174,0,6.244,0.281,9.129,0.836l3.584,1.104
			c-0.078,1.625-0.356,4.935-1.323,10.375c-0.654,3.667-1.886,5.87-4.119,7.366c-2.244,1.503-5.69,2.363-11.181,2.793
			c-0.534,0.044-1.075,0.064-1.61,0.064c-4.515,0-7.97-1.523-10.071-2.805c-2.464-1.497-3.927-3.146-4.271-3.833
			C105.639,148.906,105.292,147.926,104.731,145.471z M84.816,153.128c-2.107,1.278-5.562,2.804-10.066,2.804
			c-0.53,0-1.073-0.021-1.61-0.063c-5.487-0.431-8.937-1.291-11.181-2.793c-2.233-1.496-3.469-3.699-4.118-7.366
			c-0.97-5.443-1.246-8.75-1.324-10.375l3.584-1.104c2.886-0.556,5.955-0.836,9.127-0.836c5.072,0,10.228,0.729,14.905,2.104
			c2.34,0.688,4.355,1.54,5.998,2.531c0.004,0.026,0.01,0.058,0.014,0.088c0.314,1.733,0.143,5.692,0.051,7.354
			c-0.559,2.457-0.908,3.436-1.102,3.823C88.748,149.98,87.283,151.628,84.816,153.128z"/>
	</g>
</g>
</svg>
