<?xml version="1.0" encoding="utf-8"?>
<!-- Generator: Adobe Illustrator 16.0.4, SVG Export Plug-In . SVG Version: 6.00 Build 0)  -->
<!DOCTYPE svg PUBLIC "-//W3C//DTD SVG 1.1//EN" "http://www.w3.org/Graphics/SVG/1.1/DTD/svg11.dtd">
<svg version="1.1" id="Laag_1" xmlns="http://www.w3.org/2000/svg" xmlns:xlink="http://www.w3.org/1999/xlink" x="0px" y="0px"
	 width="190px" height="340px" viewBox="0 0 190 340" enable-background="new 0 0 190 340" xml:space="preserve">
<g id="Laag_14_5_">
	<path fill="#37BFF0" d="M127.633,270.546c-0.717-1.917-2.191-4.926-2.191-4.926s-0.077-0.304-0.215-0.836l0,0
		c0,0,1.433-13.681,0.193-32.318c-0.88-13.213-7.574-18.528-8.505-18.981s-21.931-7.424-21.931-7.424
		c-0.016,0-0.043,0.014-0.043,0.014s-22.729,7.652-21.923,7.41c0.806-0.243-7.185,1.352-8.505,19.982s0.191,32.318,0.191,32.318
		c-0.137,0.533-0.215,0.836-0.215,0.836s-1.476,3.009-2.191,4.926c-0.719,1.917,0.289,5.174,3.695,6.139
		c3.453,0.979,5.029-1.754,5.537-3.545c0.506-1.791-0.023-5.703-0.023-5.703c0.061-0.393-1.311-13.883,0.355-22.887
		c1.154-6.234,2.791-10.925,4.287-10.925c2.399,0,3.424,9.22,3.12,14.747c-0.215,3.91-1.573,11.958-0.812,19.635
		c0.761,7.678,5.5,17.051,8.225,35.674c0,0.019-0.006,0.029-0.006,0.047c0.061,0.711-0.205,1.666-1.08,2.209
		c-1.027,0.633-1.713,0.873-1.713,2.578c0,0.74,0.428,1.33,2.084,1.33c1.346,0,4.609,0,5.681,0c1.108,0,1.487-1.137,1.487-2.062
		c0-1.394-0.549-1.777-0.549-3.783c0.365-5.78,1.458-16.36,1.075-20.521c-0.681-7.43,0.346-11.289,1.302-11.289
		c1.754,0,2.894,3.42,2.545,11.25c-0.203,4.572-0.334,14.779,0.03,20.561c0,2.006-0.549,2.391-0.549,3.783
		c0,0.926,0.379,2.062,1.488,2.062c1.069,0,4.334,0,5.68,0c1.656,0,2.084-0.591,2.084-1.33c0-1.705-0.687-1.945-1.712-2.58
		c-0.876-0.541-1.141-1.498-1.081-2.209c0-0.017-0.006-0.027-0.005-0.045c3.089-19.447,7.463-27.998,8.225-35.675
		c0.76-7.677-0.793-15.725-1.009-19.635c-0.304-5.528,0.722-14.747,3.121-14.747c1.646,0,4.088,5.542,4.955,11.489
		c1.351,9.26-0.374,20.929-0.313,21.321c0,0-0.529,3.91-0.022,5.701c0.508,1.793,2.083,4.523,5.537,3.545
		C127.344,275.719,128.35,272.463,127.633,270.546z"/>
	<path opacity="0.05" fill="#37BFF0" enable-background="new    " d="M94.984,206.061c-0.016,0-0.043,0.014-0.043,0.014
		s-11.42,3.846-17.781,5.998c6.244,4.474,12.803,7.182,17.908,7.182c4.906,0,11.064-2.727,16.927-7.495
		C105.193,209.552,94.984,206.061,94.984,206.061z"/>
</g>
<g id="feed_-_1">
	<path fill="#066B86" d="M93.248,308.115c0,0,0.223,0.49,0.223,1.554c0,2.519-0.916,2.519-0.916,2.519s-7.41,0-9.535,0
		c-2.126,0-0.502-2.697,1.434-4.27c0,0,1.041,0.915,3.332,1.04S93.248,308.115,93.248,308.115z"/>
	<path fill="#066B86" d="M97.04,308.115c0,0-0.222,0.49-0.222,1.554c0,2.519,0.916,2.519,0.916,2.519s7.411,0,9.536,0
		s0.503-2.697-1.436-4.27c0,0-1.039,0.915-3.332,1.04C100.212,309.083,97.04,308.115,97.04,308.115z"/>
</g>
<g id="top_-_4_1_">
	<path fill="#F5F5F5" d="M125.738,230.5c-1.176-7.725-4.059-13.855-6.238-16.115c-1.133-1.175-3.988-2.479-8.398-3.464
		c-3.229,6.479-5.438,16.247-16.111,16.247c-9.779,0-12.883-9.768-16.11-16.247c-4.411,0.985-7.267,2.289-8.399,3.464
		c-2.178,2.26-5.061,8.391-6.238,16.115c-0.737,4.844-0.123,24.339-0.123,26.214l7.084-0.136c0.027-0.471,1.064-13.156,2.457-17.555
		c0.666-2.107,1.894-4.131,2.457-4.023c1.01,0.191,3.524,6.55,3.178,10.753c-0.53,6.411-2.479,21.319,1.062,39.504
		c0,0,9.727,1.001,15.006,1.001s15.48-1.001,15.48-1.001c3.142-20.385,0.432-33.161-0.205-39.694
		c-0.633-6.506,2.215-10.371,3.225-10.562c0.744-0.141,2.807,3.391,3.58,5.784c2.671,8.271,1.66,16.552,1.678,16.831l6.572,0.283
		C125.693,256.023,126.477,235.344,125.738,230.5z"/>
</g>
<g id="head_5_">
	<path fill="#37BFF0" d="M156.85,127.516c1.392-9.41,4.656-16.848,3.123-35.387c-1.019-12.273-10.938-39.229-44.144-47.311
		c-6.497-2.314-13.487-3.582-20.78-3.582c-7.287,0-14.281,1.268-20.779,3.582C41.063,52.9,31.145,79.855,30.129,92.129
		c-1.541,18.617,1.76,26.039,3.14,35.506c-6.284,1.676-10.532,7.762-9.707,14.4l4.64,13.334c0.902,7.248,4.531,12.396,11.785,11.496
		c0.527-0.066,1.041-0.17,1.547-0.295c2.498,15.994,9.115,27.123,20.478,34.697c12.789,8.523,23.702,15.491,33.04,15.491
		c9.643,0,21.422-8.411,33.041-18.474c10.836-9.381,17.854-16.725,20.45-31.85c0.649,0.188,1.317,0.34,2.009,0.428
		c7.254,0.898,10.885-4.248,11.787-11.496l4.639-13.334C167.82,135.249,163.367,129.027,156.85,127.516z"/>
</g>
<g id="FACE_10_">
	<circle fill="#121212" cx="79.479" cy="143.1" r="4.252"/>
	<circle fill="#121212" cx="112.917" cy="143.1" r="4.252"/>
	<g opacity="0.2">
		<path fill="#020303" d="M95.889,186.107h-0.883c-7.699,0-11.393-3.287-11.545-3.428c-0.611-0.559-0.654-1.508-0.098-2.119
			c0.559-0.611,1.508-0.653,2.119-0.098c0.021,0.02,3.074,2.645,9.521,2.645h0.885c6.445,0,9.496-2.617,9.524-2.645
			c0.61-0.556,1.562-0.515,2.119,0.098s0.515,1.562-0.099,2.119C107.282,182.82,103.59,186.107,95.889,186.107z"/>
	</g>
</g>
<g id="snit_-_2">
	<g id="snit_2_3_">
		<path fill="#CA5C50" d="M171.621,139.939c0.577-6.864,5.734-8.896,4.952-17.282c-1.651-17.712-6.831-13.989-6.929-24.087
			c-0.096-10.098,1.938-21.383-13.067-42.508c-6.067-8.541-14.18-14.586-22.815-18.761c-2.479-3.276-10.017-7.186-31.435-8.059
			c-1.845-0.122-3.612-0.181-5.278-0.181h-8.008c-17,0-38.952,5.207-53.959,26.332C20.076,76.52,22.752,88.161,22.654,98.258
			c-0.097,10.098-13.111,15.035-9.896,32.531c1.471,8.006,5.909,10.25,6.392,17.122c0.348,4.973-4.541,11.81,2.221,20.401
			c4.402,5.592-3.398,18.267-3.398,18.267s4.684-0.78,9.424-4.376c0,0,7.417,2.455,5.865,13.568
			c-1.586,11.356-7.453,16.426-7.453,16.426s20.334-0.247,26.592-4.771c0,0,1.489,2.424-0.328,4.924c0,0,5.25-2.062,12.506-9.412
			c-0.211-0.142-0.418-0.274-0.631-0.416c-11.36-7.574-19.916-19.957-22.416-35.951c-0.504,0.125-1.019,0.229-1.545,0.295
			c-7.254,0.9-10.884-4.248-11.787-11.496l-4.639-13.334c-0.826-6.639,3.424-12.725,9.707-14.4
			c-0.845-5.798-2.408-10.833-3.143-18.138c0.09-0.081,0.171-0.156,0.263-0.238c2.135-0.522,33.7-8.312,61.925-18.313
			c20.844-7.389,31.521-23.807,36.382-35.649l0,0c23.137,14.241,20.397,33.711,20.715,45.384c0.206,7.635,5.078,16.326,8.425,21.426
			c-0.365,1.793-0.712,3.563-0.984,5.41c6.519,1.512,10.972,7.731,10.127,14.521l-4.639,13.334
			c-0.902,7.248-4.533,12.396-11.787,11.496c-0.689-0.087-1.357-0.24-2.009-0.427c-2.599,15.125-10.972,23.633-21.808,33.014
			c-1.108,0.96-2.158,1.824-3.268,2.732c6.203,6.352,21.224,5.774,21.224,5.774l-0.14-4.673c6.102,5.607,19.731,4.906,19.731,4.906
			s-6.755-6.401-7.453-12.422c-0.791-6.822,4.065-12.778,9.06-19.828c0.64,1.164,1.724,2.918,2.81,3.68
			c-1.197-4.391,0.871-9.01,1.812-10.79c0.142-0.247,0.28-0.496,0.418-0.746c0.004-0.005,0.016-0.022,0.016-0.022l-0.004,0.004
			c1.414-2.58,2.646-5.34,3.514-8.349C177.372,149.581,171.045,146.803,171.621,139.939z"/>
	</g>
</g>
</svg>
