<?xml version="1.0" encoding="utf-8"?>
<!-- Generator: Adobe Illustrator 16.0.4, SVG Export Plug-In . SVG Version: 6.00 Build 0)  -->
<!DOCTYPE svg PUBLIC "-//W3C//DTD SVG 1.1//EN" "http://www.w3.org/Graphics/SVG/1.1/DTD/svg11.dtd">
<svg version="1.1" id="Laag_1" xmlns="http://www.w3.org/2000/svg" xmlns:xlink="http://www.w3.org/1999/xlink" x="0px" y="0px"
	 width="190px" height="340px" viewBox="0 0 190 340" enable-background="new 0 0 190 340" xml:space="preserve">
<g id="Laag_14">
	<path fill="#975197" d="M127.633,270.546c-0.717-1.917-2.191-4.926-2.191-4.926s-0.077-0.304-0.215-0.836l0,0
		c0,0,1.433-13.681,0.193-32.318c-0.88-13.213-7.574-18.528-8.505-18.981s-21.931-7.424-21.931-7.424
		c-0.016,0-0.043,0.014-0.043,0.014s-22.729,7.652-21.923,7.41c0.806-0.243-7.185,1.352-8.505,19.982s0.191,32.318,0.191,32.318
		c-0.137,0.533-0.215,0.836-0.215,0.836s-1.476,3.009-2.191,4.926c-0.719,1.917,0.289,5.174,3.695,6.139
		c3.453,0.979,5.029-1.754,5.537-3.545c0.506-1.791-0.023-5.703-0.023-5.703c0.061-0.393-1.311-13.883,0.355-22.887
		c1.154-6.234,2.791-10.925,4.287-10.925c2.399,0,3.424,9.22,3.12,14.747c-0.215,3.91-1.573,11.958-0.812,19.635
		c0.761,7.678,5.5,17.051,8.225,35.674c0,0.019-0.006,0.029-0.006,0.047c0.061,0.711-0.205,1.666-1.08,2.209
		c-1.027,0.633-1.713,0.873-1.713,2.578c0,0.74,0.428,1.33,2.084,1.33c1.346,0,4.609,0,5.681,0c1.108,0,1.487-1.137,1.487-2.062
		c0-1.394-0.549-1.777-0.549-3.783c0.365-5.78,1.458-16.36,1.075-20.521c-0.681-7.43,0.346-11.289,1.302-11.289
		c1.754,0,2.894,3.42,2.545,11.25c-0.203,4.572-0.334,14.779,0.03,20.561c0,2.006-0.549,2.391-0.549,3.783
		c0,0.926,0.379,2.062,1.488,2.062c1.069,0,4.334,0,5.68,0c1.656,0,2.084-0.591,2.084-1.33c0-1.705-0.687-1.945-1.712-2.58
		c-0.876-0.541-1.141-1.498-1.081-2.209c0-0.017-0.006-0.027-0.005-0.045c3.089-19.447,7.463-27.998,8.225-35.675
		c0.76-7.677-0.793-15.725-1.009-19.635c-0.304-5.528,0.722-14.747,3.121-14.747c1.646,0,4.088,5.542,4.955,11.489
		c1.351,9.26-0.374,20.929-0.313,21.321c0,0-0.529,3.91-0.022,5.701c0.508,1.793,2.083,4.523,5.537,3.545
		C127.344,275.719,128.35,272.463,127.633,270.546z"/>
	<path opacity="0.05" fill="#975197" enable-background="new    " d="M94.984,206.061c-0.016,0-0.043,0.014-0.043,0.014
		s-11.42,3.846-17.781,5.998c6.244,4.474,12.803,7.182,17.908,7.182c4.906,0,11.064-2.727,16.927-7.495
		C105.193,209.552,94.984,206.061,94.984,206.061z"/>
</g>
<g id="feed_-_2">
	<path fill="#010202" d="M93.115,308.115c0,0,0.223,0.49,0.223,1.554s-0.041,2.519-0.041,2.519h-0.875c0,0,0.057-1.506-0.799-1.24
		c-3.996,1.24-7.613,1.24-9.738,1.24s0.498-2.697,2.436-4.27c0,0,0.039,1.916,2.332,2.041
		C88.943,310.084,93.115,308.115,93.115,308.115z"/>
	<path fill="#010202" d="M97.035,308.115c0,0-0.222,0.49-0.222,1.554s0.04,2.519,0.04,2.519h0.875c0,0-0.057-1.506,0.799-1.24
		c3.996,1.24,7.613,1.24,9.738,1.24s-0.498-2.697-2.437-4.27c0,0,0.962,1.916-1.33,2.041S97.035,308.115,97.035,308.115z"/>
</g>
<g id="top_-_5">
	<path fill="#018AB3" d="M113.458,234.732c-1.01,0.191-2.228,4.48-2.817,10.828c-0.608,6.535,4.619,19.023-2.799,39.695
		c0,0-7.197,1.001-12.479,1.001c-5.279,0-13.004-1.001-13.004-1.001c-7.798-19.432-3.203-33.133-3.078-39.695
		c0.125-6.562-2.018-10.732-3.026-10.924c0,0-0.716-2.546,18.71-2.546C113.551,232.092,113.458,234.732,113.458,234.732z"/>
	<path fill="#37BFF0" d="M104.375,207.643c-0.555,0.4-1.33,0.278-1.729-0.276c-0.404-0.554-0.283-1.33,0.275-1.729
		c0.549-0.4,1.325-0.277,1.729,0.276C105.051,206.463,104.928,207.238,104.375,207.643z"/>
	<path fill="#37BFF0" d="M102.297,205c-0.404,0.552-1.18,0.676-1.729,0.27c-0.556-0.399-0.681-1.177-0.271-1.729
		c0.396-0.551,1.174-0.674,1.729-0.271C102.574,203.67,102.697,204.445,102.297,205z"/>
	<path fill="#37BFF0" d="M99.504,203.129c-0.215,0.648-0.914,1.008-1.562,0.791c-0.652-0.211-1.011-0.91-0.793-1.562
		c0.207-0.646,0.907-1.004,1.562-0.789C99.357,201.777,99.713,202.477,99.504,203.129z"/>
	<path fill="#37BFF0" d="M96.27,202.212c-0.004,0.685-0.559,1.241-1.24,1.235c-0.687,0-1.242-0.555-1.237-1.242
		c-0.003-0.678,0.555-1.234,1.239-1.232C95.713,200.971,96.266,201.527,96.27,202.212z"/>
	<path fill="#37BFF0" d="M92.91,202.34c0.209,0.65-0.146,1.352-0.799,1.557c-0.652,0.213-1.354-0.143-1.561-0.799
		c-0.211-0.643,0.145-1.345,0.799-1.555C91.998,201.33,92.697,201.689,92.91,202.34z"/>
	<path fill="#37BFF0" d="M89.754,203.498c0.4,0.555,0.277,1.331-0.277,1.729c-0.555,0.402-1.332,0.281-1.732-0.277
		c-0.396-0.547-0.275-1.325,0.279-1.727C88.574,202.82,89.35,202.945,89.754,203.498z"/>
	<path fill="#37BFF0" d="M87.111,205.575c0.551,0.403,0.676,1.18,0.27,1.729c-0.402,0.555-1.18,0.678-1.732,0.27
		c-0.549-0.395-0.672-1.174-0.268-1.727C85.779,205.295,86.555,205.174,87.111,205.575z"/>
	<path opacity="0.05" fill="#020303" enable-background="new    " d="M94.984,206.061c-0.016,0-0.043,0.014-0.043,0.014
		s-11.42,3.846-17.781,5.998c6.244,4.474,12.803,7.182,17.908,7.182c4.906,0,11.294-2.911,17.154-7.68
		C105.422,209.367,94.984,206.061,94.984,206.061z"/>
</g>
<g id="head">
	<path fill="#975197" d="M156.85,127.516c1.392-9.41,4.656-16.848,3.123-35.387c-1.019-12.273-10.938-39.229-44.144-47.311
		c-6.497-2.314-13.487-3.582-20.78-3.582c-7.287,0-14.281,1.268-20.779,3.582C41.063,52.9,31.145,79.855,30.129,92.129
		c-1.541,18.617,1.76,26.039,3.14,35.506c-6.284,1.676-10.532,7.762-9.707,14.4l4.64,13.334c0.902,7.248,4.531,12.396,11.785,11.496
		c0.527-0.066,1.041-0.17,1.547-0.295c2.498,15.995,9.115,27.124,20.478,34.698c12.789,8.523,23.702,15.491,33.04,15.491
		c9.643,0,21.422-8.411,33.041-18.474c10.836-9.381,17.854-16.725,20.45-31.849c0.649,0.187,1.317,0.34,2.009,0.427
		c7.254,0.899,10.885-4.248,11.787-11.496l4.639-13.334C167.82,135.249,163.367,129.027,156.85,127.516z"/>
</g>
<g id="FACE_12_">
	<circle fill="#121212" cx="79.479" cy="143.1" r="4.252"/>
	<circle fill="#121212" cx="112.917" cy="143.1" r="4.252"/>
	<g opacity="0.2">
		<path fill="#020303" d="M95.889,186.107h-0.883c-7.699,0-11.393-3.287-11.545-3.428c-0.611-0.559-0.654-1.508-0.098-2.119
			c0.559-0.611,1.508-0.653,2.119-0.098c0.021,0.02,3.074,2.645,9.521,2.645h0.885c6.445,0,9.496-2.617,9.524-2.645
			c0.61-0.556,1.562-0.515,2.119,0.098s0.515,1.562-0.099,2.119C107.282,182.82,103.59,186.107,95.889,186.107z"/>
	</g>
</g>
<g id="snit_-_6">
	<path fill="#78B47B" d="M171.26,124.143c1.017,0.678,2.276,1.45,3.58,2.078c-2.086-1.854-3.299-6.194-4.062-10.471
		c-0.035-0.356-0.109-0.957-0.11-0.963c-0.323-2.801-0.704-5.709-1.182-8.692c-0.007-0.039-0.013-0.091-0.019-0.128v0.021
		c-1.937-12.056-5.514-25.381-13.904-38.331C142.79,47.948,124.54,47.551,124.54,47.551c-4.249-6.315-13.175-9.051-28.55-9.051
		c-19.94,0-37.832,5.333-53.129,20.034c0,0,6.979-8.024,0-0.01c-6.979,8.014-10.576,11.326-16.436,29.057
		c-2.891,8.744-8.516,26.39-9.469,40.039v-0.006c0,0.005,0,0.012,0,0.017c-0.143,2.044-0.182,4-0.09,5.821
		c0.162,3.181,0.416,6.166,0.746,8.987c0.226,7.81-0.004,16.458-2.168,20.588c4.012-1.14,4.881-4.396,4.881-4.396l-0.004-0.035
		c3.984,19.011,16.662,38.909,26.119,45.363c10.907,7.443,7.367,20.305,7.367,20.305s4.244-4.099,5.561-8.837
		c0.135,0.439,0.279,0.867,0.394,1.335c2.258,9.137-3.126,18.107-3.126,18.107s15.346-3.273,19.615-8.119
		c6.426-7.287,8.381-12.327,8.381-12.327c-5.982-2.366-16.771-9.141-22.62-13.153c-12.647-8.681-18.408-20.535-20.478-34.698
		c0,0-0.891,0.321-2.234,0.347c-6.79,0.493-10.225-4.536-11.098-11.548l-4.64-13.334c-0.825-6.639,3.423-12.725,9.707-14.4
		c-0.13-0.893-0.745-31.831,34.255-34.693c1.695-0.139,3.291-0.237,4.838-0.316c-2.139,3.241-3.045,7.346-3.619,11.375
		c2-5.499,14.227-9.769,14.23-9.771c-1.871,3.514-2.48,7.739-2.48,12.271c5.449-9.231,21.811-11.938,21.876-11.949
		c-2.291,4.932-4.312,10.793-5.282,15.292c4.988-8.2,13.83-15.458,20.731-20.306c2.896-1.504,6.112-3.534,9.868-6.254
		c8.297,6.423,30.812,25.371,29.703,41.072c0,0.001,0,0.002,0,0.003c-0.197,1.04-0.381,2.086-0.539,3.157
		c1.44,0.334,11.935,9.605,9.756,15.584c-2.473,6.786-3.864,9.96-4.268,12.269c-0.404,2.309-1.097,5.138-1.856,6.4
		c-0.761,1.262-2.528,3.22-2.528,3.22c-1.85,1.528-4.29,2.262-7.402,1.876c-0.689-0.087-1.357-0.24-2.008-0.427
		c-2.598,15.125-9.517,22.583-20.451,31.849c-3.799,3.219-17.914,13.395-17.914,13.395s0.916,9.324,10.41,16.894
		c6.277,5.002,13.4,9.423,13.4,9.423s-1.684-14.684,0.805-25.077c-0.904,5.794,7.478,11.364,7.478,11.364s-2.57-2.887-2.284-11.631
		c0.286-8.745,5.854-10.817,13.279-22.098c5.56-8.447,9.226-15.77,11.322-20.326c0.051-0.079,0.101-0.153,0.15-0.233
		c1.514-2.385,6.061-16.783,6.527-25.609C171.549,139.113,171.26,124.275,171.26,124.143z"/>
</g>
</svg>
