<?xml version="1.0" encoding="utf-8"?>
<!-- Generator: Adobe Illustrator 16.0.4, SVG Export Plug-In . SVG Version: 6.00 Build 0)  -->
<!DOCTYPE svg PUBLIC "-//W3C//DTD SVG 1.1//EN" "http://www.w3.org/Graphics/SVG/1.1/DTD/svg11.dtd">
<svg version="1.1" id="Laag_1" xmlns="http://www.w3.org/2000/svg" xmlns:xlink="http://www.w3.org/1999/xlink" x="0px" y="0px"
	 width="190px" height="340px" viewBox="0 0 190 340" enable-background="new 0 0 190 340" xml:space="preserve">
<g id="Laag_14_2_">
	<path fill="#CA5C50" d="M127.633,270.546c-0.717-1.917-2.191-4.926-2.191-4.926s-0.077-0.304-0.215-0.836l0,0
		c0,0,1.433-13.681,0.193-32.318c-0.88-13.213-7.574-18.528-8.505-18.981s-21.93-7.424-21.93-7.424
		c-0.016,0-0.044,0.014-0.044,0.014s-22.728,7.652-21.922,7.41c0.806-0.243-7.185,1.352-8.505,19.982s0.192,32.318,0.192,32.318
		c-0.137,0.533-0.215,0.836-0.215,0.836s-1.476,3.009-2.192,4.926c-0.718,1.917,0.289,5.174,3.695,6.139
		c3.454,0.979,5.029-1.754,5.537-3.545c0.507-1.791-0.023-5.703-0.023-5.703c0.061-0.393-1.311-13.883,0.356-22.887
		c1.154-6.234,2.79-10.925,4.287-10.925c2.399,0,3.424,9.22,3.12,14.747c-0.215,3.91-1.573,11.958-0.812,19.635
		c0.761,7.678,5.5,17.051,8.225,35.674c0,0.019-0.006,0.029-0.006,0.047c0.061,0.711-0.205,1.666-1.08,2.209
		c-1.026,0.633-1.713,0.873-1.713,2.578c0,0.74,0.428,1.33,2.084,1.33c1.347,0,4.609,0,5.681,0c1.108,0,1.487-1.137,1.487-2.062
		c0-1.394-0.549-1.777-0.549-3.783c0.365-5.78,1.458-16.36,1.076-20.521c-0.681-7.43,0.346-11.289,1.302-11.289
		c1.753,0,2.893,3.42,2.544,11.25c-0.203,4.572-0.334,14.779,0.03,20.561c0,2.006-0.549,2.391-0.549,3.783
		c0,0.926,0.379,2.062,1.488,2.062c1.069,0,4.334,0,5.68,0c1.656,0,2.084-0.591,2.084-1.33c0-1.705-0.687-1.945-1.712-2.58
		c-0.876-0.541-1.141-1.498-1.081-2.209c0-0.017-0.006-0.027-0.005-0.045c3.089-19.447,7.463-27.998,8.225-35.675
		c0.76-7.677-0.793-15.725-1.009-19.635c-0.304-5.528,0.722-14.747,3.121-14.747c1.646,0,4.088,5.542,4.955,11.489
		c1.351,9.26-0.374,20.929-0.313,21.321c0,0-0.529,3.91-0.022,5.701c0.508,1.793,2.083,4.523,5.537,3.545
		C127.344,275.719,128.35,272.463,127.633,270.546z"/>
	<path opacity="0.05" fill="#CA5C50" enable-background="new    " d="M94.985,206.061c-0.016,0-0.044,0.014-0.044,0.014
		s-11.42,3.846-17.781,5.998c6.244,4.474,12.803,7.182,17.909,7.182c4.906,0,11.064-2.727,16.926-7.495
		C105.193,209.552,94.985,206.061,94.985,206.061z"/>
</g>
<g id="feed_-_4">
	<path fill="#F5F5F5" d="M86.453,306.256c-1.865,0.204-3.215,0.904-3.703,2.299c-0.488,1.394-0.363,2.291,0.129,2.291
		c0.562,0,8.958,0,9.725,0c0.767,0,0.754-1.352,0.695-2.062c-0.058-0.71,0.088-2.541-0.414-2.259c0,0-2.101,0.382-3.308,0.317
		C88.37,306.779,86.453,306.256,86.453,306.256z"/>
	<path fill="#F5F5F5" d="M103.403,306.256c1.864,0.204,3.215,0.904,3.703,2.299c0.487,1.394,0.362,2.291-0.13,2.291
		c-0.562,0-8.957,0-9.725,0c-0.767,0-0.754-1.352-0.695-2.062c0.058-0.71-0.088-2.541,0.412-2.259c0,0,2.103,0.382,3.31,0.317
		C101.485,306.779,103.403,306.256,103.403,306.256z"/>
	<path fill="#CA5C50" d="M93.324,310.646c0,0.24-0.195,0.437-0.436,0.437H82.882c-0.24,0-0.436-0.194-0.436-0.437l0,0
		c0-0.24,0.195-0.437,0.436-0.437h10.006C93.128,310.211,93.324,310.406,93.324,310.646L93.324,310.646z"/>
	<circle fill="#CA5C50" cx="91.146" cy="308.551" r="0.978"/>
	<path fill="#CA5C50" d="M107.412,310.646c0,0.24-0.195,0.437-0.438,0.437H96.971c-0.24,0-0.437-0.194-0.437-0.437l0,0
		c0-0.24,0.195-0.437,0.437-0.437h10.004C107.217,310.211,107.412,310.406,107.412,310.646L107.412,310.646z"/>
	<circle fill="#CA5C50" cx="98.403" cy="308.551" r="0.978"/>
</g>
<g id="bottom_-_1_2_">
	<path fill="#37BFF0" d="M94.939,260.439c-5.764,0.275-16.979-0.994-16.979-0.994s-0.051,9.053,0.669,12.912
		c0.72,3.858,5.75,19.082,6.316,23.146s1.608,7.62,1.546,8.809c-0.062,1.188,2.438,1.375,3.125,1.375s3.157-0.131,3.157-1.068
		s1.145-15.79,1.198-17.859c0.054-2.068,0.179-13.025,1.166-13.025c2.074,0,2.052,11.535,2.074,13.097
		c0.021,1.562-0.052,16.079,0.18,18.532c0.062,0.656,1.537,0.449,2.787,0.449s2.984-0.141,3.062-0.766
		c0.072-0.576,1.42-4.824,2.277-9.589c0.988-5.483,5.09-19.083,6.057-23.257c1.369-5.91,0.418-12.535,0.418-12.535
		S103.137,260.047,94.939,260.439z"/>
</g>
<g id="top_-_1">
	<path fill="#F5F5F5" d="M95.098,232.236c0,0-12.935-6.736-11.987-21.322c-4.621,0.566-9.231,1.347-11.074,2.338
		c-3.306,1.777-4.604,2.582-6.57,10.664c-0.227,0.932-0.453,2.531-0.66,4.327l9.556,8.833c0.675-1.006,1.486-1.789,2.163-1.729
		c1.353,0.121,1.717,7.283,2.021,10.471c0.304,3.187-0.61,14.627-0.61,14.627s11.45,1.912,17.164,1.912h0.078
		c5.714,0,17.166-1.912,17.166-1.912s-0.914-11.44-0.61-14.627c0.304-3.188,0.668-10.35,2.021-10.471
		c0.678-0.062,1.488,0.723,2.163,1.729l9.556-8.833c-0.207-1.796-0.434-3.396-0.659-4.327c-1.966-8.082-3.265-8.887-6.57-10.664
		c-1.843-0.991-6.453-1.771-11.073-2.338c0.945,14.586-11.988,21.322-11.988,21.322H95.098z"/>
</g>
<g id="head_2_">
	<path fill="#CA5C50" d="M156.85,127.516c1.392-9.41,4.656-16.848,3.123-35.387c-1.019-12.273-10.938-39.229-44.144-47.311
		c-6.497-2.314-13.487-3.582-20.78-3.582c-7.288,0-14.282,1.268-20.78,3.582C41.063,52.9,31.145,79.855,30.129,92.129
		c-1.541,18.617,1.76,26.039,3.14,35.506c-6.284,1.676-10.533,7.762-9.707,14.4l4.639,13.334
		c0.903,7.248,4.532,12.396,11.786,11.496c0.527-0.066,1.041-0.17,1.546-0.295c2.498,15.994,9.116,27.123,20.478,34.697
		c12.789,8.523,23.702,15.491,33.041,15.491c9.642,0,21.421-8.411,33.041-18.474c10.836-9.381,17.854-16.725,20.45-31.85
		c0.649,0.188,1.317,0.34,2.009,0.428c7.254,0.898,10.885-4.248,11.787-11.496l4.639-13.334
		C167.82,135.249,163.367,129.027,156.85,127.516z"/>
</g>
<g id="FACE_3_">
	<circle fill="#121212" cx="79.479" cy="143.1" r="4.252"/>
	<circle fill="#121212" cx="112.917" cy="143.1" r="4.252"/>
	<g opacity="0.2">
		<path fill="#020303" d="M95.889,186.107h-0.882c-7.7,0-11.393-3.287-11.546-3.428c-0.611-0.559-0.654-1.508-0.097-2.119
			s1.508-0.653,2.119-0.098c0.021,0.02,3.073,2.645,9.521,2.645h0.884c6.445,0,9.496-2.617,9.524-2.645
			c0.61-0.556,1.562-0.515,2.119,0.098s0.515,1.562-0.099,2.119C107.282,182.82,103.59,186.107,95.889,186.107z"/>
	</g>
</g>
<g id="Laag_22">
	<g>
		<path fill="#ECAD5E" d="M62.011,201.268c-11.362-7.574-17.98-18.703-20.478-34.697c-0.505,0.125-1.019,0.229-1.546,0.296
			c-7.254,0.899-10.883-4.248-11.786-11.496l-4.639-13.334c-0.02-0.157-0.022-0.313-0.037-0.47l-3.617,5.785
			c1.016,5.84,5.022,22.664,12.143,32.723S62.011,201.268,62.011,201.268z"/>
	</g>
	<path fill="#78B47B" d="M175.99,100.957c-2.104-16.307-14.955-36.334-20-43.457c-10.842-15.307-25.812-20.105-36.51-29.667
		c-10.815-9.667-20.074-10-24.491-10c-4.415,0-15.511,0.667-24.489,10c-9.945,10.34-25.667,14.36-36.509,29.667
		c-5.045,7.123-17.896,27.15-20,43.457c-2.417,18.734,5.916,46.395,5.916,46.395s18.971-30.1,34.056-40.336
		s41.485-8.701,41.485-8.701s25.485-1.535,40.571,8.701c15.084,10.236,34.056,40.336,34.056,40.336S178.406,119.691,175.99,100.957z
		"/>
	<g>
		<path fill="#ECAD5E" d="M124.574,201.268c11.469-9.434,21.479-19.11,23.969-34.83c0.506,0.125,1.038,0.295,1.564,0.361
			c7.254,0.9,10.771-4.182,11.674-11.43l4.639-13.334c0.021-0.157,0.023-0.312,0.037-0.471l3.617,5.787
			c-1.016,5.838-5.021,22.662-12.143,32.722C150.809,190.132,124.574,201.268,124.574,201.268z"/>
	</g>
</g>
</svg>
